<?xml version="1.0" encoding="UTF-8" standalone="no"?>
<!-- Created with Inkscape (http://www.inkscape.org/) -->

<svg
   xmlns:dc="http://purl.org/dc/elements/1.1/"
   xmlns:cc="http://creativecommons.org/ns#"
   xmlns:rdf="http://www.w3.org/1999/02/22-rdf-syntax-ns#"
   xmlns:svg="http://www.w3.org/2000/svg"
   xmlns="http://www.w3.org/2000/svg"
   xmlns:sodipodi="http://sodipodi.sourceforge.net/DTD/sodipodi-0.dtd"
   xmlns:inkscape="http://www.inkscape.org/namespaces/inkscape"
   id="svg8"
   version="1.1"
   viewBox="0 0 33.866667 33.866667"
   height="128"
   width="128"
   inkscape:version="0.92.4 (5da689c313, 2019-01-14)"
   sodipodi:docname="EvoIconPopulation.svg"
   inkscape:export-filename="D:\Dysk Google\Studia III stopnia\Projekty i prace własne\BIM\IN PROG_Optio\_EVO Icons\EvoIconSmall.png"
   inkscape:export-xdpi="96"
   inkscape:export-ydpi="96"
   style="shape-rendering:crispEdges">
  <defs
     id="defs2" />
  <sodipodi:namedview
     id="base"
     pagecolor="#ffffff"
     bordercolor="#666666"
     borderopacity="1.0"
     inkscape:pageopacity="0.0"
     inkscape:pageshadow="2"
     inkscape:zoom="3.3125"
     inkscape:cx="5.0647449"
     inkscape:cy="57.852421"
     inkscape:document-units="mm"
     inkscape:current-layer="layer1"
     showgrid="true"
     units="px"
     inkscape:snap-grids="true"
     inkscape:snap-page="true"
     inkscape:window-width="1920"
     inkscape:window-height="1017"
     inkscape:window-x="-8"
     inkscape:window-y="-8"
     inkscape:window-maximized="1"
     inkscape:pagecheckerboard="true">
    <inkscape:grid
       type="xygrid"
       id="grid3713" />
  </sodipodi:namedview>
  <metadata
     id="metadata5">
    <rdf:RDF>
      <cc:Work
         rdf:about="">
        <dc:format>image/svg+xml</dc:format>
        <dc:type
           rdf:resource="http://purl.org/dc/dcmitype/StillImage" />
        <dc:title></dc:title>
      </cc:Work>
    </rdf:RDF>
  </metadata>
  <g
     inkscape:label="Layer 1"
     inkscape:groupmode="layer"
     id="layer1"
     transform="translate(0,-263.13333)">
    <path
       style="fill:#ffffff;fill-opacity:1;stroke-width:1.1678158"
       d="m 16.933333,263.13333 a 16.933332,16.933325 0 0 0 -8.3199053,2.20968 c 0.02944,0.162 0.068411,0.53 0.1240235,1.19476 0.064984,0.70016 0.097152,1.1245 0.097152,1.27538 0,0.1268 -0.059611,0.19017 -0.1777669,0.19017 -0.03544,0 -0.097419,-0.002 -0.1860352,-0.008 -1.1733058,-0.0992 -2.2270791,-0.1505 -3.2225421,-0.1757 a 16.933332,16.933325 0 0 0 -1.4903484,1.63297 c 0.01368,0.024 0.01938,0.0631 0.03514,0.0811 0.1004318,0.1148 0.2931398,0.17312 0.5767088,0.17312 0.059076,0 0.1738744,-0.004 0.3451985,-0.0119 0.171324,-0.012 0.3115,-0.0196 0.4237468,-0.0196 0.7443687,0 1.4992686,-0.02 2.2613607,-0.062 l 0.4857586,-0.046 c 0.2008597,-0.024 0.3614039,-0.0357 0.4795573,-0.0357 0.1343869,0 0.2032899,0.0649 0.2103228,0.18965 -0.011843,0.0213 -0.063907,0.48886 -0.1565796,1.40405 -0.04726,0.48288 -0.072347,0.96612 -0.072347,1.449 0,0.1208 -0.084991,0.18191 -0.2563151,0.18191 l -0.7978841,-0.091 c -0.33674,-0.036 -1.1034405,-0.0532 -2.3027018,-0.0532 H 4.0493653 c -0.2422163,0 -0.38446,0.059 -0.4258141,0.17983 -0.00592,0.032 -0.00827,0.2184 -0.00827,0.56224 0,0.45872 0.0298,0.75397 0.088884,0.88677 0.1004321,0.2292 0.4790606,0.36481 1.1348143,0.40721 h 1.2939781 c 0.3131079,0 0.7767299,-0.0283 1.3911294,-0.0811 0.6203077,-0.0604 1.0839299,-0.0904 1.3911294,-0.0904 0.1299681,0 0.1943037,0.109 0.1943037,0.3266 0,0.2596 -0.050463,0.73628 -0.1508953,1.4304 -0.1063401,0.75452 -0.2004788,1.20288 -0.283187,1.34772 -0.070892,0.1148 -0.167391,0.17364 -0.291455,0.17364 -0.053168,0 -0.1425863,-0.0119 -0.2666502,-0.0279 -0.4312613,-0.0604 -1.6890323,-0.0889 -3.7744469,-0.0889 -0.4548917,0 -1.1318814,-0.004 -2.0298501,-0.0119 -0.8979686,-0.008 -1.57259757,-0.008 -2.02158193,-0.008 -0.039548,0 -0.0573583,-0.0199 -0.0888835,-0.0279 A 16.933332,16.933325 0 0 0 -1.4366667e-6,280.06666 16.933332,16.933325 0 0 0 0.29817156,283.17035 c 0.0430705,0.0204 0.0709399,0.0358 0.11937256,0.0584 0.30062101,0.14012 0.94412838,0.71581 0.94412838,0.8444 0,0.0593 0.046006,0.0811 0.171049,0.0811 0.09406,0 0.1846441,0.0222 0.2015381,0.0496 0.04922,0.0796 0.1104188,0.0577 0.1384928,-0.0496 0.04347,-0.16623 0.3151518,-0.13285 0.5017782,0.062 0.3044419,0.31785 0.4262616,0.34911 1.0102743,0.25735 0.145869,-0.0229 0.1554721,-0.0349 0.1080037,-0.13901 -0.081244,-0.17831 0.060972,-0.47852 0.2268596,-0.47852 0.1150395,0 0.1271238,-0.019 0.1271238,-0.20154 0,-0.38602 0.265938,-0.75858 0.7828981,-1.09606 0.3350017,-0.21869 0.4009268,-0.24309 0.6521566,-0.24236 0.4551612,0.001 0.6193827,0.12765 0.9213906,0.71003 0.2311799,0.44581 0.252698,0.51609 0.252698,0.82476 0,0.18827 -0.026353,0.36891 -0.059428,0.40876 -0.038409,0.0463 -0.043302,0.0975 -0.013436,0.14469 0.069641,0.11011 0.056901,0.46391 -0.020671,0.56999 -0.065108,0.089 -0.074882,0.0893 -0.197404,0.009 -0.1244089,-0.0815 -0.1314548,-0.0803 -0.1989542,0.0279 -0.038482,0.0617 -0.084364,0.17339 -0.1018027,0.24857 -0.041772,0.18003 0.031693,0.17793 0.434599,-0.0124 0.373856,-0.17665 0.4620903,-0.1832 0.6087483,-0.0455 0.088989,0.0836 0.1300343,0.0931 0.2113566,0.0496 0.1422045,-0.0761 0.3399718,0.0103 0.4444174,0.19379 0.10336,0.18164 0.1279988,0.18497 0.2005045,0.0258 0.044404,-0.0975 0.093344,-0.12454 0.2273763,-0.12454 0.093979,0 0.1800735,-0.0271 0.1912027,-0.0605 0.018594,-0.0558 0.3451804,-0.10146 1.1058758,-0.15451 0.1366715,-0.01 0.3493183,-0.0657 0.4723223,-0.12454 0.213341,-0.10201 1.0238267,-0.65257 1.3348017,-0.90692 l 0.146761,-0.11989 -0.189652,-0.49713 c -0.282826,-0.74153 -0.446954,-1.55306 -0.502295,-2.48098 -0.03993,-0.6695 -0.06722,-0.83912 -0.17415,-1.09399 -0.0696,-0.16589 -0.199919,-0.52505 -0.289904,-0.7984 -0.1138527,-0.34584 -0.2492397,-0.62517 -0.4449347,-0.91829 -0.2661261,-0.39862 -0.3171785,-0.54437 -0.2036045,-0.58033 0.075645,-0.024 0.1330505,0.0305 0.3901565,0.36794 0.3442017,0.45178 0.3957147,0.41041 0.2175577,-0.17415 -0.1820317,-0.59728 -0.1974777,-0.7829 -0.06615,-0.7829 0.07206,0 0.1365697,0.10526 0.2749187,0.44752 0.18008,0.44551 0.290722,0.66841 0.307992,0.62115 0.005,-0.0137 0.03356,-0.32631 0.06356,-0.69505 0.04823,-0.59274 0.06518,-0.67259 0.147795,-0.68833 0.150884,-0.0288 0.178513,0.0817 0.179317,0.72192 3.95e-4,0.33323 0.02114,0.6189 0.04651,0.63458 0.06619,0.0409 0.09349,-0.085 0.132292,-0.61908 0.03825,-0.52646 0.0839,-0.69608 0.188102,-0.69608 0.114763,0 0.130458,0.11721 0.131258,0.96118 3.94e-4,0.44194 0.02045,0.83443 0.04444,0.8723 0.07578,0.11965 0.286018,0.0186 0.506946,-0.2434 0.160692,-0.19057 0.241876,-0.24804 0.350366,-0.24804 0.07772,0 0.141593,0.0248 0.141593,0.0548 0,0.13151 -0.499253,0.83734 -0.780831,1.10433 -0.256626,0.24335 -0.304562,0.31431 -0.286287,0.42375 0.01208,0.0723 0.06803,0.41124 0.12454,0.75292 0.06873,0.41552 0.207617,0.93422 0.418579,1.5658 0.173473,0.51936 0.329565,1.0337 0.347266,1.1436 0.05965,0.37035 0.09146,0.37365 0.423747,0.0413 l 0.302307,-0.30231 -0.0057,-0.41651 c -0.0033,-0.22909 -0.0047,-0.49326 -0.0026,-0.58653 0.0022,-0.0933 -0.0214,-0.19999 -0.05271,-0.23771 -0.03951,-0.0476 -0.04114,-0.0845 -0.0052,-0.12041 0.08059,-0.0806 0.355008,0.0834 0.385506,0.23048 0.01406,0.0678 0.03707,0.17909 0.05116,0.24701 0.03025,0.14587 0.214044,0.20973 0.367419,0.12764 0.05712,-0.0306 0.146577,-0.1387 0.198955,-0.24029 0.107333,-0.20818 0.281955,-0.40824 0.35605,-0.40824 0.102831,0 0.107189,0.16865 0.01033,0.3979 -0.132587,0.31383 -0.07972,0.40164 0.142111,0.23565 0.0918,-0.0687 0.25121,-0.15447 0.353983,-0.19069 0.163314,-0.0576 0.196819,-0.0558 0.267167,0.0145 0.07419,0.0742 0.05661,0.0976 -0.221692,0.29611 -0.293001,0.20906 -0.397361,0.33549 -0.220141,0.26665 0.164759,-0.064 0.61898,-0.13239 0.691947,-0.10439 0.04118,0.0158 0.0658,0.0745 0.05684,0.13488 -0.0121,0.0815 -0.07506,0.12392 -0.264066,0.17673 -0.406486,0.11359 -0.413733,0.11956 -0.223759,0.19069 0.09567,0.0358 0.242191,0.0666 0.325561,0.0687 0.157514,0.004 0.270785,0.0803 0.270785,0.18241 0,0.0411 -0.171421,0.0658 -0.559139,0.0806 -0.531526,0.0203 -0.577376,0.0308 -0.931726,0.21291 -0.519347,0.26684 -0.726155,0.42211 -1.061434,0.79736 l -0.290938,0.32556 0.12764,0.19224 c 0.07005,0.10586 0.183824,0.2559 0.252698,0.33331 0.06888,0.0774 0.19236,0.21666 0.274919,0.30955 0.08256,0.0929 0.150378,0.20233 0.150378,0.24288 0,0.0902 0.19278,0.41279 0.291455,0.48782 0.03957,0.0301 0.07452,0.13734 0.07803,0.23823 0.0047,0.13575 0.05179,0.23152 0.179834,0.36794 0.09515,0.10138 0.239314,0.2787 0.32091,0.39429 0.0816,0.11559 0.170423,0.21077 0.196887,0.21135 0.07183,10e-4 0.27931,0.25555 0.33383,0.40825 0.03304,0.0926 0.08895,0.1382 0.180868,0.14882 0.094,0.0109 0.13759,0.048 0.148828,0.12713 0.0098,0.0689 0.05007,0.11214 0.10542,0.11214 0.04942,0 0.117899,0.0334 0.151929,0.0744 0.08301,0.10002 0.198954,0.0944 0.198954,-0.009 0,-0.0461 0.04616,-0.13294 0.102836,-0.19327 l 0.102836,-0.10955 -0.09974,-0.32402 c -0.05504,-0.1782 -0.125531,-0.50962 -0.156579,-0.73639 -0.03105,-0.22677 -0.07344,-0.4467 -0.09405,-0.48885 -0.05338,-0.10916 -0.07964,-0.59234 -0.06356,-1.16789 0.01635,-0.5852 0.107603,-0.83732 0.421679,-1.16375 0.318759,-0.33128 0.618846,-0.45262 1.120345,-0.45321 0.502761,-4.8e-4 0.837659,0.0908 1.256771,0.34262 0.373322,0.22433 0.608266,0.50779 0.713135,0.86093 0.09602,0.32334 0.09538,0.54266 -0.0016,0.8847 -0.04234,0.14946 -0.09796,0.37104 -0.124024,0.49196 -0.02605,0.12092 -0.0788,0.25509 -0.116789,0.29817 -0.03799,0.0431 -0.08459,0.19633 -0.103869,0.34055 -0.03522,0.2635 -0.123749,0.40876 -0.24908,0.40876 -0.06296,0 -0.106438,0.15176 -0.201539,0.70331 -0.02979,0.17276 -0.02354,0.18281 0.127641,0.21601 0.08732,0.0192 0.19954,0.076 0.249597,0.12609 0.07816,0.0781 0.0991,0.0807 0.149862,0.0196 0.03251,-0.0392 0.09086,-0.0713 0.129191,-0.0713 0.03833,0 0.09019,-0.0547 0.115755,-0.12196 0.02557,-0.0672 0.1371,-0.21255 0.24753,-0.32298 0.110428,-0.11043 0.200505,-0.21642 0.200505,-0.23513 0,-0.0187 0.04222,-0.12502 0.09353,-0.23616 0.145609,-0.31539 0.252168,-0.61116 0.329696,-0.9157 0.133755,-0.52542 0.297711,-0.92615 0.439766,-1.07539 0.221584,-0.2328 0.41578,-0.66741 0.502812,-1.12345 0.161272,-0.84504 0.235829,-1.07821 0.569991,-1.78387 0.400474,-0.8457 0.797591,-1.97891 0.833024,-2.37763 0.0231,-0.25994 0.01278,-0.29635 -0.134359,-0.48007 -0.211922,-0.26463 -0.267682,-0.38332 -0.374137,-0.7953 -0.04944,-0.19134 -0.121367,-0.41159 -0.160197,-0.4899 -0.08663,-0.1747 -0.02451,-0.25707 0.15968,-0.21084 0.102233,0.0257 0.165919,0.11163 0.299207,0.40411 0.09307,0.20423 0.189287,0.37156 0.21394,0.37156 0.140074,0 0.213598,-0.20594 0.259933,-0.72606 0.01636,-0.1836 0.0336,-0.346 0.05116,-0.49196 -0.638416,-0.20602 -1.20264,-0.54848 -1.687235,-1.03662 -0.838893,-0.84504 -1.258838,-1.93183 -1.258838,-3.25975 0,-1.40036 0.401649,-2.53529 1.205094,-3.40445 0.803447,-0.87524 1.891233,-1.31258 3.261817,-1.31258 1.335137,0 2.416136,0.42859 3.243213,1.28571 0.827075,0.85108 1.240235,1.95967 1.240235,3.32383 0,1.3762 -0.41316,2.49151 -1.240235,3.34863 -0.820092,0.85596 -1.899446,1.28459 -3.238046,1.28571 -0.02796,0.0592 -0.04911,0.10821 -0.08475,0.17932 -0.160962,0.32115 -0.281015,0.59546 -0.26665,0.60926 0.01436,0.0138 0.174389,-0.1374 0.35605,-0.33589 0.181662,-0.1985 0.358573,-0.36102 0.392741,-0.3607 0.144771,0.001 0.04522,0.24767 -0.241846,0.59841 -0.306204,0.37412 -0.368407,0.48549 -0.620117,1.11259 -0.07581,0.18888 -0.213141,0.4424 -0.305407,0.56328 -0.228985,0.29999 -0.250524,0.37082 -0.337448,1.12137 -0.104471,0.90207 -0.275599,1.5756 -0.588594,2.31459 -0.34353,0.81109 -0.498893,1.27236 -0.606681,1.79886 l -0.08733,0.42581 0.164848,0.2403 c 0.197796,0.28749 0.348816,0.6656 0.348816,0.87436 0,0.17215 -0.05647,0.29347 -0.252181,0.54312 -0.075,0.0957 -0.213871,0.38629 -0.309025,0.64596 -0.278254,0.75936 -0.310411,0.67744 0.254765,0.65474 0.504588,-0.0203 0.698004,0.028 0.850594,0.21187 0.03552,0.0428 0.115093,0.0775 0.17725,0.0775 0.141947,0 0.39001,0.27613 0.472323,0.52555 0.07843,0.23763 0.03366,0.75019 -0.09974,1.13791 -0.05495,0.15972 -0.100252,0.3699 -0.100252,0.46715 0,0.15371 0.0095,0.16765 0.0708,0.10439 0.03876,-0.04 0.139348,-0.25361 0.223759,-0.47439 0.08441,-0.22078 0.233608,-0.49468 0.331245,-0.60875 l 0.177251,-0.20722 -0.165365,-0.007 c -0.154655,-0.007 -0.156387,-0.009 -0.02584,-0.0284 0.07678,-0.0116 0.152856,-0.0585 0.168982,-0.10438 0.01612,-0.0458 0.07486,-0.13385 0.130224,-0.19534 0.09477,-0.10529 0.09489,-0.11162 0.0088,-0.11162 -0.05032,0 -0.07647,-0.0146 -0.05839,-0.0326 0.02771,-0.0277 0.391007,0.0194 0.869715,0.11318 0.06362,0.0125 0.205541,0.11444 0.315226,0.22634 l 0.199471,0.20308 0.100769,-0.10076 c 0.09303,-0.093 0.09655,-0.12117 0.04082,-0.35347 -0.05593,-0.23313 -0.05202,-0.26663 0.05219,-0.43977 0.06204,-0.10309 0.154385,-0.2283 0.205156,-0.27802 0.0659,-0.0645 0.08471,-0.13569 0.06666,-0.24856 -0.05631,-0.35218 -0.05256,-0.94338 0.0062,-0.96376 0.08731,-0.0303 0.169576,0.1578 0.241329,0.55293 l 0.06408,0.35244 0.0041,-0.50643 c 0.0024,-0.27856 0.02551,-0.51932 0.05064,-0.53485 0.113797,-0.0703 0.192724,0.13299 0.225826,0.57981 0.0429,0.5791 0.101485,0.8087 0.258383,1.0144 0.09273,0.12157 0.120136,0.21007 0.108002,0.35089 -0.01343,0.15591 5.64e-4,0.1911 0.08268,0.20567 0.05454,0.01 0.225377,0.0734 0.379306,0.14159 l 0.27957,0.12402 0.519348,-0.37 c 0.682953,-0.48616 1.203809,-0.79253 1.31568,-0.77411 0.04967,0.008 0.118279,-0.002 0.152448,-0.0243 0.08167,-0.0512 0.08245,-0.64742 0.001,-0.77773 -0.04121,-0.066 -0.04451,-0.11362 -0.01034,-0.14779 0.07817,-0.0782 0.252386,0.0702 0.287321,0.24494 0.04967,0.24833 0.20763,0.19911 0.552421,-0.17208 0.281697,-0.30327 0.424262,-0.39419 0.424262,-0.26975 0,0.0296 -0.07796,0.14938 -0.173632,0.26613 -0.246716,0.30109 -0.216191,0.32012 0.09198,0.0568 0.238662,-0.2039 0.429432,-0.28897 0.429432,-0.19172 0,0.0196 -0.105807,0.14493 -0.235646,0.27853 l -0.236162,0.24288 0.258384,-0.12919 c 0.1548,-0.0772 0.270126,-0.10905 0.288354,-0.0796 0.04843,0.0784 -0.01508,0.14196 -0.273368,0.27285 -0.319016,0.16165 -0.374332,0.24875 -0.128159,0.20257 0.101563,-0.019 0.219133,-0.0476 0.260967,-0.0636 0.0541,-0.0207 0.07086,-0.003 0.05839,0.062 -0.01166,0.0606 -0.09253,0.10997 -0.241329,0.14831 -0.122973,0.0317 -0.310258,0.11711 -0.416512,0.18966 -0.106252,0.0725 -0.278487,0.15481 -0.382921,0.18293 -0.104434,0.0281 -0.203502,0.0726 -0.219625,0.0987 -0.01612,0.0261 0.01009,0.15739 0.05788,0.29198 0.107114,0.30157 0.118348,0.28564 -0.558104,0.79529 -0.276093,0.20803 -0.744863,0.60773 -1.041797,0.88781 l -0.54002,0.50901 0.05943,0.16536 c 0.09772,0.27024 0.07731,0.38377 -0.08062,0.44339 -0.09068,0.0342 -0.170423,0.12132 -0.223758,0.24443 -0.04553,0.10508 -0.104526,0.19068 -0.131259,0.19068 -0.02687,0 -0.03574,0.0631 -0.02015,0.14108 0.04291,0.21452 -0.08074,0.30551 -0.41961,0.30954 -0.244608,0.003 -0.265819,0.0105 -0.158131,0.0558 0.05035,0.0212 0.26289,0.11638 0.453718,0.20154 a 16.933332,16.933325 0 0 0 0.971518,-0.80564 c -0.01681,-0.0556 -0.03345,-0.10785 -0.04496,-0.1328 -0.0546,-0.11833 -0.0056,-0.59777 0.06563,-0.64182 0.02477,-0.0153 0.04496,-0.0663 0.04496,-0.11318 0,-0.0468 0.06811,-0.16725 0.150897,-0.26768 0.166643,-0.20217 0.309865,-0.50611 0.261483,-0.55449 -0.01714,-0.0171 0.0117,-0.0317 0.06408,-0.0326 0.05239,-9.7e-4 0.160568,-0.0675 0.240295,-0.14882 0.07972,-0.0812 0.181697,-0.1478 0.226343,-0.1478 0.04465,0 0.10219,-0.0187 0.128156,-0.0413 0.05347,-0.0465 0.323355,-0.12699 0.701768,-0.20929 0.136482,-0.0297 0.223602,-0.0388 0.301789,-0.017 a 16.933332,16.933325 0 0 0 3.494047,-10.28145 16.933332,16.933325 0 0 0 -16.933333,-16.93333 z m -6.707601,5.86631 c 0.301292,0 0.753406,0.008 1.35599,0.0279 0.608492,0.02 1.062964,0.0279 1.364257,0.0279 0.135876,0 0.204639,0.0944 0.204639,0.28164 0,0.1692 -0.01154,0.4249 -0.03514,0.76894 -0.02364,0.338 -0.03514,0.59597 -0.03514,0.77101 0,0.62776 0.01624,1.13949 0.05168,1.53789 0.01772,0.2052 0.189773,0.59222 0.514698,1.15962 0.33674,0.59756 0.582271,0.89711 0.735872,0.89711 0.147692,0 0.384076,-0.29318 0.709001,-0.8785 0.313108,-0.54928 0.480731,-0.92326 0.504362,-1.12242 0.04726,-0.42856 0.07028,-0.94892 0.07028,-1.55856 0,-0.1752 -0.01624,-0.43747 -0.05168,-0.78755 -0.03544,-0.356 -0.05374,-0.6185 -0.05374,-0.78754 0,-0.1872 0.06198,-0.28164 0.186035,-0.28164 0.141784,0 0.350724,0.004 0.628385,0.0124 0.283572,0.008 0.496937,0.008 0.638721,0.008 0.141784,0 0.355151,-0.0122 0.638721,-0.0362 0.289476,-0.024 0.505204,-0.0357 0.646989,-0.0357 0.147692,0 0.244191,0.0789 0.291455,0.23565 0.100436,0.344 0.150895,1.04385 0.150895,2.10013 0,1.03216 -0.03215,1.64222 -0.09715,1.82934 -0.135876,0.42856 -0.544314,1.15463 -1.223698,2.18075 -0.590769,0.88128 -1.095707,1.57003 -1.515153,2.06499 -0.1536,0.1872 -0.617221,0.28112 -1.391129,0.28112 -0.673476,0 -1.109652,-0.0239 -1.310515,-0.0723 -0.124059,-0.032 -0.227354,-0.0911 -0.310058,-0.1819 -0.354468,-0.3924 -0.859399,-1.0751 -1.515153,-2.0469 -0.703014,-1.0442 -1.122961,-1.75929 -1.258838,-2.14561 -0.1476917,-0.41648 -0.2211747,-1.03979 -0.2211747,-1.87275 0,-0.2356 0.0023,-0.5896 0.0083,-1.0604 0.0059,-0.47684 0.0083,-0.83498 0.0083,-1.07642 0,-0.1568 0.1032867,-0.23565 0.3100587,-0.23565 z m 13.797607,2.35438 c -0.466708,0 -0.850058,0.18601 -1.151351,0.56017 -0.283568,0.35 -0.425813,0.76769 -0.425813,1.25057 0,0.48892 0.142243,0.90872 0.425813,1.25884 0.301292,0.374 0.684643,0.56017 1.151351,0.56017 0.4608,0 0.84179,-0.18601 1.143083,-0.56017 0.27766,-0.35 0.417545,-0.76992 0.417545,-1.25884 0,-0.47684 -0.144603,-0.89668 -0.434081,-1.25884 -0.289477,-0.368 -0.665747,-0.5519 -1.126547,-0.5519 z m -1.185457,6.31176 c -0.0026,0.2767 0.0066,0.47672 0.03204,0.49247 0.02861,0.0177 0.06351,-0.0489 0.08165,-0.15503 0.01559,-0.0913 0.03706,-0.19465 0.05943,-0.29765 -0.05878,-0.0113 -0.11549,-0.0264 -0.173116,-0.0398 z m 0.533301,0.093 c -0.0061,0.0323 -0.01155,0.0706 -0.01757,0.0997 -0.04421,0.21401 -0.07243,0.41366 -0.06253,0.44338 0.0099,0.0297 0.149221,-0.15654 0.309542,-0.41393 0.02633,-0.0423 0.04181,-0.0658 0.06511,-0.10283 -0.09969,-0.006 -0.19775,-0.0151 -0.294555,-0.0264 z m -11.641667,7.87187 c -0.01964,0.006 -0.151956,0.17391 -0.294039,0.37311 -0.221255,0.31018 -0.304683,0.38445 -0.581359,0.51883 -0.55513,0.26965 -0.774834,0.32541 -0.9673827,0.24495 l -0.164848,-0.0693 -0.08888,0.1974 c -0.04889,0.10842 -0.151662,0.24954 -0.2278928,0.31368 -0.20507,0.17255 -0.6053381,0.29062 -0.892452,0.26303 -0.2427129,-0.0233 -0.2441712,-0.023 -0.5844603,0.30438 -0.1875658,0.1805 -0.3856789,0.41776 -0.4402834,0.5271 -0.1586065,0.31758 -0.6184802,1.47441 -0.5953124,1.49758 0.024154,0.0242 0.308107,-0.39293 0.5002278,-0.73484 0.1544802,-0.27493 0.4986494,-0.58979 0.7984008,-0.7307 0.1472894,-0.0692 0.2319978,-0.14755 0.2661338,-0.24547 0.083948,-0.24081 0.3503742,-0.49666 0.6924641,-0.66507 0.2863686,-0.14098 0.3735894,-0.15968 0.7291544,-0.15865 0.3355937,9.8e-4 0.4511807,0.0237 0.6867797,0.13643 0.345423,0.16516 0.696452,0.53997 0.805636,0.86041 0.09535,0.27985 0.09892,0.84875 0.0088,1.33273 -0.06248,0.33548 -0.285282,0.85668 -0.397392,0.92966 -0.350377,0.22809 -0.323788,0.2716 0.387573,0.62735 0.404595,0.20235 0.646899,0.35465 0.705383,0.44391 0.09389,0.14329 0.11773,0.36658 0.05736,0.53433 -0.03162,0.0879 0.01779,0.1259 0.398425,0.30592 0.495021,0.23413 0.506236,0.23733 0.529684,0.15297 0.0095,-0.0342 0.05428,-0.3768 0.09974,-0.7612 l 0.08268,-0.69866 -0.174667,-0.40773 c -0.09604,-0.2244 -0.252662,-0.65554 -0.348299,-0.95756 -0.165947,-0.52406 -0.526653,-1.26971 -0.832507,-1.72083 -0.205626,-0.30328 -0.437655,-0.81327 -0.4377,-0.96221 -2.3e-5,-0.0712 0.08804,-0.24772 0.197921,-0.3974 0.321476,-0.43792 0.323028,-0.4453 0.213424,-0.77411 -0.05328,-0.15985 -0.112647,-0.28591 -0.132292,-0.28009 z m 12.540837,4.04679 c -0.122271,-0.007 -0.24598,0.0703 -0.24598,0.15244 0,0.0672 0.087,0.044 0.115755,-0.031 0.01492,-0.0389 0.07894,-0.0805 0.14211,-0.0925 0.109743,-0.0209 0.109199,-0.0225 -0.01188,-0.0289 z m 0.500227,1.21129 c -0.02778,-0.0172 -0.05064,0.003 -0.05064,0.0465 0,0.0873 0.02974,0.1 0.07235,0.031 0.01573,-0.0254 0.0061,-0.0603 -0.02171,-0.0775 z m -1.080554,0.093 c -0.0052,0.005 -0.0086,0.0227 -0.0098,0.0517 -0.0021,0.0524 0.0099,0.0816 0.02635,0.0651 0.01645,-0.0164 0.01779,-0.0593 0.0036,-0.0951 -0.0078,-0.0192 -0.015,-0.0269 -0.02015,-0.0217 z m -0.111104,0.0806 c -0.06471,0 -0.150895,0.16856 -0.150895,0.29508 0,0.12555 0.04191,0.13047 0.129191,0.0155 0.07689,-0.1013 0.09166,-0.31058 0.0217,-0.31058 z m -3.228744,0.19896 c -0.06626,0 -0.268951,1.55677 -0.210323,1.6154 0.02181,0.0218 0.203373,-0.0451 0.40411,-0.14882 0.153775,-0.0795 0.233404,-0.19253 0.300757,-0.42737 0.03179,-0.11085 0.01693,-0.16417 -0.07183,-0.25993 -0.06143,-0.0663 -0.174653,-0.26889 -0.251665,-0.4501 -0.07701,-0.1812 -0.153976,-0.32918 -0.171049,-0.32918 z m 2.906283,0.17518 c -0.01859,-0.005 -0.02645,0.0453 -0.02687,0.16278 -4.51e-4,0.13027 0.01885,0.20214 0.04909,0.18345 0.02733,-0.0169 0.04951,-0.0796 0.04909,-0.13952 -4.15e-4,-0.0599 -0.02259,-0.14245 -0.04909,-0.18345 -0.0088,-0.0136 -0.01603,-0.0216 -0.02222,-0.0233 z m 0.51418,0.36845 c -0.03109,0.003 -0.04659,0.0587 -0.0155,0.10904 0.03131,0.0507 0.04312,0.0505 0.05994,0 0.01151,-0.0345 0.0072,-0.0765 -0.0093,-0.093 -0.01263,-0.0126 -0.02478,-0.0171 -0.03514,-0.016 z"
       id="path3719"
       inkscape:connector-curvature="0" />
    <text
       xml:space="preserve"
       style="font-style:normal;font-weight:normal;font-size:10.58333302px;line-height:1.25;font-family:sans-serif;letter-spacing:0px;word-spacing:0px;fill:#000000;fill-opacity:1;stroke:none;stroke-width:0.26458332"
       x="4.2333331"
       y="287.47501"
       id="text4535"><tspan
         sodipodi:role="line"
         id="tspan4533"
         x="4.2333331"
         y="297.13049"
         style="stroke-width:0.26458332" /></text>
  </g>
</svg>
