<?xml version="1.0" encoding="UTF-8" standalone="no"?>
<!-- Created with Inkscape (http://www.inkscape.org/) -->

<svg
   xmlns:dc="http://purl.org/dc/elements/1.1/"
   xmlns:cc="http://creativecommons.org/ns#"
   xmlns:rdf="http://www.w3.org/1999/02/22-rdf-syntax-ns#"
   xmlns:svg="http://www.w3.org/2000/svg"
   xmlns="http://www.w3.org/2000/svg"
   xmlns:sodipodi="http://sodipodi.sourceforge.net/DTD/sodipodi-0.dtd"
   xmlns:inkscape="http://www.inkscape.org/namespaces/inkscape"
   id="svg8"
   version="1.1"
   viewBox="0 0 33.866667 33.866667"
   height="128"
   width="128"
   inkscape:version="0.92.4 (5da689c313, 2019-01-14)"
   sodipodi:docname="EvoIconTermination.svg"
   inkscape:export-filename="D:\Dysk Google\Studia III stopnia\Projekty i prace własne\BIM\IN PROG_Optio\_EVO Icons\EvoIconSmall.png"
   inkscape:export-xdpi="96"
   inkscape:export-ydpi="96"
   style="shape-rendering:crispEdges">
  <defs
     id="defs2" />
  <sodipodi:namedview
     id="base"
     pagecolor="#ffffff"
     bordercolor="#666666"
     borderopacity="1.0"
     inkscape:pageopacity="0.0"
     inkscape:pageshadow="2"
     inkscape:zoom="6.6250001"
     inkscape:cx="63.999999"
     inkscape:cy="64.000001"
     inkscape:document-units="mm"
     inkscape:current-layer="layer1"
     showgrid="true"
     units="px"
     inkscape:snap-grids="false"
     inkscape:snap-page="false"
     inkscape:window-width="1920"
     inkscape:window-height="1017"
     inkscape:window-x="-8"
     inkscape:window-y="-8"
     inkscape:window-maximized="1"
     inkscape:pagecheckerboard="true"
     inkscape:snap-to-guides="false">
    <inkscape:grid
       type="xygrid"
       id="grid3713" />
  </sodipodi:namedview>
  <metadata
     id="metadata5">
    <rdf:RDF>
      <cc:Work
         rdf:about="">
        <dc:format>image/svg+xml</dc:format>
        <dc:type
           rdf:resource="http://purl.org/dc/dcmitype/StillImage" />
        <dc:title></dc:title>
      </cc:Work>
    </rdf:RDF>
  </metadata>
  <g
     inkscape:label="Layer 1"
     inkscape:groupmode="layer"
     id="layer1"
     transform="translate(0,-263.13333)">
    <path
       style="fill:#ffffff;fill-opacity:1;stroke-width:1.1678158"
       d="m 16.933333,263.13333 a 16.933332,16.933325 0 0 0 -8.3199053,2.20968 c 0.02944,0.162 0.068411,0.53 0.1240235,1.19476 0.064984,0.70016 0.097152,1.1245 0.097152,1.27538 0,0.1268 -0.059611,0.19017 -0.1777669,0.19017 -0.03544,0 -0.097419,-0.002 -0.1860352,-0.008 -1.1733058,-0.0992 -2.2270791,-0.1505 -3.2225421,-0.1757 a 16.933332,16.933325 0 0 0 -1.4903484,1.63297 c 0.01368,0.024 0.01938,0.0631 0.03514,0.0811 0.1004318,0.1148 0.2931398,0.17312 0.5767088,0.17312 0.059076,0 0.1738744,-0.004 0.3451985,-0.0119 0.171324,-0.012 0.3115,-0.0196 0.4237468,-0.0196 0.7443687,0 1.4992686,-0.02 2.2613607,-0.062 l 0.4857586,-0.046 c 0.2008597,-0.024 0.3614039,-0.0357 0.4795573,-0.0357 0.1343869,0 0.2032899,0.0649 0.2103228,0.18965 -0.011843,0.0213 -0.063907,0.48886 -0.1565796,1.40405 -0.04726,0.48288 -0.072347,0.96612 -0.072347,1.449 0,0.1208 -0.084991,0.18191 -0.2563151,0.18191 l -0.7978841,-0.091 c -0.33674,-0.036 -1.1034405,-0.0532 -2.3027018,-0.0532 H 4.0493653 c -0.2422163,0 -0.38446,0.059 -0.4258141,0.17983 -0.00592,0.032 -0.00827,0.2184 -0.00827,0.56224 0,0.45872 0.0298,0.75397 0.088884,0.88677 0.1004321,0.2292 0.4790606,0.36481 1.1348143,0.40721 h 1.2939781 c 0.3131079,0 0.7767299,-0.0283 1.3911294,-0.0811 0.6203077,-0.0604 1.0839299,-0.0904 1.3911294,-0.0904 0.1299681,0 0.1943037,0.109 0.1943037,0.3266 0,0.2596 -0.050463,0.73628 -0.1508953,1.4304 -0.1063401,0.75452 -0.2004788,1.20288 -0.283187,1.34772 -0.070892,0.1148 -0.167391,0.17364 -0.291455,0.17364 -0.053168,0 -0.1425863,-0.0119 -0.2666502,-0.0279 -0.4312613,-0.0604 -1.6890323,-0.0889 -3.7744469,-0.0889 -0.4548917,0 -1.1318814,-0.004 -2.0298501,-0.0119 -0.8979686,-0.008 -1.57259757,-0.008 -2.02158193,-0.008 -0.039548,0 -0.0573583,-0.0199 -0.0888835,-0.0279 a 16.933332,16.933325 0 0 0 -0.18345133,1.88464 c 0.62133459,-0.0504 1.39906236,-0.27685 2.39726966,-0.6966 1.3485901,-0.56705 2.1768643,-0.82297 2.696993,-0.83354 1.0300086,-0.0209 1.8546194,0.36154 2.6654704,1.23713 0.2089949,0.22568 0.259788,0.25956 0.3333128,0.21911 0.047832,-0.0264 0.1747034,-0.0231 0.2816366,0.008 l 0.1943033,0.0553 -0.00207,2.57245 c -0.00118,1.41498 -0.00949,4.15885 -0.018604,6.0973 -0.00911,1.93844 -0.00345,3.53097 0.012919,3.5388 0.016103,0.008 0.6234226,-0.48589 1.3487547,-1.09709 2.8396067,-2.39279 6.2172217,-5.23114 7.1225627,-5.98516 l 0.950329,-0.79117 0.162264,0.11007 c 0.08913,0.0606 0.172439,0.1563 0.185519,0.21239 0.02014,0.0887 0.08213,0.10578 0.457336,0.12661 0.238729,0.0131 0.643859,0.0745 0.90072,0.13643 0.401036,0.0967 0.527318,0.15132 0.893486,0.3855 0.849816,0.54362 1.159647,1.07547 1.832446,3.14761 0.460082,1.41701 0.698564,1.97055 1.066085,2.4722 0.524367,0.7158 1.219912,1.05784 2.295984,1.12965 0.29878,0.02 0.600508,0.0477 0.67076,0.062 0.126153,0.0257 0.125926,0.0279 -0.03772,0.17673 -0.189693,0.17247 -2.831833,2.42411 -5.021399,4.27933 l -0.576192,0.48834 a 16.933332,16.933325 0 0 0 13.035381,-16.4597 16.933332,16.933325 0 0 0 -16.933333,-16.93333 z m 7.07347,5.42189 c 1.335137,0 2.416136,0.42859 3.243213,1.28571 0.827075,0.85108 1.240235,1.95967 1.240235,3.32383 0,1.3762 -0.41316,2.49151 -1.240235,3.34863 -0.82117,0.85708 -1.902169,1.28571 -3.243213,1.28571 -1.299692,0 -2.369182,-0.42206 -3.208073,-1.2671 -0.838893,-0.84504 -1.258838,-1.93183 -1.258838,-3.25975 0,-1.40036 0.401649,-2.53529 1.205094,-3.40445 0.803447,-0.87524 1.891233,-1.31258 3.261817,-1.31258 z m -13.781071,0.44442 c 0.301292,0 0.753406,0.008 1.35599,0.0279 0.608492,0.02 1.062964,0.0279 1.364257,0.0279 0.135876,0 0.204639,0.0944 0.204639,0.28164 0,0.1692 -0.01154,0.4249 -0.03514,0.76894 -0.02364,0.338 -0.03514,0.59597 -0.03514,0.77101 0,0.62776 0.01624,1.13949 0.05168,1.53789 0.01772,0.2052 0.189773,0.59222 0.514698,1.15962 0.33674,0.59756 0.582271,0.89711 0.735872,0.89711 0.147692,0 0.384076,-0.29318 0.709001,-0.8785 0.313108,-0.54928 0.480731,-0.92326 0.504362,-1.12242 0.04726,-0.42856 0.07028,-0.94892 0.07028,-1.55856 0,-0.1752 -0.01624,-0.43747 -0.05168,-0.78755 -0.03544,-0.356 -0.05374,-0.6185 -0.05374,-0.78754 0,-0.1872 0.06198,-0.28164 0.186035,-0.28164 0.141784,0 0.350724,0.004 0.628385,0.0124 0.283572,0.008 0.496937,0.008 0.638721,0.008 0.141784,0 0.355151,-0.0122 0.638721,-0.0362 0.289476,-0.024 0.505204,-0.0357 0.646989,-0.0357 0.147692,0 0.244191,0.0789 0.291455,0.23565 0.100436,0.344 0.150895,1.04385 0.150895,2.10013 0,1.03216 -0.03215,1.64222 -0.09715,1.82934 -0.135876,0.42856 -0.544314,1.15463 -1.223698,2.18075 -0.590769,0.88128 -1.095707,1.57003 -1.515153,2.06499 -0.1536,0.1872 -0.617221,0.28112 -1.391129,0.28112 -0.673476,0 -1.109652,-0.0239 -1.310515,-0.0723 -0.124059,-0.032 -0.227354,-0.0911 -0.310058,-0.1819 -0.354468,-0.3924 -0.859399,-1.0751 -1.515153,-2.0469 -0.703014,-1.0442 -1.122961,-1.75929 -1.258838,-2.14561 -0.1476917,-0.41648 -0.2211747,-1.03979 -0.2211747,-1.87275 0,-0.2356 0.0023,-0.5896 0.0083,-1.0604 0.0059,-0.47684 0.0083,-0.83498 0.0083,-1.07642 0,-0.1568 0.1032867,-0.23565 0.3100587,-0.23565 z m 13.797607,2.35438 c -0.466708,0 -0.850058,0.18601 -1.151351,0.56017 -0.283568,0.35 -0.425813,0.76769 -0.425813,1.25057 0,0.48892 0.142243,0.90872 0.425813,1.25884 0.301292,0.374 0.684643,0.56017 1.151351,0.56017 0.4608,0 0.84179,-0.18601 1.143083,-0.56017 0.27766,-0.35 0.417545,-0.76992 0.417545,-1.25884 0,-0.47684 -0.144603,-0.89668 -0.434081,-1.25884 -0.289477,-0.368 -0.665747,-0.5519 -1.126547,-0.5519 z m -17.662487,6.85901 c -0.021755,0.005 -0.035837,0.0209 -0.047542,0.046 -0.039245,0.084 -0.081358,1.46446 -0.049093,1.60869 0.011545,0.0515 0.138238,0.14276 0.3116091,0.22376 0.3257365,0.15216 0.8893627,0.59422 1.150834,0.90278 0.2214716,0.26076 0.2473722,0.27401 0.2666505,0.12868 0.048083,-0.36954 0.00683,-1.30139 -0.066663,-1.50378 -0.1026596,-0.28266 -0.4238749,-0.62296 -0.9834022,-1.04232 -0.3789672,-0.284 -0.517129,-0.37732 -0.5823935,-0.3638 z m -2.0918619,0.0155 c -0.1162865,4.4e-4 -0.3117414,0.0819 -0.6392376,0.19947 -0.4095901,0.14706 -0.8000222,0.30856 -0.8676473,0.35915 -0.1455106,0.10889 -0.1623451,0.22427 -0.1648478,1.12293 l -0.00207,0.58756 0.879016,-0.31781 c 0.48325,-0.17478 0.8957291,-0.30952 0.9167399,-0.29972 0.021319,0.01 0.036253,0.1639 0.034106,0.34262 -0.011971,0.99124 -0.00231,1.29011 0.041341,1.31051 0.026669,0.0125 0.25919,0.0111 0.5167643,-0.004 0.2576041,-0.0145 0.6322094,10e-4 0.8325074,0.0357 0.4374092,0.074 0.4229376,0.10577 0.4159952,-0.93431 -0.00417,-0.624 -0.019339,-0.70929 -0.1348754,-0.76326 -0.1760386,-0.0823 -0.8071172,-0.12591 -1.2293824,-0.0847 -0.1898674,0.0185 -0.3638508,0.0251 -0.3865396,0.0145 -0.022711,-0.0106 -0.041619,-0.32046 -0.042375,-0.68885 -0.00134,-0.65653 0.024312,-0.88077 -0.1694987,-0.88005 z m -3.66489267,1.33015 c -0.092169,0.004 -0.21786932,0.0125 -0.35501703,0.0253 -0.0715037,0.007 -0.15139729,0.0105 -0.23409424,0.0124 A 16.933332,16.933325 0 0 0 -3.6666667e-8,280.06663 16.933332,16.933325 0 0 0 0.06252846,281.31514 c 0.10380199,-0.003 0.20559354,-0.009 0.29352212,-0.0186 0.17873305,-0.0206 0.34319605,-0.0289 0.36535245,-0.0186 0.022144,0.0104 0.039964,0.36981 0.039791,0.79892 -1.702e-4,0.42909 0.015547,0.80391 0.034623,0.83302 0.019384,0.0288 0.41061467,-0.0829 0.87023107,-0.24908 0.4596194,-0.16618 0.8529793,-0.29421 0.8743652,-0.28422 0.021562,0.01 0.040451,0.36904 0.042375,0.79788 0.00192,0.42884 0.019111,0.78688 0.038241,0.79582 0.019329,0.009 0.4121922,-0.13045 0.8733316,-0.31006 0.4611423,-0.1796 0.8564438,-0.30979 0.8779827,-0.28939 0.033461,0.0315 0.042027,0.76935 0.01757,1.47433 l -0.00723,0.20051 0.5312339,-0.031 c 0.2919359,-0.0172 0.6720583,-0.004 0.8449095,0.0284 0.4163571,0.079 0.4505725,0.0117 0.4542359,-0.88831 0.00286,-0.70234 4.302e-4,-0.71561 -0.1648479,-0.78342 -0.2576994,-0.10571 -0.7388783,-0.14855 -1.1585855,-0.10335 -0.2085171,0.0224 -0.4022511,0.0168 -0.4304646,-0.0124 -0.02788,-0.0296 -0.047422,-0.38391 -0.042375,-0.78807 0.00505,-0.40416 8.728e-4,-0.76305 -0.00982,-0.79737 -0.010723,-0.0343 -0.4218014,0.0772 -0.9131226,0.24753 l -0.8929687,0.30954 -0.00775,-0.81803 -0.00723,-0.81752 -0.8702311,0.30954 c -0.4786307,0.17048 -0.88651957,0.30281 -0.90640457,0.29352 -0.019831,-0.01 -0.037567,-0.37402 -0.039274,-0.81029 -0.00171,-0.43626 -0.00706,-0.80539 -0.012402,-0.8201 -0.00251,-0.008 -0.06131,-0.009 -0.153479,-0.006 z m 5.72471517,2.13424 c -0.044997,0.0163 -0.076812,0.32098 -0.085783,0.82734 l -0.013953,0.8015 0.2578653,0.17157 c 0.5010483,0.33329 0.9057825,0.65845 1.1280965,0.90692 0.2607966,0.29138 0.3563456,0.35778 0.3632854,0.25218 0.00277,-0.0415 0.00915,-0.4069 0.014469,-0.81184 0.00715,-0.5442 -0.017221,-0.77703 -0.094051,-0.89348 -0.2643666,-0.40071 -1.4068157,-1.31342 -1.5699292,-1.25419 z m -5.76760657,1.32343 c -0.077178,0.004 -0.1787104,0.0121 -0.28267006,0.0227 a 16.933332,16.933325 0 0 0 0.92914223,3.26802 c 0.1494988,-0.0478 0.3132152,-0.10173 0.5048787,-0.17363 l 0.8542114,-0.3204 0.00258,0.77928 c 0.00164,0.42849 0.017178,0.7856 0.034623,0.79375 0.017463,0.008 0.4266618,-0.13 0.9089885,-0.30696 l 0.876949,-0.32142 0.00517,-0.7705 c 0.00296,-0.42378 -0.020539,-0.79528 -0.052193,-0.82527 -0.032331,-0.0301 -0.4225715,0.0817 -0.8810831,0.2527 -0.4529907,0.16888 -0.8360694,0.30079 -0.8516275,0.29352 -0.015472,-0.007 -0.030273,-0.37118 -0.032556,-0.80874 -0.00229,-0.43757 -0.00818,-0.80749 -0.012919,-0.82217 -0.00472,-0.0148 -0.3900284,0.12044 -0.8562785,0.30024 -0.46626,0.17981 -0.87455287,0.31406 -0.90743807,0.29869 -0.032869,-0.0154 -0.054173,-0.38922 -0.047026,-0.83096 0.00714,-0.44173 -0.0089,-0.81328 -0.035657,-0.82579 -0.013371,-0.006 -0.072303,-0.007 -0.1570964,-0.003 z m 18.15858097,1.32292 c -0.37763,-0.008 -0.553585,0.0883 -1.07487,0.50695 -0.586166,0.47069 -0.679495,0.578 -0.503845,0.58136 0.05943,0.001 0.333566,0.0257 0.609265,0.0543 0.315382,0.0326 0.668904,0.11509 0.952914,0.22221 l 0.451135,0.17053 0.590661,-0.5023 c 0.638103,-0.54308 0.730236,-0.65541 0.590662,-0.71933 -0.181835,-0.0838 -1.109894,-0.27957 -1.440222,-0.30438 -0.06378,-0.005 -0.121753,-0.008 -0.1757,-0.009 z m -12.4607376,0.85421 c -0.00775,10e-4 -0.012967,0.004 -0.015503,0.009 -0.012129,0.0249 -0.024852,0.39629 -0.027905,0.82528 l -0.00568,0.77979 0.4842082,0.29611 c 0.2951816,0.18061 0.6166371,0.42937 0.8232055,0.63717 0.4223628,0.42477 0.4123428,0.41878 0.434599,0.26045 0.01017,-0.0723 0.018107,-0.41755 0.01757,-0.7674 -0.00113,-0.72772 -0.040598,-0.81654 -0.5911784,-1.32756 -0.3298769,-0.30614 -1.0030242,-0.72994 -1.1193115,-0.71314 z m 12.9387446,0.74931 c -0.04749,-0.006 -0.0881,0.0107 -0.146761,0.047 -0.184506,0.11426 -1.083888,0.90076 -1.119828,0.97926 -0.01595,0.0347 0.113841,0.1913 0.288354,0.3483 0.174636,0.15682 0.424446,0.44652 0.555005,0.64337 0.1795,0.27059 0.258317,0.34952 0.322461,0.32453 0.04674,-0.0183 0.32894,-0.24077 0.627352,-0.49506 0.298419,-0.25432 0.574156,-0.47541 0.612882,-0.49092 0.04458,-0.0179 0.18394,0.29483 0.379822,0.85266 0.170048,0.48427 0.337182,0.86959 0.371554,0.85679 0.120003,-0.0448 1.117318,-0.9311 1.166853,-1.03714 0.06934,-0.14843 -0.498135,-1.75983 -0.614949,-1.74615 -0.04692,0.005 -0.336225,0.21823 -0.642855,0.47232 -0.306615,0.25408 -0.569091,0.46711 -0.583427,0.47336 -0.01424,0.006 -0.206923,-0.21861 -0.427881,-0.49971 -0.22095,-0.28107 -0.490886,-0.56844 -0.60048,-0.63821 -0.08593,-0.0549 -0.140609,-0.0843 -0.188102,-0.0904 z m -3.595129,0.6134 -0.59738,0.51108 c -0.328682,0.28109 -0.606717,0.53071 -0.617533,0.555 -0.01083,0.0243 0.02814,0.0472 0.0863,0.0506 0.0582,0.003 0.335178,0.0321 0.615467,0.0636 0.280271,0.0316 0.722993,0.12175 0.983919,0.2005 l 0.47439,0.14315 0.609265,-0.51987 c 0.33516,-0.28595 0.606517,-0.54789 0.602547,-0.58187 -0.01727,-0.14783 -1.157732,-0.41065 -1.816427,-0.41858 z m -10.2551878,0.26097 c -0.6671696,0.006 -1.2037435,0.14365 -2.3306071,0.59737 -0.4422771,0.17808 -0.7877432,0.3117 -1.107426,0.43202 a 16.933332,16.933325 0 0 0 4.6446776,5.58932 c 0.7643524,-0.64783 1.395581,-1.18958 1.412317,-1.21491 0.018593,-0.0281 0.041622,-0.87747 0.051159,-1.88722 l 0.01757,-1.83555 -0.3405478,-0.40463 c -0.7162663,-0.8522 -1.5101845,-1.28398 -2.3471427,-1.2764 z m 11.1347208,1.31981 -0.538469,0.46096 c -0.296351,0.25352 -0.575887,0.52218 -0.621151,0.59686 -0.07573,0.12493 -0.06636,0.14651 0.116272,0.2744 0.236871,0.16594 0.512192,0.4741 0.759644,0.85008 0.212108,0.32216 0.134463,0.3476 0.867647,-0.28526 0.295937,-0.25548 0.570252,-0.4775 0.609265,-0.49351 0.04551,-0.0186 0.177232,0.28264 0.366903,0.84026 0.162696,0.47828 0.312263,0.87742 0.33228,0.88677 0.01993,0.01 0.306252,-0.20729 0.636136,-0.48111 0.329892,-0.27383 0.619484,-0.48838 0.643889,-0.47697 0.02437,0.0114 0.171787,0.38826 0.327628,0.83767 0.155851,0.4494 0.308636,0.82867 0.338998,0.84285 0.03038,0.0141 0.335928,-0.20718 0.679028,-0.49196 0.343134,-0.28474 0.639006,-0.51059 0.657841,-0.50178 0.01914,0.009 0.145966,0.1768 0.281636,0.37362 0.13593,0.19665 0.382862,0.48385 0.548804,0.6382 0.166099,0.15423 0.292288,0.30148 0.280087,0.32763 -0.01222,0.0262 -0.26063,0.25813 -0.551905,0.51522 -0.291251,0.25712 -0.544689,0.49875 -0.562756,0.53743 -0.06954,0.14886 0.185646,0.25844 0.951363,0.40876 0.555819,0.10907 1.00331,0.0985 1.229382,-0.0295 0.224158,-0.12686 1.073073,-0.81434 1.114144,-0.90226 0.04228,-0.0905 0.05736,-0.0867 -0.650606,-0.1633 -0.388375,-0.042 -0.769122,-0.12339 -1.015442,-0.21653 l -0.393774,-0.14882 0.103352,-0.10077 c 0.05712,-0.0554 0.343457,-0.3066 0.636137,-0.55811 0.292676,-0.25151 0.536731,-0.46645 0.542086,-0.47801 0.0054,-0.0115 -0.02267,-0.0356 -0.0615,-0.0543 -0.180367,-0.0842 -0.650731,-0.5726 -0.878499,-0.91209 -0.138292,-0.20605 -0.278015,-0.36362 -0.310576,-0.34984 -0.03255,0.0138 -0.302534,0.23357 -0.599963,0.48834 -0.297422,0.25477 -0.571292,0.4746 -0.608748,0.48886 -0.04119,0.0157 -0.197321,-0.32211 -0.394292,-0.85422 l -0.325561,-0.88004 -0.642855,0.51573 -0.642338,0.51573 -0.226343,-0.64596 c -0.124348,-0.35524 -0.279477,-0.75444 -0.345198,-0.88728 l -0.119889,-0.24133 -0.651124,0.53743 -0.651123,0.53795 -0.294039,-0.41599 c -0.294491,-0.41657 -0.460174,-0.58767 -0.769978,-0.79478 z m -3.160531,0.67645 c -0.133792,-0.005 -0.241543,0.002 -0.304374,0.0227 -0.153205,0.0495 -0.475792,0.29892 -1.091406,0.84285 -0.231686,0.20465 -0.28003,0.17776 0.451135,0.25114 0.245225,0.0248 0.686042,0.12398 0.979785,0.22066 l 0.534334,0.1757 0.536402,-0.447 c 0.815887,-0.67957 0.789615,-0.60979 0.298173,-0.7984 -0.366237,-0.14064 -1.002672,-0.25416 -1.404049,-0.26768 z m -1.882056,1.18752 -1.416451,1.20044 c -0.7788638,0.66019 -1.4290519,1.22834 -1.4448724,1.26298 -0.015735,0.0345 -0.035579,0.90794 -0.043925,1.94045 -0.00154,0.19045 -0.00226,0.1749 -0.00362,0.33899 A 16.933332,16.933325 0 0 0 16.933333,297 a 16.933332,16.933325 0 0 0 0.972033,-0.0486 c -0.05822,-0.0278 -0.102899,-0.0455 -0.167431,-0.0775 -0.682539,-0.33883 -0.698608,-0.35057 -0.989087,-0.71159 -0.398057,-0.49453 -0.664812,-1.09653 -1.089856,-2.45825 -0.445784,-1.42816 -0.754062,-2.11866 -1.181323,-2.6479 -0.27891,-0.34553 -0.388098,-0.43877 -0.734322,-0.62683 -0.492515,-0.26761 -1.14419,-0.41765 -1.840715,-0.42427 z m 4.924764,0.70125 c -0.04486,-0.0209 -0.308183,0.1681 -0.675411,0.48473 l -0.60203,0.51882 0.322978,0.86042 c 0.177641,0.473 0.337518,0.87485 0.355534,0.89297 0.01812,0.0181 0.303097,-0.19236 0.633553,-0.46767 l 0.600996,-0.50075 0.296623,0.86145 c 0.163151,0.47369 0.330144,0.86577 0.371037,0.87178 0.04088,0.006 0.349082,-0.20978 0.684713,-0.47956 0.387398,-0.31138 0.632585,-0.47262 0.671277,-0.44183 0.03341,0.0268 0.151644,0.18564 0.263032,0.35295 0.111232,0.16744 0.339726,0.4299 0.507463,0.58342 0.168036,0.15327 0.314668,0.30014 0.325562,0.3266 0.0108,0.0265 -0.254517,0.28086 -0.589629,0.56534 -0.335109,0.28447 -0.606228,0.54268 -0.602547,0.57413 0.0081,0.0695 0.02865,0.0786 0.523483,0.23564 v 5.2e-4 c 0.222601,0.0707 0.665256,0.14251 1.020092,0.16536 l 0.627352,0.0403 0.639754,-0.5457 c 0.351907,-0.30017 0.635391,-0.55543 0.629936,-0.5669 -0.0057,-0.0113 -0.294512,-0.0421 -0.641821,-0.0682 -0.485254,-0.0362 -0.732476,-0.0867 -1.067119,-0.21807 l -0.435115,-0.17105 0.104386,-0.0997 c 0.05746,-0.0551 0.312346,-0.27434 0.566374,-0.48731 0.6867,-0.57566 0.661413,-0.51456 0.326595,-0.79736 -0.158553,-0.13401 -0.418834,-0.42745 -0.578259,-0.65268 -0.159422,-0.22523 -0.305363,-0.41729 -0.324528,-0.42633 -0.03262,-0.0152 -0.608635,0.45083 -1.107943,0.89659 l -0.218074,0.19534 -0.323495,-0.91571 c -0.17774,-0.50347 -0.334634,-0.91105 -0.348816,-0.90589 -0.0139,0.004 -0.299896,0.23679 -0.635103,0.5147 -0.335188,0.27797 -0.621955,0.49959 -0.63717,0.49248 -0.01525,-0.007 -0.158666,-0.38214 -0.318844,-0.83354 -0.160169,-0.45143 -0.324397,-0.83637 -0.364836,-0.85525 z m -8.3860507,2.24792 c -0.010748,-0.004 -0.444877,0.35451 -0.9797852,0.80357 a 16.933332,16.933325 0 0 0 0.9952882,0.68213 c 3.376e-4,-0.0482 1.735e-4,-0.0795 5.167e-4,-0.12661 0.00541,-0.74156 -0.00176,-1.35299 -0.01602,-1.35909 z m 9.6857137,1.40922 c -0.03697,-0.0173 -1.141591,0.89036 -1.248503,1.02578 -0.02923,0.037 0.08651,0.24464 0.294039,0.52658 0.496748,0.67485 0.717167,0.85211 0.942061,0.75758 0.124725,-0.0525 0.94476,-0.71879 1.113627,-0.90486 0.07654,-0.0843 0.0661,-0.11099 -0.09043,-0.22117 -0.243265,-0.17112 -0.552885,-0.5163 -0.78083,-0.87023 -0.104535,-0.16238 -0.208111,-0.30351 -0.22996,-0.31368 z"
       id="path3719"
       inkscape:connector-curvature="0" />
    <text
       xml:space="preserve"
       style="font-style:normal;font-weight:normal;font-size:10.58333302px;line-height:1.25;font-family:sans-serif;letter-spacing:0px;word-spacing:0px;fill:#000000;fill-opacity:1;stroke:none;stroke-width:0.26458332"
       x="4.2333331"
       y="287.47501"
       id="text4535"><tspan
         sodipodi:role="line"
         id="tspan4533"
         x="4.2333331"
         y="297.13049"
         style="stroke-width:0.26458332" /></text>
  </g>
</svg>
