<?xml version="1.0" encoding="UTF-8" standalone="no"?>
<!-- Created with Inkscape (http://www.inkscape.org/) -->

<svg
   xmlns:dc="http://purl.org/dc/elements/1.1/"
   xmlns:cc="http://creativecommons.org/ns#"
   xmlns:rdf="http://www.w3.org/1999/02/22-rdf-syntax-ns#"
   xmlns:svg="http://www.w3.org/2000/svg"
   xmlns="http://www.w3.org/2000/svg"
   xmlns:sodipodi="http://sodipodi.sourceforge.net/DTD/sodipodi-0.dtd"
   xmlns:inkscape="http://www.inkscape.org/namespaces/inkscape"
   id="svg8"
   version="1.1"
   viewBox="0 0 33.866667 33.866667"
   height="128"
   width="128"
   inkscape:version="0.92.4 (5da689c313, 2019-01-14)"
   sodipodi:docname="EvoIconMutation.svg"
   inkscape:export-filename="D:\Dysk Google\Studia III stopnia\Projekty i prace własne\BIM\IN PROG_Optio\_EVO Icons\EvoIconSmall.png"
   inkscape:export-xdpi="96"
   inkscape:export-ydpi="96"
   style="shape-rendering:crispEdges">
  <defs
     id="defs2" />
  <sodipodi:namedview
     id="base"
     pagecolor="#ffffff"
     bordercolor="#666666"
     borderopacity="1.0"
     inkscape:pageopacity="0.0"
     inkscape:pageshadow="2"
     inkscape:zoom="6.3877042"
     inkscape:cx="66.739637"
     inkscape:cy="62.87488"
     inkscape:document-units="mm"
     inkscape:current-layer="layer1"
     showgrid="true"
     units="px"
     inkscape:snap-grids="true"
     inkscape:snap-page="true"
     inkscape:window-width="1920"
     inkscape:window-height="1017"
     inkscape:window-x="-8"
     inkscape:window-y="-8"
     inkscape:window-maximized="1"
     inkscape:pagecheckerboard="true">
    <inkscape:grid
       type="xygrid"
       id="grid3713" />
  </sodipodi:namedview>
  <metadata
     id="metadata5">
    <rdf:RDF>
      <cc:Work
         rdf:about="">
        <dc:format>image/svg+xml</dc:format>
        <dc:type
           rdf:resource="http://purl.org/dc/dcmitype/StillImage" />
        <dc:title />
      </cc:Work>
    </rdf:RDF>
  </metadata>
  <g
     inkscape:label="Layer 1"
     inkscape:groupmode="layer"
     id="layer1"
     transform="translate(0,-263.13333)">
    <path
       style="fill:#ffffff;fill-opacity:1;stroke-width:1.1678158"
       d="m 16.933333,263.13333 a 16.933331,16.933324 0 0 0 -8.3199052,2.20968 c 0.029439,0.162 0.068411,0.53 0.1240234,1.19476 0.064983,0.70016 0.097152,1.1245 0.097152,1.27538 0,0.1268 -0.059611,0.19017 -0.1777669,0.19017 -0.03544,0 -0.097419,-0.002 -0.1860352,-0.008 -1.1733059,-0.0992 -2.2270796,-0.1505 -3.2225421,-0.1757 a 16.933331,16.933324 0 0 0 -1.4903485,1.63297 c 0.013679,0.024 0.019381,0.0631 0.03514,0.0811 0.1004314,0.1148 0.2931399,0.17312 0.5767089,0.17312 0.059076,0 0.1738749,-0.004 0.3451984,-0.0119 0.1713241,-0.012 0.3115001,-0.0196 0.4237469,-0.0196 0.7443687,0 1.4992686,-0.02 2.2613606,-0.062 l 0.4857586,-0.046 c 0.2008593,-0.024 0.3614039,-0.0357 0.4795573,-0.0357 0.1343864,0 0.20329,0.0649 0.2103229,0.18965 -0.011843,0.0213 -0.063907,0.48886 -0.1565797,1.40405 -0.047259,0.48288 -0.072347,0.96612 -0.072347,1.449 0,0.1208 -0.084991,0.18191 -0.2563151,0.18191 l -0.7978841,-0.091 c -0.33674,-0.036 -1.1034406,-0.0532 -2.3027018,-0.0532 h -0.940511 c -0.2422162,0 -0.3844599,0.059 -0.425814,0.17983 -0.00592,0.032 -0.00827,0.2184 -0.00827,0.56224 0,0.45872 0.029799,0.75397 0.088884,0.88677 0.1004321,0.2292 0.4790611,0.36481 1.1348143,0.40721 h 1.2939781 c 0.3131074,0 0.7767298,-0.0283 1.3911294,-0.0811 0.6203077,-0.0604 1.0839304,-0.0904 1.3911294,-0.0904 0.1299681,0 0.1943034,0.109 0.1943036,0.3266 0,0.2596 -0.050463,0.73628 -0.1508953,1.4304 -0.10634,0.75452 -0.2004787,1.20288 -0.283187,1.34772 -0.070891,0.1148 -0.167391,0.17364 -0.2914549,0.17364 -0.053168,0 -0.1425869,-0.0119 -0.2666503,-0.0279 -0.4312613,-0.0604 -1.6890322,-0.0889 -3.7744468,-0.0889 -0.4548912,0 -1.1318814,-0.004 -2.0298501,-0.0119 -0.8979687,-0.008 -1.57259766,-0.008 -2.02158202,-0.008 -0.039548,0 -0.0573583,-0.0199 -0.0888835,-0.0279 A 16.933331,16.933324 0 0 0 -1.3433333e-6,280.06666 16.933331,16.933324 0 0 0 8.9426052,294.97996 c -0.3387175,-0.6312 -0.2639859,-1.49014 0.5126302,-1.92908 0.1716651,-0.097 0.1756397,-0.10336 0.1565796,-0.21859 -0.01075,-0.0651 -0.019436,-0.18602 -0.019637,-0.26872 -3.704e-4,-0.15037 -6.615e-4,-0.15008 -0.1736328,-0.19378 -1.544806,-0.39131 -2.1614508,-2.21609 -1.183907,-3.50315 0.2458236,-0.32365 -0.017309,-0.91312 -0.4077271,-0.91312 -1.5501718,0 -1.9267548,-2.19647 -0.4754232,-2.77296 1.3234869,-0.52572 2.5841558,1.22787 1.6205729,2.25413 -0.085469,0.091 -0.085612,0.091 0.060978,0.39016 0.1763665,0.35999 0.1504384,0.34188 0.3844726,0.27078 0.2807629,-0.0853 0.8768106,-0.0765 1.1627196,0.017 0.393314,0.12861 1.977168,-1.54514 1.822111,-1.92546 -0.255991,-0.6279 -0.30267,-1.34653 -0.133842,-2.05724 0.0045,-0.0191 -0.303153,-0.17516 -0.683679,-0.34675 -0.939397,-0.4236 -0.865278,-0.40185 -1.019576,-0.29714 -1.3808952,0.9371 -2.9545599,-1.13573 -1.7270263,-2.27479 0.8344545,-0.77429 2.4008873,-0.222 2.4008873,0.84646 0,0.0971 -0.06536,0.0632 1.219047,0.63717 0.477714,0.21343 0.477544,0.21309 0.625801,0.0574 0.08154,-0.0856 0.203868,-0.19727 0.271818,-0.24857 0.152258,-0.11481 0.152878,-0.0941 -0.01654,-0.50281 -0.14002,-0.33783 -0.140165,-0.33774 -0.312126,-0.37414 -1.670879,-0.35359 -1.401754,-2.83238 0.307475,-2.83238 1.14316,0 1.871921,1.4488 1.145149,2.27635 -0.101288,0.11534 0.236391,0.79376 0.379822,0.76326 0.882378,-0.18797 2.013399,0.19071 2.749703,0.91984 0.33586,0.33252 0.58136,0.32287 0.58136,-0.0227 0,-1.17191 1.583316,-1.79011 2.426209,-0.94723 1.135277,1.13528 -0.180412,3.04849 -1.604554,2.33319 -0.160799,-0.0808 -0.586305,0.0836 -0.540535,0.20877 0.26271,0.71887 -0.145187,2.23409 -0.753959,2.79983 -0.111293,0.10343 0.414156,0.93536 0.571541,0.90486 0.97788,-0.18957 1.819577,1.0974 1.357023,2.07481 -0.748375,1.58136 -3.179405,0.57403 -2.642733,-1.09503 0.09624,-0.29932 -0.390643,-1.1008 -0.612365,-1.0082 -0.641423,0.26801 -1.633104,0.20979 -2.395203,-0.14056 -0.362936,-0.16686 -2.00882,1.41097 -1.899626,1.82107 0.154775,0.58127 0.03049,1.29706 -0.307991,1.77664 -0.07611,0.10784 -0.111944,0.0612 0.362252,0.46922 0.170524,0.1467 0.170407,0.14685 0.298173,0.0816 1.153021,-0.58822 2.453127,0.72669 1.894975,1.91668 -0.760696,1.62182 -3.168408,0.63951 -2.658753,-1.08469 0.0445,-0.15055 -0.656074,-0.6836 -0.802018,-0.6103 -0.06694,0.0337 -0.177513,0.0793 -0.245463,0.10129 -0.207912,0.0673 -0.176096,0.55893 0.04031,0.62373 1.267539,0.37977 1.199997,2.3215 -0.09457,2.72025 -0.03638,0.0112 -0.07228,0.0196 -0.108004,0.0279 A 16.933331,16.933324 0 0 0 16.933333,297 16.933331,16.933324 0 0 0 33.866667,280.06666 16.933331,16.933324 0 0 0 16.933333,263.13333 Z m 7.07347,5.42189 c 1.335137,0 2.416136,0.42859 3.243214,1.28571 0.827074,0.85108 1.240234,1.95967 1.240234,3.32383 0,1.3762 -0.41316,2.49151 -1.240234,3.34863 -0.821171,0.85708 -1.90217,1.28571 -3.243214,1.28571 -1.299692,0 -2.369181,-0.42206 -3.208072,-1.2671 -0.838893,-0.84504 -1.258838,-1.93183 -1.258838,-3.25975 0,-1.40036 0.401649,-2.53529 1.205094,-3.40445 0.803447,-0.87524 1.891232,-1.31258 3.261816,-1.31258 z m -13.781071,0.44442 c 0.301292,0 0.753406,0.008 1.35599,0.0279 0.608492,0.02 1.062965,0.0279 1.364258,0.0279 0.135876,0 0.204639,0.0944 0.204639,0.28164 0,0.1692 -0.01154,0.4249 -0.03514,0.76894 -0.02364,0.338 -0.03514,0.59597 -0.03514,0.77101 0,0.62776 0.01624,1.13949 0.05168,1.53789 0.01772,0.2052 0.189772,0.59222 0.514697,1.15962 0.33674,0.59756 0.582272,0.89711 0.735873,0.89711 0.147692,0 0.384076,-0.29318 0.709,-0.8785 0.313108,-0.54928 0.480732,-0.92326 0.504362,-1.12242 0.04726,-0.42856 0.07028,-0.94892 0.07028,-1.55856 0,-0.1752 -0.01624,-0.43747 -0.05168,-0.78755 -0.03544,-0.356 -0.05374,-0.6185 -0.05374,-0.78754 0,-0.1872 0.06198,-0.28164 0.186036,-0.28164 0.141784,0 0.350724,0.004 0.628385,0.0124 0.283572,0.008 0.496937,0.008 0.638721,0.008 0.141783,0 0.35515,-0.0122 0.63872,-0.0362 0.289477,-0.024 0.505205,-0.0357 0.646989,-0.0357 0.147692,0 0.244191,0.0789 0.291455,0.23565 0.100436,0.344 0.150895,1.04385 0.150896,2.10013 0,1.03216 -0.03215,1.64222 -0.09715,1.82934 -0.135876,0.42856 -0.544314,1.15463 -1.223698,2.18075 -0.590769,0.88128 -1.095708,1.57003 -1.515153,2.06499 -0.1536,0.1872 -0.617221,0.28112 -1.39113,0.28112 -0.673476,0 -1.109651,-0.0239 -1.310514,-0.0723 -0.12406,-0.032 -0.227354,-0.0911 -0.310058,-0.1819 -0.354469,-0.3924 -0.859399,-1.0751 -1.515154,-2.0469 -0.703013,-1.0442 -1.122961,-1.75929 -1.258838,-2.14561 -0.1476919,-0.41648 -0.2211743,-1.03979 -0.2211749,-1.87275 0,-0.2356 0.00236,-0.5896 0.00827,-1.0604 0.00592,-0.47684 0.00827,-0.83498 0.00827,-1.07642 0,-0.1568 0.1032869,-0.23565 0.3100589,-0.23565 z"
       id="path4999"
       inkscape:connector-curvature="0" />
    <path
       style="fill:#ffffff;fill-opacity:1;stroke-width:4.41379213"
       d="m 90.796875,31.070312 c -1.763936,0 -3.212817,0.70304 -4.351563,2.117188 -1.071753,1.322835 -1.609374,2.901504 -1.609374,4.726562 0,1.847887 0.537614,3.434525 1.609374,4.757813 1.138742,1.413543 2.587627,2.117187 4.351563,2.117187 1.741606,0 3.181567,-0.703039 4.320313,-2.117187 1.049423,-1.322835 1.578124,-2.909926 1.578124,-4.757813 0,-1.802229 -0.546534,-3.389018 -1.640624,-4.757812 -1.094083,-1.390866 -2.516207,-2.085938 -4.257813,-2.085938 z"
       transform="matrix(0.26458333,0,0,0.26458333,0,263.13333)"
       id="path4993" />
    <text
       xml:space="preserve"
       style="font-style:normal;font-weight:normal;font-size:10.58333302px;line-height:1.25;font-family:sans-serif;letter-spacing:0px;word-spacing:0px;fill:#000000;fill-opacity:1;stroke:none;stroke-width:0.26458332"
       x="4.2333331"
       y="287.47501"
       id="text4535"><tspan
         sodipodi:role="line"
         id="tspan4533"
         x="4.2333331"
         y="297.13049"
         style="stroke-width:0.26458332" /></text>
    <path
       style="opacity:0.90899999;fill:#ffffff;fill-opacity:0;fill-rule:evenodd;stroke-width:0.1;stroke-linecap:round;stroke-miterlimit:4;stroke-dasharray:none"
       id="path4907"
       d="m 13.094595,278.77362 c 0.0076,-3.7e-4 0.01511,-10e-4 0.02264,-0.002 0.0084,-10e-4 0.01686,-0.002 0.02523,-0.004 0.01263,-0.002 0.02536,-0.004 0.03801,-0.005 0.01769,-0.004 0.03563,-0.006 0.05356,-0.009 0.01845,-0.002 0.03686,-0.004 0.05526,-0.007 0.01609,-0.002 0.03218,-0.004 0.04835,-0.004 0.0199,-6.4e-4 0.03982,-10e-4 0.0597,-0.002 0.01946,-10e-4 0.03894,-0.002 0.05843,-0.002 0.01604,-3.1e-4 0.03208,-2.4e-4 0.04812,-2.3e-4 0.01673,3e-5 0.03346,3e-5 0.05019,0 0.01513,-2.9e-4 0.03022,3e-5 0.04529,0.001 0.01205,10e-4 0.02421,0.002 0.03627,0.003 0.0099,6.6e-4 0.01958,0.003 0.02942,0.004 0.01642,0.002 0.03291,0.003 0.04943,0.004 0.0187,6.1e-4 0.03716,0.004 0.05568,0.006 0.01458,0.002 0.02926,0.002 0.04393,0.003 0.0096,-6.3e-4 0.01889,0.002 0.02822,0.003 0.0078,0.002 0.01588,0.003 0.02363,0.005 0.0032,8.7e-4 0.0016,3.4e-4 0.0047,0.002 0,0 -0.02537,0.0171 -0.02537,0.0171 v 0 c -0.0028,-9.6e-4 -0.0014,-5.1e-4 -0.0044,-0.001 -0.0077,-0.002 -0.01551,-0.003 -0.02326,-0.005 -0.0092,-0.002 -0.01841,-0.003 -0.02785,-0.003 -0.01454,-5.9e-4 -0.02906,-0.002 -0.04352,-0.003 -0.01848,-0.002 -0.03692,-0.005 -0.05559,-0.006 -0.01669,-7.4e-4 -0.03337,-0.002 -0.04997,-0.004 -0.0099,-0.001 -0.01966,-0.003 -0.02961,-0.004 -0.01191,-10e-4 -0.02386,-0.002 -0.03577,-0.003 -0.01502,-0.001 -0.03006,-0.001 -0.04512,-0.001 -0.01671,-5e-5 -0.03342,-6e-5 -0.05013,-4e-5 -0.01603,1e-5 -0.03207,4e-5 -0.0481,2.9e-4 -0.01935,3.4e-4 -0.03868,0.001 -0.05799,0.002 -0.02002,0.001 -0.04005,0.002 -0.06007,0.003 -0.01608,0.001 -0.03212,0.003 -0.04812,0.005 -0.01835,0.002 -0.03673,0.005 -0.05513,0.007 -0.01803,0.002 -0.03603,0.005 -0.05384,0.009 -0.01277,0.002 -0.02559,0.004 -0.03832,0.006 -0.0085,10e-4 -0.01701,0.003 -0.02553,0.004 -0.0076,9.8e-4 -0.01528,0.002 -0.02291,0.003 0,0 0.02456,-0.0183 0.02456,-0.0183 z"
       inkscape:connector-curvature="0" />
    <path
       style="opacity:0.90899999;fill:#ffffff;fill-opacity:0;fill-rule:evenodd;stroke-width:0.1;stroke-linecap:round;stroke-miterlimit:4;stroke-dasharray:none"
       id="path4909"
       d="m 13.958631,278.81563 c -0.0013,-4.2e-4 -0.0027,-8.5e-4 -0.004,-10e-4 -0.0038,-0.001 -0.01173,-0.004 -0.01501,-0.005 -0.01709,-0.005 -0.03482,-0.009 -0.05229,-0.0122 -0.02997,-0.007 -0.06043,-0.0103 -0.09089,-0.0138 -0.02931,-0.003 -0.05852,-0.007 -0.08791,-0.009 -0.01821,-0.002 -0.03645,-0.003 -0.05468,-0.004 -0.130753,-0.0101 -0.261911,-0.0127 -0.392991,-0.0145 -0.02168,-1.8e-4 -0.04336,-4e-4 -0.06503,-5.3e-4 -0.02105,-1.3e-4 -0.0421,-4.3e-4 -0.06316,-2.7e-4 -0.0338,2.5e-4 -0.08484,0.002 -0.118916,0.003 -0.04406,0.002 -0.05914,0.003 -0.102231,0.007 -0.07001,0.007 -0.139999,0.0143 -0.209368,0.0261 -0.02547,0.005 -0.01348,0.002 -0.03599,0.007 0,0 0.0224,-0.0169 0.0224,-0.0169 v 0 c 0.02168,-0.004 0.01011,-0.002 0.03471,-0.006 0.06832,-0.0103 0.1371,-0.0173 0.205925,-0.0232 0.04299,-0.003 0.05691,-0.004 0.100909,-0.006 0.03241,-10e-4 0.08614,-0.002 0.118146,-0.003 0.02096,-8e-5 0.04191,2.9e-4 0.06287,4.7e-4 0.0216,2e-4 0.0432,4.8e-4 0.0648,7.2e-4 0.131649,0.002 0.263327,0.005 0.394747,0.0134 0.0186,10e-4 0.0372,0.002 0.05579,0.004 0.02363,0.002 0.06552,0.006 0.09003,0.008 0.01153,10e-4 0.02306,0.002 0.03456,0.004 0.02336,0.003 0.0354,0.005 0.05819,0.009 0.01824,0.003 0.03665,0.006 0.05457,0.0111 0.0053,0.001 0.01049,0.003 0.01576,0.005 0.0015,4.2e-4 0.003,8.2e-4 0.0044,0.001 0,0 -0.02539,0.0171 -0.02539,0.0171 z"
       inkscape:connector-curvature="0" />
    <path
       style="opacity:0.90899999;fill:#808010;fill-opacity:0;fill-rule:evenodd;stroke-width:0.06681324;stroke-linecap:round;stroke-miterlimit:4;stroke-dasharray:none"
       d="m 31.869507,132.63085 c -1.520305,-0.38158 -3.051892,-1.62471 -3.795523,-3.08068 -0.529665,-1.03705 -0.732517,-3.10001 -0.418907,-4.2602 0.285451,-1.05601 1.205908,-2.33835 2.181625,-3.03933 1.033126,-0.74223 1.375637,-1.34804 1.375637,-2.43313 0,-1.12467 -0.22406,-1.44761 -1.206872,-1.73947 -4.154037,-1.23362 -6.83751,-4.72036 -6.822154,-8.86429 0.0073,-1.9592 0.452736,-3.40155 1.608536,-5.20807 0.782645,-1.22329 0.807382,-1.30337 0.715522,-2.31641 -0.112362,-1.23916 -0.819514,-2.594886 -1.416717,-2.716084 -0.215228,-0.04368 -0.900511,-0.117564 -1.522849,-0.164187 -2.345509,-0.175721 -4.06885,-1.629936 -4.817216,-4.064932 -1.150874,-3.744661 1.16354,-7.232237 4.973621,-7.494717 1.583362,-0.109078 2.940612,0.411823 4.216063,1.618092 1.243429,1.175982 1.825254,2.332441 1.934242,3.844573 0.103163,1.431315 -0.208426,2.45816 -1.124655,3.706313 l -0.648017,0.882777 0.465577,1.094963 c 0.256068,0.602231 0.617724,1.344967 0.803681,1.650522 l 0.338102,0.55556 1.118986,-0.23999 c 1.387187,-0.29751 3.431653,-0.31803 4.741042,-0.0476 0.545429,0.11266 1.226389,0.14605 1.513244,0.0742 0.695625,-0.17421 7.424909,-6.881377 7.598133,-7.573161 0.08155,-0.325695 -0.0011,-0.796471 -0.248228,-1.414213 -0.727641,-1.81872 -0.971307,-3.145036 -0.965797,-5.257025 0.0029,-1.118112 0.0931,-2.390904 0.2004,-2.828427 0.154389,-0.629521 0.145015,-0.87197 -0.04494,-1.162032 -0.204911,-0.312911 -5.455285,-2.765161 -6.766542,-3.160397 -0.274212,-0.08265 -0.796923,0.07961 -1.70969,0.530723 -1.221871,0.603882 -1.406218,0.644966 -2.610236,0.581738 -2.187115,-0.114851 -4.114413,-1.406002 -5.103772,-3.419158 -0.60407,-1.229166 -0.613968,-3.497832 -0.02054,-4.708646 0.637281,-1.300299 1.529033,-2.207542 2.770667,-2.818796 1.069623,-0.526574 1.228342,-0.555207 2.688425,-0.485001 1.290911,0.06207 1.709258,0.160461 2.489236,0.585435 1.487862,0.810665 2.631653,2.285399 2.949644,3.803086 0.180661,0.862247 0.513542,1.179253 2.034831,1.93779 2.025796,1.010091 5.553786,2.48223 5.935373,2.476678 0.187109,-0.0027 0.911973,-0.545785 1.610811,-1.206804 l 1.270609,-1.201853 -0.180854,-0.693546 C 47.880535,73.9937 47.54741,73.164533 47.239725,72.532556 46.722835,71.470874 46.619815,71.36617 45.884804,71.155487 43.974016,70.607779 42.549208,69.495516 41.78059,67.951572 41.440821,67.26907 41.377242,66.861315 41.378541,65.3731 c 0.0012,-1.499495 0.06278,-1.882896 0.405082,-2.526403 1.860458,-3.497574 6.484173,-4.203909 9.271703,-1.416378 1.105063,1.105061 1.613167,2.250866 1.695782,3.82408 0.06305,1.200542 0.02121,1.390255 -0.570708,2.587917 -0.351308,0.710823 -0.638742,1.462694 -0.638742,1.670824 0,0.603502 0.865638,2.542273 1.317409,2.9506 0.368742,0.333282 0.693258,0.383515 3.039048,0.470426 3.908453,0.144808 5.792037,0.785526 8.112524,2.759548 2.62401,2.232226 2.74889,2.318919 3.340401,2.318919 0.794143,0 1.061207,-0.376028 1.492874,-2.101998 0.608844,-2.434381 1.424829,-3.501887 3.380617,-4.42266 0.79563,-0.374578 1.229207,-0.457209 2.386486,-0.454821 1.461991,0.003 2.215431,0.263154 3.488706,1.204527 1.332677,0.985291 2.409588,3.57602 2.17179,5.224682 -0.378925,2.627082 -2.595871,4.762237 -5.271131,5.076662 -0.739966,0.08697 -1.271914,0.0241 -2.211866,-0.261399 -1.470075,-0.44652 -2.164606,-0.471419 -2.876802,-0.103128 -0.654022,0.338207 -0.691706,0.530464 -0.760806,3.881475 -0.07795,3.780241 -0.847542,6.239866 -2.640342,8.438589 -0.928953,1.139286 -1.00651,1.57824 -0.482703,2.731985 0.354222,0.780217 1.608535,2.250109 2.181995,2.557017 0.18618,0.09964 0.850231,0.253636 1.47567,0.342206 3.044219,0.43111 5.01408,2.73677 5.013737,5.86841 -5.3e-4,5.1413 -6.374072,7.57127 -9.870913,3.76338 -1.431232,-1.55854 -1.930943,-3.53605 -1.375965,-5.44511 0.157775,-0.54273 0.286863,-1.14481 0.286863,-1.33797 0,-0.4591 -1.980873,-3.471691 -2.511249,-3.819207 -0.37116,-0.243194 -0.535542,-0.237038 -1.705354,0.06387 -2.961415,0.761748 -5.660551,0.612773 -8.422931,-0.464889 -2.695277,-1.051486 -2.094844,-1.322014 -6.194927,2.791176 -1.975356,1.98167 -3.67159,3.81354 -3.769406,4.07082 -0.128117,0.33697 -0.107431,0.73234 0.07398,1.4139 0.542422,2.03791 0.233692,4.20841 -0.920281,6.46994 -0.454316,0.89036 -0.710715,1.59306 -0.632359,1.73307 0.20498,0.36628 2.354572,2.1818 2.720952,2.29808 0.180086,0.0572 0.767423,-0.0607 1.305192,-0.2619 2.916429,-1.09118 5.924961,0.20561 7.304427,3.14849 0.382927,0.81691 0.465112,1.24483 0.462418,2.4077 -0.0028,1.1977 -0.07811,1.55723 -0.492051,2.34836 -0.600328,1.14736 -1.641152,2.1815 -2.740675,2.72309 -0.684258,0.33704 -1.10828,0.4077 -2.42057,0.40337 -1.901977,-0.006 -2.896645,-0.40523 -4.159896,-1.66848 -1.506532,-1.50653 -2.021125,-3.32624 -1.504679,-5.32086 l 0.294426,-1.13713 -0.85046,-0.7775 c -0.467751,-0.42763 -1.255106,-1.08366 -1.749674,-1.45786 l -0.899215,-0.68036 -1.133717,0.39968 c -1.651995,0.58239 -1.625898,0.5528 -1.539628,1.74547 0.09135,1.26294 0.463721,1.81844 1.658419,2.47403 4.263415,2.33954 4.026966,8.23024 -0.414699,10.33149 -1.092463,0.51682 -2.566709,0.6883 -3.627786,0.42199 z"
       id="path4958"
       inkscape:connector-curvature="0"
       transform="matrix(0.26458333,0,0,0.26458333,0,263.13333)" />
  </g>
</svg>
