<?xml version="1.0" encoding="UTF-8" standalone="no"?>
<!-- Created with Inkscape (http://www.inkscape.org/) -->

<svg
   xmlns:dc="http://purl.org/dc/elements/1.1/"
   xmlns:cc="http://creativecommons.org/ns#"
   xmlns:rdf="http://www.w3.org/1999/02/22-rdf-syntax-ns#"
   xmlns:svg="http://www.w3.org/2000/svg"
   xmlns="http://www.w3.org/2000/svg"
   xmlns:sodipodi="http://sodipodi.sourceforge.net/DTD/sodipodi-0.dtd"
   xmlns:inkscape="http://www.inkscape.org/namespaces/inkscape"
   id="svg8"
   version="1.1"
   viewBox="0 0 33.866667 33.866667"
   height="128"
   width="128"
   inkscape:version="0.92.4 (5da689c313, 2019-01-14)"
   sodipodi:docname="EvoIconChromosomes.svg"
   inkscape:export-filename="D:\Dysk Google\Studia III stopnia\Projekty i prace własne\BIM\IN PROG_Optio\_EVO Icons\EvoIconSmall.png"
   inkscape:export-xdpi="96"
   inkscape:export-ydpi="96"
   style="shape-rendering:crispEdges">
  <defs
     id="defs2" />
  <sodipodi:namedview
     id="base"
     pagecolor="#ffffff"
     bordercolor="#666666"
     borderopacity="1.0"
     inkscape:pageopacity="0.0"
     inkscape:pageshadow="2"
     inkscape:zoom="6.6250001"
     inkscape:cx="63.999999"
     inkscape:cy="64.000001"
     inkscape:document-units="mm"
     inkscape:current-layer="layer1"
     showgrid="true"
     units="px"
     inkscape:snap-grids="true"
     inkscape:snap-page="true"
     inkscape:window-width="1920"
     inkscape:window-height="1017"
     inkscape:window-x="-8"
     inkscape:window-y="-8"
     inkscape:window-maximized="1"
     inkscape:pagecheckerboard="true">
    <inkscape:grid
       type="xygrid"
       id="grid3713" />
  </sodipodi:namedview>
  <metadata
     id="metadata5">
    <rdf:RDF>
      <cc:Work
         rdf:about="">
        <dc:format>image/svg+xml</dc:format>
        <dc:type
           rdf:resource="http://purl.org/dc/dcmitype/StillImage" />
        <dc:title></dc:title>
      </cc:Work>
    </rdf:RDF>
  </metadata>
  <g
     inkscape:label="Layer 1"
     inkscape:groupmode="layer"
     id="layer1"
     transform="translate(0,-263.13333)">
    <path
       style="fill:#ffffff;fill-opacity:1;stroke-width:4.41379213"
       d="M 64 0 A 63.999995 63.999969 0 0 0 32.554688 8.3515625 C 32.665957 8.963846 32.81325 10.354709 33.023438 12.867188 C 33.269046 15.513462 33.390625 17.117245 33.390625 17.6875 C 33.390625 18.166744 33.165324 18.40625 32.71875 18.40625 C 32.584804 18.40625 32.350552 18.39963 32.015625 18.376953 C 27.581083 18.002024 23.598318 17.808135 19.835938 17.712891 A 63.999995 63.999969 0 0 0 14.203125 23.884766 C 14.254829 23.975474 14.276372 24.123375 14.335938 24.191406 C 14.715523 24.625296 15.443868 24.845703 16.515625 24.845703 C 16.738904 24.845703 17.172788 24.831017 17.820312 24.800781 C 18.467836 24.755427 18.997635 24.726562 19.421875 24.726562 C 22.235237 24.726562 25.088402 24.650928 27.96875 24.492188 L 29.804688 24.318359 C 30.563843 24.227651 31.170624 24.183594 31.617188 24.183594 C 32.125107 24.183594 32.385528 24.42889 32.412109 24.900391 C 32.367347 24.980933 32.170571 26.74806 31.820312 30.207031 C 31.641692 32.03209 31.546875 33.858535 31.546875 35.683594 C 31.546875 36.140161 31.225649 36.371094 30.578125 36.371094 L 27.5625 36.027344 C 26.289782 35.891281 23.392016 35.826172 18.859375 35.826172 L 15.304688 35.826172 C 14.389225 35.826172 13.851611 36.049292 13.695312 36.505859 C 13.672938 36.626804 13.664062 37.331307 13.664062 38.630859 C 13.664062 40.364604 13.77669 41.480501 14 41.982422 C 14.379586 42.84869 15.810623 43.361232 18.289062 43.521484 L 23.179688 43.521484 C 24.363088 43.521484 26.11536 43.414403 28.4375 43.214844 C 30.78197 42.98656 32.534243 42.873047 33.695312 42.873047 C 34.18653 42.873047 34.429688 43.284997 34.429688 44.107422 C 34.429688 45.088587 34.238961 46.890226 33.859375 49.513672 C 33.45746 52.365401 33.10166 54.059995 32.789062 54.607422 C 32.521124 55.041312 32.156403 55.263672 31.6875 55.263672 C 31.48655 55.263672 31.148591 55.218676 30.679688 55.158203 C 29.049724 54.92992 24.295944 54.822266 16.414062 54.822266 C 14.694786 54.822266 12.136085 54.80758 8.7421875 54.777344 C 5.3482901 54.747108 2.7985113 54.746094 1.1015625 54.746094 C 0.95208974 54.746094 0.88477536 54.670861 0.765625 54.640625 A 63.999995 63.999969 0 0 0 0 64 A 63.999995 63.999969 0 0 0 19.851562 110.29688 C 20.899417 108.63779 22.51096 106.54723 25.201172 103.26172 C 28.789863 98.878903 29.728249 97.442505 31.132812 94.1875 C 32.667125 90.631796 34.235681 84.959625 34.572266 81.748047 C 34.936264 78.274774 34.724539 76.085038 33.306641 68.660156 C 32.587511 64.894424 31.969188 61.21071 31.933594 60.474609 C 31.73162 56.297589 35.505599 52.860304 37.898438 55.041016 C 38.827506 55.887705 40.527258 59.373557 40.873047 61.138672 C 41.339418 63.519283 41.421724 65.473671 41.255859 70.175781 C 41.086537 74.975781 41.122452 76.161673 41.507812 78.519531 C 41.798345 80.297194 42.074756 80.743567 42.322266 79.839844 C 42.399784 79.557513 42.979682 78.471942 43.611328 77.427734 C 44.664123 75.687262 44.899305 75.056173 46.435547 69.849609 C 48.296016 63.544224 48.411453 63.326691 50.257812 62.675781 C 52.84434 61.763932 55.552668 63.666389 55.714844 66.509766 C 55.817911 68.316833 52.845294 75.886326 50.072266 80.875 C 49.183771 82.4734 48.854135 83.371206 48.109375 86.232422 C 47.305972 89.318406 47.214053 89.968766 47.208984 92.585938 C 47.205881 94.189326 47.398993 97.27546 47.638672 99.443359 C 49.054914 112.25233 49.094331 114.26328 48.009766 118.44336 C 47.417132 120.72665 47.216694 121.21197 46.505859 122.06641 C 45.436906 123.35133 44.306748 124.15282 43.251953 124.46289 A 63.999995 63.999969 0 0 0 64 128 A 63.999995 63.999969 0 0 0 128 64 A 63.999995 63.999969 0 0 0 64 0 z M 90.734375 20.492188 C 95.780562 20.492188 99.866227 22.112054 102.99219 25.351562 C 106.11814 28.568243 107.67969 32.758182 107.67969 37.914062 C 107.67969 43.115448 106.11814 47.330804 102.99219 50.570312 C 99.888553 53.80967 95.802888 55.429688 90.734375 55.429688 C 85.822153 55.429688 81.779987 53.834477 78.609375 50.640625 C 75.438756 47.446773 73.851562 43.339223 73.851562 38.320312 C 73.851562 33.027613 75.369607 28.738139 78.40625 25.453125 C 81.4429 22.145131 85.554215 20.492188 90.734375 20.492188 z M 38.648438 22.171875 C 39.787179 22.171875 41.495955 22.201753 43.773438 22.277344 C 46.07325 22.352934 47.790942 22.382812 48.929688 22.382812 C 49.443235 22.382812 49.703125 22.739738 49.703125 23.447266 C 49.703125 24.086762 49.659509 25.053207 49.570312 26.353516 C 49.480964 27.630996 49.4375 28.60601 49.4375 29.267578 C 49.4375 31.640214 49.498866 33.574314 49.632812 35.080078 C 49.699786 35.855637 50.350062 37.318387 51.578125 39.462891 C 52.850843 41.721385 53.778836 42.853516 54.359375 42.853516 C 54.917581 42.853516 55.811 41.745436 57.039062 39.533203 C 58.222463 37.457184 58.855998 36.043746 58.945312 35.291016 C 59.123933 33.671261 59.210937 31.704542 59.210938 29.400391 C 59.210938 28.738217 59.149571 27.746965 59.015625 26.423828 C 58.881679 25.078316 58.8125 24.086157 58.8125 23.447266 C 58.8125 22.739738 59.046752 22.382812 59.515625 22.382812 C 60.051502 22.382812 60.841198 22.399451 61.890625 22.429688 C 62.962393 22.459924 63.768811 22.458984 64.304688 22.458984 C 64.840564 22.458984 65.646989 22.412974 66.71875 22.322266 C 67.812833 22.231557 68.628182 22.1875 69.164062 22.1875 C 69.722268 22.1875 70.086989 22.485495 70.265625 23.078125 C 70.645226 24.378282 70.835938 27.023386 70.835938 31.015625 C 70.835938 34.916702 70.714419 37.222462 70.46875 37.929688 C 69.955203 39.549442 68.411501 42.293626 65.84375 46.171875 C 63.610922 49.502697 61.702495 52.105848 60.117188 53.976562 C 59.536652 54.68409 57.784382 55.039062 54.859375 55.039062 C 52.313954 55.039062 50.665417 54.948554 49.90625 54.765625 C 49.437362 54.64468 49.046957 54.421306 48.734375 54.078125 C 47.394653 52.595038 45.486253 50.014742 43.007812 46.341797 C 40.350752 42.395214 38.763551 39.692529 38.25 38.232422 C 37.691793 36.658324 37.414062 34.302492 37.414062 31.154297 C 37.414062 30.26384 37.422938 28.925886 37.445312 27.146484 C 37.467687 25.344254 37.476563 23.990654 37.476562 23.078125 C 37.476562 22.485495 37.866937 22.1875 38.648438 22.1875 L 38.648438 22.171875 z M 90.796875 31.070312 C 89.032939 31.070312 87.584058 31.773352 86.445312 33.1875 C 85.373559 34.510335 84.835938 36.089004 84.835938 37.914062 C 84.835938 39.761949 85.373552 41.348587 86.445312 42.671875 C 87.584054 44.085418 89.032939 44.789062 90.796875 44.789062 C 92.538481 44.789062 93.978442 44.086023 95.117188 42.671875 C 96.166611 41.34904 96.695312 39.761949 96.695312 37.914062 C 96.695312 36.111833 96.148778 34.525044 95.054688 33.15625 C 93.960605 31.765384 92.538481 31.070312 90.796875 31.070312 z M 67.736328 65.078125 C 68.821105 65.107771 69.832426 65.599447 70.669922 66.533203 C 71.392435 67.338696 72.638752 71.601116 74.169922 78.505859 C 74.583175 80.369393 75.188567 82.724083 75.515625 83.738281 C 77.027693 88.427239 79.430337 91.083442 82.158203 91.080078 C 84.458817 91.077243 85.672649 89.885421 88.541016 84.818359 C 90.663814 81.06835 91.673143 79.666935 93.117188 78.462891 C 94.22598 77.53838 95.056217 77.459515 96.607422 78.134766 C 97.91507 78.704265 98.590095 79.75683 98.759766 81.490234 C 99.077775 84.739192 97.83253 88.049693 94.724609 92.226562 C 91.101584 97.09569 89.924017 97.977183 84.056641 100.19531 C 80.475992 101.54895 77.620339 103.13922 76.458984 104.42773 C 76.048547 104.88309 74.221461 107.52522 72.400391 110.29883 C 68.634416 116.0346 66.405234 118.76761 63.884766 120.73633 C 60.301724 123.53503 57.683612 124.20163 55 123 C 53.575832 122.36251 52.760865 121.53927 52.578125 120.55273 C 52.431857 119.76312 52.492233 119.57219 53.412109 117.90625 C 54.68855 115.59454 57.675326 112.2478 60.455078 110.01172 C 69.144541 103.02175 70.947344 101.26683 72.160156 98.623047 C 74.027889 94.551589 72.882769 89.317688 68.511719 81.964844 C 66.269597 78.193253 65.091281 75.525738 64.009766 71.763672 C 63.427975 69.739999 63.342873 69.077997 63.560547 68.265625 C 63.91004 66.961348 64.643361 66.036207 65.726562 65.529297 C 66.409001 65.209917 67.085462 65.060337 67.736328 65.078125 z M 38.845703 96.375 C 38.446494 96.268039 35.95706 99.562864 33.972656 102.82422 C 33.469817 103.65065 32.002642 106.40159 30.712891 108.9375 C 29.133887 112.0422 27.924859 114.33431 26.933594 116.07617 A 63.999995 63.999969 0 0 0 39.912109 123.24805 C 39.855107 123.1639 39.795356 123.08428 39.742188 122.99219 C 39.437217 122.46396 38.951323 120.94781 38.662109 119.62305 C 38.17472 117.39059 38.168423 117.00591 38.564453 114.35352 C 39.086519 110.85696 39.262262 107.81511 39.205078 103.24805 C 39.130886 97.322504 39.084834 96.439063 38.845703 96.375 z "
       transform="matrix(0.26458333,0,0,0.26458333,0,263.13333)"
       id="path3719" />
    <text
       xml:space="preserve"
       style="font-style:normal;font-weight:normal;font-size:10.58333302px;line-height:1.25;font-family:sans-serif;letter-spacing:0px;word-spacing:0px;fill:#000000;fill-opacity:1;stroke:none;stroke-width:0.26458332"
       x="4.2333331"
       y="287.47501"
       id="text4535"><tspan
         sodipodi:role="line"
         id="tspan4533"
         x="4.2333331"
         y="297.13049"
         style="stroke-width:0.26458332" /></text>
  </g>
</svg>
