<?xml version="1.0" encoding="UTF-8" standalone="no"?>
<!-- Created with Inkscape (http://www.inkscape.org/) -->

<svg
   xmlns:dc="http://purl.org/dc/elements/1.1/"
   xmlns:cc="http://creativecommons.org/ns#"
   xmlns:rdf="http://www.w3.org/1999/02/22-rdf-syntax-ns#"
   xmlns:svg="http://www.w3.org/2000/svg"
   xmlns="http://www.w3.org/2000/svg"
   xmlns:sodipodi="http://sodipodi.sourceforge.net/DTD/sodipodi-0.dtd"
   xmlns:inkscape="http://www.inkscape.org/namespaces/inkscape"
   id="svg8"
   version="1.1"
   viewBox="0 0 33.866667 33.866667"
   height="128"
   width="128"
   inkscape:version="0.92.4 (5da689c313, 2019-01-14)"
   sodipodi:docname="EvoIconSelection.svg"
   inkscape:export-filename="D:\Dysk Google\Studia III stopnia\Projekty i prace własne\BIM\IN PROG_Optio\_EVO Icons\EvoIconSmall.png"
   inkscape:export-xdpi="96"
   inkscape:export-ydpi="96"
   style="shape-rendering:crispEdges">
  <defs
     id="defs2" />
  <sodipodi:namedview
     id="base"
     pagecolor="#ffffff"
     bordercolor="#666666"
     borderopacity="1.0"
     inkscape:pageopacity="0.0"
     inkscape:pageshadow="2"
     inkscape:zoom="6.6250001"
     inkscape:cx="63.999999"
     inkscape:cy="64.000001"
     inkscape:document-units="mm"
     inkscape:current-layer="layer1"
     showgrid="true"
     units="px"
     inkscape:snap-grids="true"
     inkscape:snap-page="true"
     inkscape:window-width="1920"
     inkscape:window-height="1017"
     inkscape:window-x="-8"
     inkscape:window-y="-8"
     inkscape:window-maximized="1"
     inkscape:pagecheckerboard="true">
    <inkscape:grid
       type="xygrid"
       id="grid3713" />
  </sodipodi:namedview>
  <metadata
     id="metadata5">
    <rdf:RDF>
      <cc:Work
         rdf:about="">
        <dc:format>image/svg+xml</dc:format>
        <dc:type
           rdf:resource="http://purl.org/dc/dcmitype/StillImage" />
        <dc:title></dc:title>
      </cc:Work>
    </rdf:RDF>
  </metadata>
  <g
     inkscape:label="Layer 1"
     inkscape:groupmode="layer"
     id="layer1"
     transform="translate(0,-263.13333)">
    <path
       style="fill:#ffffff;fill-opacity:1;stroke-width:4.41379213"
       d="M 46.496094 71.896484 L 44.525391 72.316406 C 41.131825 73.039732 38.137508 74.307979 35.228516 76.253906 L 33.78125 77.222656 L 31.740234 79.263672 L 29.699219 81.304688 L 28.732422 82.751953 C 26.786524 85.660942 25.518256 88.655304 24.794922 92.048828 L 24.373047 94.019531 L 24.373047 96.8125 L 24.373047 99.607422 L 24.794922 101.57812 C 25.521307 104.98605 26.799539 107.99878 28.740234 110.875 L 29.716797 112.32227 L 31.419922 114.08398 L 33.125 115.8457 L 34.800781 117.04102 L 36.478516 118.23633 L 38.115234 119.06055 C 40.914326 120.46695 43.569337 121.27068 46.710938 121.66602 L 48.037109 121.83398 L 50.15625 121.74414 L 52.275391 121.65234 L 54.150391 121.27148 C 56.415186 120.81027 58.276884 120.15691 60.462891 119.06055 L 62.101562 118.24023 L 63.642578 117.14258 L 65.183594 116.04492 L 66.775391 114.47461 L 68.367188 112.9043 L 69.414062 111.44922 C 70.73017 109.62133 72.066338 107.12277 72.796875 105.12109 L 73.359375 103.57617 L 73.779297 101.5918 L 74.199219 99.607422 L 74.199219 96.8125 L 74.199219 94.019531 L 73.783203 92.048828 C 73.278372 89.663493 72.631914 87.817607 71.537109 85.638672 L 70.712891 84.001953 L 69.517578 82.324219 L 68.322266 80.648438 L 66.560547 78.943359 L 64.798828 77.238281 L 63.351562 76.263672 C 60.475335 74.32296 57.462607 73.042794 54.054688 72.316406 L 52.083984 71.896484 L 49.289062 71.896484 L 46.496094 71.896484 z M 47.652344 74.464844 L 49.289062 74.464844 L 50.927734 74.464844 L 52.816406 74.75 L 54.705078 75.035156 L 56.423828 75.611328 C 58.518144 76.312997 60.098877 77.096928 62.003906 78.378906 L 63.449219 79.351562 L 65.119141 81.017578 L 66.787109 82.681641 L 67.839844 84.304688 C 69.217228 86.426778 69.789861 87.585211 70.490234 89.675781 L 71.066406 91.396484 L 71.349609 93.285156 L 71.634766 95.173828 L 71.634766 96.810547 L 71.634766 98.449219 L 71.349609 100.33789 L 71.066406 102.22656 L 70.490234 103.94727 C 69.777604 106.07427 69.203249 107.2323 67.820312 109.33398 L 66.742188 110.9707 L 65.095703 112.61719 L 63.449219 114.26367 L 61.8125 115.3418 C 59.710829 116.72469 58.552812 117.29714 56.425781 118.00977 L 54.705078 118.58789 L 52.816406 118.87109 L 50.927734 119.15625 L 49.097656 119.13672 L 47.267578 119.11914 L 45.587891 118.85742 L 45.587891 118.85938 L 43.908203 118.59961 L 42.171875 118.01562 C 40.064203 117.30935 38.908986 116.7412 36.783203 115.36133 L 35.162109 114.30859 L 33.476562 112.625 L 31.792969 110.93945 L 30.740234 109.31836 C 29.362799 107.19623 28.790217 106.03776 28.089844 103.94727 L 27.513672 102.22656 L 27.228516 100.33789 L 26.945312 98.449219 L 26.945312 96.810547 L 26.945312 95.173828 L 27.228516 93.285156 L 27.513672 91.396484 L 28.089844 89.677734 C 28.791467 87.583423 29.575481 86.000698 30.857422 84.095703 L 31.830078 82.650391 L 33.480469 81.001953 L 35.128906 79.351562 L 36.574219 78.378906 C 38.479296 77.096928 40.061984 76.312997 42.15625 75.611328 L 43.875 75.035156 L 45.763672 74.75 L 47.652344 74.464844 z "
       transform="matrix(0.26458333,0,0,0.26458333,0,263.13333)"
       id="path949" />
    <path
       style="fill:#ffffff;fill-opacity:1;stroke-width:4.41379213"
       d="M 64 0 A 63.999993 63.999967 0 0 0 32.554688 8.3515625 C 32.665955 8.963846 32.81325 10.354709 33.023438 12.867188 C 33.269044 15.51346 33.390625 17.117245 33.390625 17.6875 C 33.390625 18.166744 33.165324 18.40625 32.71875 18.40625 C 32.584804 18.40625 32.350552 18.399653 32.015625 18.376953 C 27.581083 18.002024 23.598316 17.808135 19.835938 17.712891 A 63.999993 63.999967 0 0 0 14.203125 23.884766 C 14.254825 23.975476 14.276375 24.123375 14.335938 24.191406 C 14.715521 24.625296 15.443868 24.845703 16.515625 24.845703 C 16.738904 24.845703 17.17279 24.831011 17.820312 24.800781 C 18.467836 24.755431 18.997635 24.726563 19.421875 24.726562 C 22.235237 24.726562 25.088402 24.65093 27.96875 24.492188 L 29.804688 24.318359 C 30.563841 24.227649 31.170624 24.183594 31.617188 24.183594 C 32.125105 24.183594 32.385528 24.42889 32.412109 24.900391 C 32.367349 24.980931 32.170571 26.74806 31.820312 30.207031 C 31.641694 32.03209 31.546875 33.858535 31.546875 35.683594 C 31.546875 36.140161 31.225649 36.371094 30.578125 36.371094 L 27.5625 36.027344 C 26.289782 35.891281 23.392016 35.826172 18.859375 35.826172 L 15.304688 35.826172 C 14.389225 35.826172 13.851611 36.049292 13.695312 36.505859 C 13.672944 36.626804 13.664062 37.331307 13.664062 38.630859 C 13.664062 40.364604 13.77669 41.480501 14 41.982422 C 14.379586 42.84869 15.810625 43.361232 18.289062 43.521484 L 23.179688 43.521484 C 24.363086 43.521484 26.11536 43.414403 28.4375 43.214844 C 30.78197 42.98656 32.534245 42.873047 33.695312 42.873047 C 34.18653 42.873047 34.429687 43.284997 34.429688 44.107422 C 34.429688 45.088587 34.238961 46.890226 33.859375 49.513672 C 33.45746 52.365401 33.10166 54.059995 32.789062 54.607422 C 32.521126 55.041312 32.156403 55.263672 31.6875 55.263672 C 31.48655 55.263672 31.148589 55.218672 30.679688 55.158203 C 29.049724 54.92992 24.295944 54.822266 16.414062 54.822266 C 14.694788 54.822266 12.136085 54.807574 8.7421875 54.777344 C 5.3482901 54.747104 2.7985113 54.746094 1.1015625 54.746094 C 0.95208974 54.746094 0.88477536 54.670864 0.765625 54.640625 A 63.999993 63.999967 0 0 0 0 64 A 63.999993 63.999967 0 0 0 9.0253906 96.626953 L 9.0253906 93.958984 L 9.3320312 91.580078 L 9.6367188 89.203125 L 10.277344 86.699219 L 10.916016 84.193359 L 11.722656 82.171875 C 15.981022 71.47653 23.953052 63.502534 34.648438 59.244141 L 36.671875 58.439453 L 39.175781 57.800781 L 41.679688 57.160156 L 44.058594 56.853516 L 46.435547 56.548828 L 49.296875 56.548828 L 52.160156 56.548828 L 54.433594 56.839844 L 56.707031 57.130859 L 59.105469 57.724609 L 61.505859 58.318359 L 63.691406 59.164062 C 71.675791 62.249933 78.122942 67.422968 82.935547 74.605469 L 84.197266 76.488281 L 85.400391 78.921875 L 86.605469 81.355469 L 87.492188 84.027344 L 88.376953 86.699219 L 88.761719 88.625 C 88.973297 89.684591 89.239494 91.392936 89.351562 92.421875 L 89.554688 94.292969 L 89.554688 96.8125 L 89.554688 99.332031 L 89.351562 101.20312 C 89.239464 102.23206 88.973327 103.94041 88.761719 105 L 88.376953 106.92773 L 87.492188 109.59961 L 86.605469 112.27148 L 85.400391 114.70508 L 84.197266 117.13867 L 82.935547 119.01953 C 80.947375 121.98672 78.753262 124.53233 76.222656 126.79883 A 63.999993 63.999967 0 0 0 128 64 A 63.999993 63.999967 0 0 0 64 0 z M 90.734375 20.492188 C 95.780562 20.492188 99.866225 22.112055 102.99219 25.351562 C 106.11814 28.568243 107.67969 32.758183 107.67969 37.914062 C 107.67969 43.115448 106.11814 47.330805 102.99219 50.570312 C 99.888551 53.80967 95.802888 55.429687 90.734375 55.429688 C 85.822153 55.429688 81.779987 53.834477 78.609375 50.640625 C 75.438756 47.446773 73.851562 43.339223 73.851562 38.320312 C 73.851562 33.027614 75.369607 28.738139 78.40625 25.453125 C 81.4429 22.145131 85.554215 20.492187 90.734375 20.492188 z M 38.648438 22.171875 C 39.787177 22.171875 41.495955 22.201755 43.773438 22.277344 C 46.073248 22.352934 47.790942 22.382813 48.929688 22.382812 C 49.443233 22.382812 49.703125 22.739738 49.703125 23.447266 C 49.703125 24.086762 49.659505 25.053207 49.570312 26.353516 C 49.480964 27.630996 49.4375 28.60601 49.4375 29.267578 C 49.4375 31.640214 49.498872 33.574314 49.632812 35.080078 C 49.699782 35.855637 50.350062 37.318387 51.578125 39.462891 C 52.850843 41.721385 53.778836 42.853516 54.359375 42.853516 C 54.917581 42.853516 55.811002 41.745436 57.039062 39.533203 C 58.222463 37.457184 58.856 36.043746 58.945312 35.291016 C 59.123933 33.671261 59.210937 31.704542 59.210938 29.400391 C 59.210938 28.738217 59.149568 27.746965 59.015625 26.423828 C 58.881679 25.078316 58.8125 24.086157 58.8125 23.447266 C 58.8125 22.739738 59.046752 22.382813 59.515625 22.382812 C 60.051502 22.382812 60.841198 22.399448 61.890625 22.429688 C 62.962393 22.459926 63.768811 22.458984 64.304688 22.458984 C 64.840562 22.458984 65.646989 22.412974 66.71875 22.322266 C 67.812833 22.231556 68.628184 22.1875 69.164062 22.1875 C 69.722268 22.1875 70.086989 22.485495 70.265625 23.078125 C 70.645226 24.378282 70.835936 27.023386 70.835938 31.015625 C 70.835938 34.916702 70.714419 37.222462 70.46875 37.929688 C 69.955203 39.54944 68.411501 42.293626 65.84375 46.171875 C 63.610922 49.502697 61.702493 52.10585 60.117188 53.976562 C 59.536652 54.68409 57.784382 55.039062 54.859375 55.039062 C 52.313954 55.039062 50.665417 54.948552 49.90625 54.765625 C 49.437362 54.64468 49.046957 54.421306 48.734375 54.078125 C 47.394653 52.595038 45.486253 50.014742 43.007812 46.341797 C 40.350754 42.395214 38.763551 39.692529 38.25 38.232422 C 37.691793 36.658324 37.414064 34.302492 37.414062 31.154297 C 37.414062 30.26384 37.422964 28.925886 37.445312 27.146484 C 37.467682 25.344254 37.476562 23.990654 37.476562 23.078125 C 37.476562 22.485495 37.866937 22.1875 38.648438 22.1875 L 38.648438 22.171875 z "
       transform="matrix(0.26458333,0,0,0.26458333,0,263.13333)"
       id="path985" />
    <path
       style="fill:#ffffff;fill-opacity:1;stroke-width:4.41379213"
       d="m 90.796875,31.070312 c -1.763936,0 -3.212817,0.70304 -4.351563,2.117188 -1.071753,1.322835 -1.609374,2.901504 -1.609374,4.726562 0,1.847887 0.537614,3.434525 1.609374,4.757813 1.138742,1.413543 2.587627,2.117187 4.351563,2.117187 1.741606,0 3.181567,-0.703039 4.320313,-2.117187 1.049423,-1.322835 1.578124,-2.909926 1.578124,-4.757813 0,-1.802229 -0.546534,-3.389018 -1.640624,-4.757812 -1.094083,-1.390866 -2.516207,-2.085938 -4.257813,-2.085938 z"
       transform="matrix(0.26458333,0,0,0.26458333,0,263.13333)"
       id="path979" />
    <path
       style="fill:#ffffff;fill-opacity:1;stroke-width:4.41379213"
       d="m 46.072266,57.111328 -2.09961,0.306641 c -4.463308,0.653745 -7.953198,1.723348 -11.925781,3.652343 l -2.503906,1.214844 -1.814453,1.195313 c -2.599099,1.711597 -4.272055,3.0748 -6.484375,5.287109 -2.212371,2.212384 -3.57552,3.883279 -5.28711,6.482422 l -1.195312,1.816406 -1.214844,2.503906 c -1.92899,3.972586 -2.998592,7.462462 -3.6523438,11.925782 l -0.3066406,2.099609 v 3.216797 0.730469 a 63.999995,63.999969 0 0 0 1.9960934,3.126951 l -0.08984,-1.089842 -0.22461,-2.767578 0.22461,-2.765625 0.226562,-2.767578 0.382813,-1.904297 c 0.556456,-2.768202 1.232858,-4.966917 2.318359,-7.537109 l 0.957031,-2.267579 1.205078,-2.023437 c 0.663357,-1.113146 1.722123,-2.717348 2.351563,-3.564453 L 20.080078,72.441406 22.5,70.023438 l 2.419922,-2.419922 1.539062,-1.144532 c 0.847092,-0.629442 2.45129,-1.688217 3.564454,-2.351562 l 2.023437,-1.205078 2.267578,-0.958985 c 2.570186,-1.085518 4.768984,-1.759946 7.537109,-2.316406 l 1.90625,-0.384765 2.765626,-0.22461 2.765624,-0.224609 2.767579,0.224609 2.765625,0.22461 1.90625,0.384765 c 2.768179,0.55646 4.964971,1.230888 7.535156,2.316406 l 2.269531,0.958985 2.023438,1.205078 c 1.113165,0.663345 2.717362,1.72212 3.564453,2.351562 l 1.539062,1.144532 2.421875,2.419922 2.421875,2.417968 1.279297,1.734375 c 0.703351,0.953651 1.807586,2.655858 2.453125,3.78125 l 1.173828,2.044922 0.94336,2.326172 c 1.596374,3.932069 2.360577,7.220449 2.730468,11.740234 l 0.22461,2.744141 -0.22461,2.746094 c -0.239244,2.923766 -0.572015,4.936376 -1.203125,7.271486 -2.23977,8.28744 -7.232466,15.51123 -14.25,20.66211 a 63.999995,63.999969 0 0 0 3.59961,-0.54297 l 2.097656,-2.09766 2.126953,-2.12695 1.16211,-1.54102 c 2.655545,-3.52221 4.28511,-6.40033 5.753906,-10.16406 l 0.882812,-2.26367 0.564453,-2.26367 c 0.309695,-1.24468 0.695571,-3.18444 0.859375,-4.31055 l 0.298828,-2.04687 V 96.8125 93.490234 L 88.675781,91.443359 C 87.641461,84.379233 85.06184,78.292721 80.625,72.447266 l -1.171875,-1.546875 -2.126953,-2.13086 -2.125,-2.132812 -1.544922,-1.166016 C 67.734917,61.002848 61.721604,58.459984 54.607422,57.417969 l -2.101563,-0.306641 h -3.216797 z"
       transform="matrix(0.26458333,0,0,0.26458333,0,263.13333)"
       id="path977" />
    <path
       style="fill:#ffffff;fill-opacity:1;stroke-width:4.41379213"
       d="m 46.998047,60.015625 -2.273438,0.298828 -2.273437,0.296875 -1.857422,0.470703 c -4.995704,1.266066 -9.423582,3.390894 -13.511719,6.480469 l -1.583984,1.197266 -2.130859,2.128906 -2.13086,2.130859 -1.197266,1.583985 c -3.089575,4.088163 -5.212431,8.516014 -6.478515,13.511718 l -0.470703,1.859375 -0.298828,2.273438 -0.298828,2.273437 v 2.291016 2.292969 l 0.298828,2.273441 0.140625,1.0625 a 63.999995,63.999969 0 0 0 0.527343,0.69726 l -0.189453,-0.94726 -0.226562,-2.689457 -0.22461,-2.689453 0.22461,-2.6875 0.226562,-2.689453 0.378907,-1.886719 c 1.081849,-5.38148 3.385382,-10.461584 6.78125,-14.951172 l 1.193359,-1.576172 1.9375,-1.9375 1.9375,-1.9375 1.576172,-1.193359 c 4.489572,-3.395868 9.56969,-5.699398 14.951172,-6.78125 l 1.886718,-0.378906 2.689453,-0.226563 2.6875,-0.224609 2.6875,0.224609 2.6875,0.226563 1.888672,0.384765 c 11.091818,2.266394 20.29251,9.33601 25.31836,19.453125 l 1.101562,2.214844 0.705078,2.083985 0.705078,2.082031 0.460938,2.179687 0.460938,2.177735 0.222656,2.722656 0.220703,2.722656 -0.220703,2.720703 -0.222656,2.722654 -0.460938,2.17774 -0.460938,2.17968 -0.708984,2.08204 -0.708984,2.08398 -0.982422,2.02148 L 81,114.82617 l -1.488281,2.2168 -1.490235,2.21484 -1.46289,1.67969 -1.462891,1.68164 -1.681641,1.46289 -1.679687,1.46289 -2.216797,1.49024 -1.107422,0.74414 a 63.999995,63.999969 0 0 0 0.59961,-0.0312 c 6.929413,-4.46393 12.195563,-11.03162 14.958984,-18.7793 l 0.728516,-2.04102 0.492187,-2.21679 c 1.196137,-5.393502 1.196137,-10.40334 0,-15.796878 l -0.492187,-2.214843 -0.753907,-2.115235 c -0.982575,-2.754822 -2.357901,-5.465983 -4.107421,-8.095703 l -1.410157,-2.11914 -1.433593,-1.638672 C 71.923078,66.936907 65.460779,62.976293 57.986328,61.082031 l -1.857422,-0.470703 -2.273437,-0.296875 -2.273438,-0.298828 h -2.292969 z"
       transform="matrix(0.26458333,0,0,0.26458333,0,263.13333)"
       id="path971" />
    <path
       style="fill:#ffffff;fill-opacity:1;stroke-width:4.41379213"
       d="m 49.494141,60.978516 -0.05273,5.201172 -0.05469,5.203124 h 1.27539 1.275391 l 1.710938,0.294922 c 1.895924,0.328819 4.306662,0.993436 4.589843,1.263672 0.25663,0.244914 0.303241,0.218122 0.179688,-0.103515 l -0.105469,-0.279297 1.757812,-4.56836 1.757813,-4.568359 -0.152344,-0.144531 C 61.440166,63.05284 57.839953,61.993463 56.224609,61.673828 54.577098,61.347655 51.412805,60.978516 50.267578,60.978516 Z"
       transform="matrix(0.26458333,0,0,0.26458333,0,263.13333)"
       id="path969" />
    <path
       style="fill:#ffffff;fill-opacity:1;stroke-width:4.41379213"
       d="m 39.740234,62.349609 c -0.04002,-0.04006 -1.00581,0.247403 -2.148437,0.640625 l -2.076172,0.716797 -2.097656,1.050781 c -2.052498,1.029204 -4.603777,2.572504 -4.789063,2.896485 l -0.09375,0.162109 2.875,3.94336 2.876953,3.941406 -0.08594,0.324219 -0.08398,0.324218 0.929687,-0.703125 c 0.510836,-0.386683 1.74874,-1.113766 2.751953,-1.615234 1.003211,-0.501468 2.436649,-1.10811 3.185547,-1.347656 l 1.361328,-0.435547 0.0039,-0.154297 c 0.0049,-0.212409 -2.521984,-9.652449 -2.609375,-9.744141 z"
       transform="matrix(0.26458333,0,0,0.26458333,0,263.13333)"
       id="path965" />
    <path
       style="fill:#ffffff;fill-opacity:1;stroke-width:4.41379213"
       d="m 70.646484,68.050781 -0.261718,0.269531 c -0.145059,0.14778 -1.522186,2.001056 -3.058594,4.119141 l -2.792969,3.851563 0.710938,0.558593 c 1.141674,0.899566 3.927556,3.814639 4.65039,4.865235 l 0.666016,0.966797 4.150391,-2.689453 c 2.28305,-1.479081 4.217144,-2.749246 4.298828,-2.822266 l 0.148437,-0.132813 -1.175781,-1.580078 c -1.505155,-2.021858 -3.85599,-4.505587 -5.804688,-6.130859 z"
       transform="matrix(0.26458333,0,0,0.26458333,0,263.13333)"
       id="path961" />
    <path
       style="fill:#ffffff;fill-opacity:1;stroke-width:4.41379213"
       d="m 74.238281,68.974609 0.466797,0.529297 c 0.436702,0.495232 0.59375,0.617714 0.59375,0.466797 0,-0.03402 -0.239871,-0.27278 -0.53125,-0.529297 z"
       transform="matrix(0.26458333,0,0,0.26458333,0,263.13333)"
       id="path957" />
    <path
       style="fill:#ffffff;fill-opacity:1;stroke-width:4.41379213"
       d="m 75.972656,70.707031 0.466797,0.53125 c 0.436551,0.495232 0.591797,0.617714 0.591797,0.466797 0,-0.03402 -0.23791,-0.272742 -0.529297,-0.529297 z"
       transform="matrix(0.26458333,0,0,0.26458333,0,263.13333)"
       id="path953" />
    <path
       style="fill:#ffffff;fill-opacity:1;stroke-width:4.41379213"
       d="m 21.339844,74.65625 c -0.187586,0 -1.344814,1.527897 -2.365235,3.123047 -0.941734,1.472239 -2.486152,4.563339 -3.166015,6.335937 l -0.5625,1.464844 0.972656,0.248047 c 0.535047,0.137197 2.710957,0.8333 4.835938,1.546875 l 3.865234,1.298828 0.113281,-0.121094 c 0.06253,-0.06652 0.228124,-0.424036 0.367188,-0.794922 0.506433,-1.349631 1.989279,-4.172831 2.820312,-5.365234 0.468216,-0.671962 0.871271,-1.288662 0.894531,-1.371094 0.05002,-0.1697 -7.520472,-6.365234 -7.77539,-6.365234 z"
       transform="matrix(0.26458333,0,0,0.26458333,0,263.13333)"
       id="path937" />
    <path
       style="fill:#ffffff;fill-opacity:1;stroke-width:4.41379213"
       d="m 49.097656,75.404297 -1.378906,0.134765 c -0.757697,0.07446 -1.861806,0.232822 -2.455078,0.34961 l -1.080078,0.21289 v 0.191407 c 0,0.106204 0.296574,1.304011 0.658203,2.662109 L 45.5,81.425781 45.917969,81.320312 c 0.230097,-0.05745 1.039676,-0.163697 1.798828,-0.234374 v 0.002 l 1.380859,-0.128907 v -2.777343 z"
       transform="matrix(0.26458333,0,0,0.26458333,0,263.13333)"
       id="path933" />
    <path
       style="fill:#ffffff;fill-opacity:1;stroke-width:4.41379213"
       d="m 50.638672,75.564453 -0.002,0.845703 c -5.97e-4,0.465714 -0.05505,1.684695 -0.123047,2.708985 l -0.123047,1.863281 0.941406,0.130859 c 0.518737,0.07219 1.203589,0.200558 1.521485,0.28711 0.317631,0.08655 0.682689,0.163623 0.810546,0.173828 l 0.232422,0.01563 0.810547,-2.503906 0.808594,-2.50586 -0.107422,-0.107422 c -0.213619,-0.213543 -2.198262,-0.661426 -3.46875,-0.783203 z"
       transform="matrix(0.26458333,0,0,0.26458333,0,263.13333)"
       id="path931" />
    <path
       style="fill:#ffffff;fill-opacity:1;stroke-width:4.41379213"
       d="m 42.169922,76.775391 c -0.163087,-3.41e-4 -1.179513,0.437135 -2.257813,0.972656 l -1.960937,0.972656 1.480469,2.271485 1.478515,2.269531 1.5,-0.722657 c 0.825181,-0.398173 1.508975,-0.778099 1.519532,-0.84375 0.0098,-0.06539 -0.314978,-1.199531 -0.722657,-2.519531 l -0.740234,-2.40039 z"
       transform="matrix(0.26458333,0,0,0.26458333,0,263.13333)"
       id="path929" />
    <path
       style="fill:#ffffff;fill-opacity:1;stroke-width:4.41379213"
       d="m 57.568359,77.130859 -0.210937,0.07031 -0.208984,0.07031 -0.917969,2.400391 -0.916016,2.400391 1.466797,0.791015 c 0.807024,0.435213 1.524818,0.75899 1.595703,0.720703 0.07102,-0.04006 0.799161,-0.990106 1.619141,-2.115234 l 1.492187,-2.044922 -0.46289,-0.347656 C 60.771255,78.88455 59.890287,78.36868 59.066406,77.929688 Z"
       transform="matrix(0.26458333,0,0,0.26458333,0,263.13333)"
       id="path927" />
    <path
       style="fill:#ffffff;fill-opacity:1;stroke-width:4.41379213"
       d="m 36.539062,79.863281 -0.332031,0.177735 c -0.182585,0.09751 -0.961313,0.791901 -1.730469,1.542968 l -1.398437,1.367188 0.0625,0.183594 c 0.08904,0.262677 3.864064,3.291444 4.023437,3.228515 0.07253,-0.03024 0.657333,-0.54012 1.298829,-1.136719 l 1.166015,-1.083984 -1.544922,-2.138672 z"
       transform="matrix(0.26458333,0,0,0.26458333,0,263.13333)"
       id="path923" />
    <path
       style="fill:#ffffff;fill-opacity:1;stroke-width:4.41379213"
       d="m 63.013672,80.628906 c -0.147553,0 -2.782916,3.144026 -3.189453,3.804688 l -0.158203,0.257812 1.121093,1.214844 1.121094,1.216797 0.193359,-0.107422 c 0.106054,-0.05858 1.080015,-0.746847 2.164063,-1.53125 l 1.970703,-1.427734 -0.177734,-0.330079 c -0.244611,-0.456718 -2.840329,-3.097656 -3.044922,-3.097656 z"
       transform="matrix(0.26458333,0,0,0.26458333,0,263.13333)"
       id="path921" />
    <path
       style="fill:#ffffff;fill-opacity:1;stroke-width:4.41379213"
       d="m 31.902344,84.613281 -0.347656,0.462891 c -0.191589,0.253984 -0.707482,1.135047 -1.146485,1.958984 l -0.798828,1.498047 0.07031,0.210938 0.07031,0.208984 2.400391,0.917969 2.40039,0.916015 0.791016,-1.466797 c 0.435201,-0.807042 0.758971,-1.524799 0.720703,-1.595703 -0.04002,-0.07106 -0.990116,-0.799134 -2.115234,-1.61914 z"
       transform="matrix(0.26458333,0,0,0.26458333,0,263.13333)"
       id="path919" />
    <path
       style="fill:#ffffff;fill-opacity:1;stroke-width:4.41379213"
       d="m 67.371094,85.455078 -1.671875,1.111328 c -0.919325,0.611981 -1.938624,1.281617 -2.265625,1.488282 l -0.595703,0.376953 0.736328,1.564453 0.736328,1.566406 2.505859,-0.794922 2.50586,-0.794922 0.002,-0.289062 c 0.0014,-0.159118 -0.436609,-1.176213 -0.97461,-2.259766 z"
       transform="matrix(0.26458333,0,0,0.26458333,0,263.13333)"
       id="path917" />
    <path
       style="fill:#ffffff;fill-opacity:1;stroke-width:4.41379213"
       d="m 83.289062,86.039062 -4.765624,1.542969 -4.767579,1.541016 v 0.171875 c 0,0.09449 0.179327,0.892543 0.398438,1.773437 l 0.398437,1.601563 0.109375,2.621094 0.109375,2.61914 5.126954,0.28711 c 2.820158,0.157984 5.16212,0.301351 5.205078,0.318359 0.04301,0.01512 0.02509,-1.247637 -0.04102,-2.810547 h 0.002 l -0.121094,-2.841797 -0.302734,-1.734375 c -0.355654,-2.024239 -1.028065,-4.75606 -1.21875,-4.953125 z"
       transform="matrix(0.26458333,0,0,0.26458333,0,263.13333)"
       id="path915" />
    <path
       style="fill:#ffffff;fill-opacity:1;stroke-width:4.41379213"
       d="m 41.373047,87.949219 h 0.859375 0.857422 l 0.5,0.59375 0.498047,0.591797 v 0.421875 0.423828 L 46,91.884766 l 1.912109,1.90625 h 1.376953 1.376954 l 1.912109,-1.90625 1.912109,-1.904297 v -0.423828 -0.421875 l 0.5,-0.591797 0.498047,-0.59375 h 0.859375 0.857422 l 0.472656,0.472656 0.472657,0.472656 v 0.859375 0.859375 l -0.591797,0.498047 -0.59375,0.498047 h -0.421875 -0.421875 l -1.904297,1.912109 -1.90625,1.91211 v 1.376953 1.376953 l 1.90625,1.91406 1.904297,1.91211 h 0.421875 0.421875 l 0.59375,0.49805 0.591797,0.49805 v 0.85937 0.85938 l -0.472657,0.47265 -0.472656,0.47266 h -0.857422 -0.859375 l -0.498047,-0.59375 -0.5,-0.5918 v -0.42187 -0.42383 l -1.974609,-1.93164 -1.974609,-1.931643 -1.314454,0.0293 -1.316406,0.03125 L 46,101.74414 l -1.912109,1.9043 v 0.42187 0.42188 l -0.498047,0.59179 -0.5,0.59375 h -0.857422 -0.859375 l -0.472656,-0.47656 -0.472657,-0.47265 v -0.85938 -0.85937 l 0.59375,-0.49805 0.591797,-0.49805 h 0.421875 0.421875 l 1.90625,-1.91211 1.904297,-1.91406 v -1.376953 -1.376953 l -1.904297,-1.91211 -1.90625,-1.912109 h -0.421875 -0.421875 l -0.591797,-0.498047 -0.59375,-0.498047 v -0.859375 -0.859375 l 0.472657,-0.472656 z"
       transform="matrix(0.26458333,0,0,0.26458333,0,263.13333)"
       id="path911" />
    <path
       style="fill:#ffffff;fill-opacity:1;stroke-width:4.41379213"
       d="m 56.451172,88.306641 -0.570313,0.294921 -0.568359,0.294922 -0.119141,0.3125 c -0.06603,0.171591 -0.11914,0.500851 -0.11914,0.732422 v 0.419922 l -2.072266,2.03711 -2.070312,2.037109 -1.683594,-0.01563 -1.681641,-0.01563 -2.02539,-2.017578 -2.027344,-2.019531 v -0.421876 c 0,-0.231685 -0.0536,-0.560906 -0.119141,-0.732421 l -0.11914,-0.3125 -0.570313,-0.294922 -0.568359,-0.292969 -0.460938,0.300781 c -0.253115,0.165922 -0.553113,0.474687 -0.666015,0.685547 l -0.205078,0.382813 0.289062,0.55664 0.287109,0.556641 0.3125,0.11914 c 0.171591,0.06539 0.500866,0.119141 0.732422,0.119141 h 0.419922 l 2.037109,2.072266 2.03711,2.070312 -0.01563,1.681641 -0.01563,1.683594 -2.019531,2.025394 -2.017579,2.02734 h -0.511718 -0.511719 l -0.390625,0.33594 c -0.214602,0.18557 -0.445946,0.53423 -0.515625,0.77343 l -0.126953,0.4336 0.576172,0.57617 c 0.668111,0.66815 0.649204,0.66411 1.363281,0.29492 l -0.0078,-0.002 0.544922,-0.28125 0.119141,-0.31055 c 0.06603,-0.17159 0.119141,-0.50284 0.119141,-0.73437 v -0.41992 l 2.070312,-2.03711 2.072266,-2.037113 1.68164,0.01563 1.681641,0.01563 2.027344,2.019533 2.02539,2.01953 v 0.41992 c 0,0.23169 0.05556,0.56286 0.121094,0.73438 l 0.119141,0.31054 0.55664,0.28907 0.556641,0.28711 0.382813,-0.20508 c 0.211086,-0.11301 0.51972,-0.41275 0.685546,-0.66602 l 0.300782,-0.46094 -0.294922,-0.56836 -0.292969,-0.56836 -0.3125,-0.12109 c -0.171591,-0.0661 -0.500763,-0.11914 -0.732422,-0.11914 h -0.421875 l -2.019531,-2.02539 -2.019531,-2.027344 -0.01367,-1.68164 -0.01563,-1.681641 2.037109,-2.072266 2.035156,-2.070312 h 0.421875 c 0.23161,0 0.560892,-0.05375 0.732422,-0.119141 l 0.3125,-0.11914 0.28711,-0.556641 0.287109,-0.556641 -0.205078,-0.384765 c -0.113046,-0.210898 -0.410796,-0.517786 -0.664063,-0.683594 z"
       id="path909"
       transform="matrix(0.26458333,0,0,0.26458333,0,263.13333)" />
    <path
       style="fill:#ffffff;fill-opacity:1;stroke-width:4.41379213"
       d="m 29.076172,90.566406 -0.115234,0.117188 c -0.221103,0.221102 -0.669462,2.182829 -0.792969,3.470703 l -0.125,1.291015 1.521484,0.06641 c 0.835986,0.03401 2.055185,0.08392 2.710938,0.105469 l 1.193359,0.03906 0.125,-0.916016 c 0.06903,-0.503282 0.202787,-1.218996 0.298828,-1.589843 0.09604,-0.370772 0.175279,-0.732574 0.175781,-0.804688 6.01e-4,-0.07219 -1.121007,-0.501913 -2.49414,-0.955078 z"
       transform="matrix(0.26458333,0,0,0.26458333,0,263.13333)"
       id="path907" />
    <path
       style="fill:#ffffff;fill-opacity:1;stroke-width:4.41379213"
       d="m 69.929688,91.722656 c -0.06954,-0.04498 -1.279554,0.230591 -2.689454,0.609375 l -2.564453,0.689453 0.105469,0.417969 c 0.05752,0.230173 0.161896,1.039635 0.232422,1.798828 l 0.128906,1.38086 h 2.785156 2.783204 l -0.126954,-1.205079 c -0.194607,-1.81542 -0.51188,-3.603381 -0.654296,-3.691406 z"
       transform="matrix(0.26458333,0,0,0.26458333,0,263.13333)"
       id="path905" />
    <path
       style="fill:#ffffff;fill-opacity:1;stroke-width:4.41379213"
       d="m 13.402344,95.175781 0.115234,2.792969 0.117188,2.79297 0.291015,1.73437 c 0.08283,0.49261 0.205808,1.08838 0.337891,1.69727 a 63.999995,63.999969 0 0 0 2.529297,2.9082 c 0.812709,-0.26829 1.693616,-0.55905 3.523437,-1.15039 v -0.002 l 4.546875,-1.46875 -0.117187,-0.51172 c -0.06403,-0.2812 -0.249033,-1.07489 -0.41211,-1.76367 l -0.296875,-1.25196 -0.115234,-2.648432 -0.115234,-2.648438 -1.177735,-0.01563 c -0.647398,-0.01134 -2.98745,-0.116644 -5.201172,-0.240234 z"
       transform="matrix(0.26458333,0,0,0.26458333,0,263.13333)"
       id="path899" />
    <path
       style="fill:#ffffff;fill-opacity:1;stroke-width:4.41379213"
       d="m 27.867188,97.003906 0.128906,1.205078 c 0.160074,1.508712 0.48828,3.458306 0.61914,3.669926 l 0.09961,0.16015 0.265625,-0.10156 c 0.146067,-0.0559 1.312959,-0.37998 2.59375,-0.7207 l 2.328125,-0.61914 -0.103516,-0.41602 C 33.7413,99.952601 33.634987,99.143922 33.564453,98.384766 L 33.4375,97.003906 h -2.785156 z"
       id="path897"
       transform="matrix(0.26458333,0,0,0.26458333,0,263.13333)" />
    <path
       style="fill:#ffffff;fill-opacity:1;stroke-width:4.41379213"
       d="M 66.001953,97.988281 C 65.515116,97.976234 65.203778,97.97978 65.183594,98 c -0.04002,0.04006 -0.157227,0.591576 -0.259766,1.224609 -0.102538,0.633109 -0.246321,1.381351 -0.318359,1.664061 l -0.13086,0.51367 2.376953,0.78125 c 1.307301,0.42921 2.482968,0.78382 2.611329,0.78711 l 0.232421,0.004 0.199219,-0.73828 c 0.320934,-1.19257 0.587891,-2.73176 0.587891,-3.404299 v -0.625 l -2.613281,-0.140625 c -0.718456,-0.03855 -1.380351,-0.06608 -1.867188,-0.07813 z"
       transform="matrix(0.26458333,0,0,0.26458333,0,263.13333)"
       id="path895" />
    <path
       style="fill:#ffffff;fill-opacity:1;stroke-width:4.41379213"
       d="m 34.269531,102.0625 -2.507812,0.78516 -2.507813,0.78515 v 0.24414 c 0,0.32655 0.862973,2.26676 1.470703,3.30469 l 0.488282,0.83203 0.224609,-0.0859 c 0.123557,-0.045 1.138996,-0.68146 2.257812,-1.41015 L 35.730469,105.19141 35,103.62695 Z"
       transform="matrix(0.26458333,0,0,0.26458333,0,263.13333)"
       id="path887" />
    <path
       style="fill:#ffffff;fill-opacity:1;stroke-width:4.41379213"
       d="m 64.011719,102.85352 c -0.0098,0.0151 -0.374139,0.69995 -0.8125,1.52343 l -0.796875,1.49805 2.064453,1.5293 c 1.135926,0.84166 2.123528,1.53336 2.195312,1.53711 0.07204,0.004 0.430458,-0.49039 0.796875,-1.09961 0.955941,-1.58982 1.513938,-2.74336 1.4375,-2.97266 l -0.06641,-0.19922 -2.40039,-0.92187 c -1.32076,-0.50646 -2.409216,-0.9089 -2.417969,-0.89453 z"
       id="path885"
       transform="matrix(0.26458333,0,0,0.26458333,0,263.13333)" />
    <path
       style="fill:#ffffff;fill-opacity:1;stroke-width:4.41379213"
       d="m 73.533203,104.93555 -0.205078,0.58789 c -0.412188,1.1822 -2.046679,4.32731 -2.931641,5.64062 -0.499729,0.7417 -0.923548,1.40314 -0.941406,1.46875 -0.04002,0.14967 7.56046,6.33399 7.785156,6.33399 0.0906,0 0.499315,-0.45545 0.908204,-1.01172 1.752309,-2.38405 3.570646,-5.72139 4.660156,-8.55078 l 0.546875,-1.41797 h -0.279297 c -0.153789,0 -2.364602,-0.68656 -4.91211,-1.52539 z"
       transform="matrix(0.26458333,0,0,0.26458333,0,263.13333)"
       id="path883" />
    <path
       style="fill:#ffffff;fill-opacity:1;stroke-width:4.41379213"
       d="m 36.621094,106.47266 -2.138672,1.54492 -2.140625,1.54492 0.171875,0.32031 c 0.09455,0.17537 0.794589,0.95098 1.55664,1.72461 l 1.386719,1.40625 0.169922,-0.0586 c 0.0935,-0.0302 0.86728,-0.91835 1.71875,-1.9707 0.851365,-1.05237 1.524794,-1.97419 1.496094,-2.04688 -0.02986,-0.0726 -0.540193,-0.65733 -1.136719,-1.29883 z"
       transform="matrix(0.26458333,0,0,0.26458333,0,263.13333)"
       id="path879" />
    <path
       style="fill:#ffffff;fill-opacity:1;stroke-width:4.41379213"
       d="m 61.416016,107.25977 c -0.07253,0.0302 -0.657382,0.54012 -1.298828,1.13671 l -1.166016,1.08399 1.544922,2.13867 1.544922,2.14063 0.318359,-0.17188 c 0.175559,-0.0941 0.953003,-0.79461 1.726563,-1.55664 l 1.40625,-1.38672 -0.05859,-0.16992 c -0.08602,-0.25323 -3.86351,-3.27562 -4.017578,-3.21484 z"
       transform="matrix(0.26458333,0,0,0.26458333,0,263.13333)"
       id="path877" />
    <path
       style="fill:#ffffff;fill-opacity:1;stroke-width:4.41379213"
       d="m 40.203125,110.03906 c -0.07102,0.0401 -0.803772,0.9935 -1.626953,2.12305 l -1.496094,2.05273 0.441406,0.30469 c 0.243111,0.16743 1.105942,0.67459 1.916016,1.125 l 1.472656,0.81836 0.259766,-0.0508 0.257812,-0.0488 0.919922,-2.4043 0.917969,-2.4082 -1.466797,-0.79101 c -0.807073,-0.43522 -1.524871,-0.75896 -1.595703,-0.72071 z"
       id="path875"
       transform="matrix(0.26458333,0,0,0.26458333,0,263.13333)" />
    <path
       style="fill:#ffffff;fill-opacity:1;stroke-width:4.41379213"
       d="m 57.671875,110.37109 -1.564453,0.73047 -1.564453,0.73047 0.783203,2.50781 0.785156,2.50782 h 0.306641 c 0.168469,0 1.125724,-0.41302 2.126953,-0.91602 l 1.822266,-0.91406 -0.01953,-0.28906 c -0.0098,-0.15912 -0.619374,-1.20541 -1.349609,-2.32422 z"
       transform="matrix(0.26458333,0,0,0.26458333,0,263.13333)"
       id="path873" />
    <path
       style="fill:#ffffff;fill-opacity:1;stroke-width:4.41379213"
       d="m 28.021484,110.94531 -4.152343,2.68555 c -0.06831,0.0442 -0.06126,0.0402 -0.128907,0.084 a 63.999995,63.999969 0 0 0 8.679688,5.85938 l 1.626953,-2.23828 -0.710937,-0.56055 c -1.141827,-0.89975 -3.928008,-3.81337 -4.650391,-4.86328 z"
       transform="matrix(0.26458333,0,0,0.26458333,0,263.13333)"
       id="path871" />
    <path
       style="fill:#ffffff;fill-opacity:1;stroke-width:4.41379213"
       d="m 44.703125,112 -0.828125,2.51172 -0.830078,2.51367 0.136719,0.13672 c 0.213089,0.21316 3.028054,0.80551 3.914062,0.82422 l 0.792969,0.0156 0.138672,-2.61523 c 0.07645,-1.4381 0.108314,-2.64743 0.07031,-2.68555 -0.04002,-0.0401 -0.587609,-0.15305 -1.220703,-0.25586 -0.633041,-0.10242 -1.38103,-0.24535 -1.662109,-0.3164 z"
       transform="matrix(0.26458333,0,0,0.26458333,0,263.13333)"
       id="path869" />
    <path
       style="fill:#ffffff;fill-opacity:1;stroke-width:4.41379213"
       d="m 53.083984,112.19531 -0.421875,0.10742 c -0.231609,0.0582 -1.043586,0.16408 -1.802734,0.23438 l -1.378906,0.12695 v 2.77735 2.77734 l 1.330078,-0.13086 c 0.731388,-0.0722 1.835492,-0.23471 2.455078,-0.36133 h 0.0039 l 1.125,-0.23047 -0.02344,-0.27539 c -0.0098,-0.15193 -0.308874,-1.34483 -0.65625,-2.65039 z"
       transform="matrix(0.26458333,0,0,0.26458333,0,263.13333)"
       id="path867" />
    <path
       style="fill:#ffffff;fill-opacity:1;stroke-width:4.41379213"
       d="m 64.279297,117.45508 -0.896485,0.64258 c -1.142777,0.82027 -4.582929,2.50568 -5.984374,2.93164 -0.592275,0.18028 -1.110977,0.35179 -1.152344,0.38086 -0.04002,0.0302 0.515496,2.26596 1.236328,4.9707 l 0.335937,1.25781 A 63.999995,63.999969 0 0 0 64,128 a 63.999995,63.999969 0 0 0 3.009766,-0.15039 c 0.820458,-0.45291 1.569521,-0.88378 1.929687,-1.12891 L 70,126 l -0.05859,-0.19336 c -0.02986,-0.1062 -1.277393,-1.86882 -2.767578,-3.91797 -1.490139,-2.04914 -2.751809,-3.8852 -2.802734,-4.08008 z"
       transform="matrix(0.26458333,0,0,0.26458333,0,263.13333)"
       id="path861" />
    <path
       style="fill:#ffffff;fill-opacity:1;stroke-width:4.41379213"
       d="m 40.033203,120.45508 0.117188,0.30664 0.117187,0.30469 -0.769531,1.99804 a 63.999995,63.999969 0 0 0 9.654297,3.11328 l 0.04102,-3.93554 h -1.27539 l -1.275391,0.002 -1.710937,-0.29687 c -1.918534,-0.3326 -4.28042,-0.98993 -4.652344,-1.29297 z"
       transform="matrix(0.26458333,0,0,0.26458333,0,263.13333)"
       id="path857" />
    <text
       xml:space="preserve"
       style="font-style:normal;font-weight:normal;font-size:10.58333302px;line-height:1.25;font-family:sans-serif;letter-spacing:0px;word-spacing:0px;fill:#000000;fill-opacity:1;stroke:none;stroke-width:0.26458332"
       x="4.2333331"
       y="287.47501"
       id="text4535"><tspan
         sodipodi:role="line"
         id="tspan4533"
         x="4.2333331"
         y="297.13049"
         style="stroke-width:0.26458332" /></text>
  </g>
</svg>
