<?xml version="1.0" encoding="UTF-8" standalone="no"?>
<!-- Created with Inkscape (http://www.inkscape.org/) -->

<svg
   xmlns:dc="http://purl.org/dc/elements/1.1/"
   xmlns:cc="http://creativecommons.org/ns#"
   xmlns:rdf="http://www.w3.org/1999/02/22-rdf-syntax-ns#"
   xmlns:svg="http://www.w3.org/2000/svg"
   xmlns="http://www.w3.org/2000/svg"
   xmlns:sodipodi="http://sodipodi.sourceforge.net/DTD/sodipodi-0.dtd"
   xmlns:inkscape="http://www.inkscape.org/namespaces/inkscape"
   id="svg8"
   version="1.1"
   viewBox="0 0 33.866667 33.866667"
   height="128"
   width="128"
   inkscape:version="0.92.4 (5da689c313, 2019-01-14)"
   sodipodi:docname="EvoIconCrossover.svg"
   inkscape:export-filename="D:\Dysk Google\Studia III stopnia\Projekty i prace własne\BIM\IN PROG_Optio\_EVO Icons\EvoIconCrossover.png"
   inkscape:export-xdpi="96"
   inkscape:export-ydpi="96"
   style="shape-rendering:crispEdges">
  <defs
     id="defs2" />
  <sodipodi:namedview
     id="base"
     pagecolor="#ffffff"
     bordercolor="#666666"
     borderopacity="1.0"
     inkscape:pageopacity="0.0"
     inkscape:pageshadow="2"
     inkscape:zoom="6.6250001"
     inkscape:cx="53.510473"
     inkscape:cy="60.690251"
     inkscape:document-units="mm"
     inkscape:current-layer="layer1"
     showgrid="true"
     units="px"
     inkscape:snap-grids="true"
     inkscape:snap-page="true"
     inkscape:window-width="1920"
     inkscape:window-height="1017"
     inkscape:window-x="-8"
     inkscape:window-y="-8"
     inkscape:window-maximized="1"
     inkscape:pagecheckerboard="true">
    <inkscape:grid
       type="xygrid"
       id="grid3713" />
  </sodipodi:namedview>
  <metadata
     id="metadata5">
    <rdf:RDF>
      <cc:Work
         rdf:about="">
        <dc:format>image/svg+xml</dc:format>
        <dc:type
           rdf:resource="http://purl.org/dc/dcmitype/StillImage" />
        <dc:title />
      </cc:Work>
    </rdf:RDF>
  </metadata>
  <g
     inkscape:label="Layer 1"
     inkscape:groupmode="layer"
     id="layer1"
     transform="translate(0,-263.13333)">
    <path
       style="fill:#fffffe;fill-opacity:1;stroke-width:1.1678158"
       d="m 16.933333,263.13333 a 16.93333,16.933323 0 0 0 -8.3199052,2.20968 c 0.029438,0.162 0.068411,0.53 0.1240234,1.19476 0.064982,0.70016 0.097152,1.1245 0.097152,1.27538 0,0.1268 -0.059611,0.19017 -0.1777669,0.19017 -0.03544,0 -0.097419,-0.002 -0.1860352,-0.008 -1.1733061,-0.0992 -2.2270807,-0.1505 -3.2225421,-0.1757 a 16.93333,16.933323 0 0 0 -1.4903485,1.63297 c 0.013679,0.024 0.019381,0.0631 0.03514,0.0811 0.1004303,0.1148 0.2931399,0.17312 0.5767089,0.17312 0.059076,0 0.1738762,-0.004 0.3451984,-0.0119 0.1713241,-0.012 0.3115001,-0.0196 0.4237469,-0.0196 0.7443687,0 1.4992686,-0.02 2.2613606,-0.062 l 0.4857586,-0.046 c 0.2008582,-0.024 0.3614039,-0.0357 0.4795573,-0.0357 0.1343853,0 0.20329,0.0649 0.2103229,0.18965 -0.011843,0.0213 -0.063907,0.48886 -0.1565797,1.40405 -0.047258,0.48288 -0.072347,0.96612 -0.072347,1.449 0,0.1208 -0.084991,0.18191 -0.2563151,0.18191 l -0.7978841,-0.091 c -0.33674,-0.036 -1.1034406,-0.0532 -2.3027018,-0.0532 h -0.940511 c -0.2422162,0 -0.3844599,0.059 -0.425814,0.17983 -0.00592,0.032 -0.00827,0.2184 -0.00827,0.56224 0,0.45872 0.029799,0.75397 0.088884,0.88677 0.1004321,0.2292 0.4790625,0.36481 1.1348143,0.40721 h 1.2939781 c 0.3131063,0 0.7767298,-0.0283 1.3911294,-0.0811 0.6203077,-0.0604 1.0839315,-0.0904 1.3911294,-0.0904 0.1299681,0 0.1943034,0.109 0.1943036,0.3266 0,0.2596 -0.050463,0.73628 -0.1508953,1.4304 -0.10634,0.75452 -0.2004787,1.20288 -0.283187,1.34772 -0.07089,0.1148 -0.167391,0.17364 -0.2914549,0.17364 -0.053168,0 -0.1425879,-0.0119 -0.2666503,-0.0279 -0.4312613,-0.0604 -1.6890322,-0.0889 -3.7744468,-0.0889 -0.4548902,0 -1.1318814,-0.004 -2.0298501,-0.0119 -0.8979688,-0.008 -1.57259766,-0.008 -2.02158202,-0.008 -0.039548,0 -0.0573583,-0.0199 -0.0888835,-0.0279 A 16.93333,16.933323 0 0 0 -1.3433333e-6,280.06666 16.93333,16.933323 0 0 0 3.6623075,290.55491 c 0.08577,-7.8e-4 0.1229944,-0.002 0.2160074,-0.003 2.3352487,-0.0244 2.3351426,-0.0243 2.5946737,-0.16795 0.2031162,-0.11241 1.1684209,-1.08778 4.4410734,-4.48603 3.930786,-4.08163 4.201266,-4.35137 4.507218,-4.50205 0.325474,-0.1603 0.325451,-0.16063 2.356962,-0.1757 2.031509,-0.015 2.031329,-0.0151 2.04432,-1.23662 0.0089,-0.83798 0.02978,-1.22691 0.06666,-1.2392 0.0429,-0.0142 4.003301,3.32796 4.373894,3.69125 0.09708,0.0951 0.09644,0.096 -0.200505,0.37672 -0.602928,0.57018 -4.125543,3.55697 -4.175456,3.54035 -0.03413,-0.0114 -0.05599,-0.43974 -0.06459,-1.26555 -0.01298,-1.24873 -0.01264,-1.24902 -1.413867,-1.24902 -1.556258,0 -1.722562,0.0242 -2.119251,0.30489 -0.122464,0.0867 -1.496222,1.48171 -3.053043,3.10058 -5.1501216,5.35535 -5.4165287,5.62401 -5.7247162,5.77536 -0.1942716,0.0954 -0.302946,0.12274 -1.30483,0.13539 A 16.93333,16.933323 0 0 0 16.933333,297 16.93333,16.933323 0 0 0 33.866667,280.06666 16.93333,16.933323 0 0 0 16.933333,263.13333 Z m 7.07347,5.42189 c 1.335137,0 2.416134,0.42859 3.243214,1.28571 0.827074,0.85108 1.240234,1.95967 1.240234,3.32383 0,1.3762 -0.41316,2.49151 -1.240234,3.34863 -0.821173,0.85708 -1.90217,1.28571 -3.243214,1.28571 -1.299692,0 -2.369181,-0.42206 -3.208072,-1.2671 -0.838893,-0.84504 -1.258838,-1.93183 -1.258838,-3.25975 0,-1.40036 0.401649,-2.53529 1.205094,-3.40445 0.803447,-0.87524 1.891232,-1.31258 3.261816,-1.31258 z m -13.781071,0.44442 c 0.301291,0 0.753406,0.008 1.35599,0.0279 0.608491,0.02 1.062965,0.0279 1.364258,0.0279 0.135875,0 0.204639,0.0944 0.204639,0.28164 0,0.1692 -0.01154,0.4249 -0.03514,0.76894 -0.02364,0.338 -0.03514,0.59597 -0.03514,0.77101 0,0.62776 0.01624,1.13949 0.05168,1.53789 0.01772,0.2052 0.189772,0.59222 0.514697,1.15962 0.33674,0.59756 0.582272,0.89711 0.735873,0.89711 0.147692,0 0.384077,-0.29318 0.709,-0.8785 0.313108,-0.54928 0.480734,-0.92326 0.504362,-1.12242 0.04726,-0.42856 0.07028,-0.94892 0.07028,-1.55856 0,-0.1752 -0.01624,-0.43747 -0.05168,-0.78755 -0.03544,-0.356 -0.05374,-0.6185 -0.05374,-0.78754 0,-0.1872 0.06198,-0.28164 0.186036,-0.28164 0.141784,0 0.350724,0.004 0.628385,0.0124 0.283572,0.008 0.496937,0.008 0.638721,0.008 0.141782,0 0.35515,-0.0122 0.63872,-0.0362 0.289477,-0.024 0.505206,-0.0357 0.646989,-0.0357 0.147692,0 0.244191,0.0789 0.291455,0.23565 0.100436,0.344 0.150895,1.04385 0.150896,2.10013 0,1.03216 -0.03215,1.64222 -0.09715,1.82934 -0.135876,0.42856 -0.544314,1.15463 -1.223698,2.18075 -0.590769,0.88128 -1.095709,1.57003 -1.515153,2.06499 -0.1536,0.1872 -0.617221,0.28112 -1.39113,0.28112 -0.673476,0 -1.109651,-0.0239 -1.310514,-0.0723 -0.12406,-0.032 -0.227354,-0.0911 -0.310058,-0.1819 -0.354469,-0.3924 -0.859399,-1.0751 -1.515154,-2.0469 -0.703012,-1.0442 -1.122961,-1.75929 -1.258838,-2.14561 -0.1476919,-0.41648 -0.2211743,-1.03979 -0.2211749,-1.87275 0,-0.2356 0.00236,-0.5896 0.00827,-1.0604 0.00592,-0.47684 0.00827,-0.83498 0.00827,-1.07642 0,-0.1568 0.1032869,-0.23565 0.3100589,-0.23565 z m -5.6802729,12.22251 c 2.9815051,0.0136 2.9813988,0.0135 3.2912719,0.15658 0.279055,0.12881 0.4410006,0.27906 1.6257405,1.50843 1.4839615,1.53987 1.5679445,1.65934 1.5626955,2.2164 -0.0092,0.98251 -1.007482,1.56615 -1.9089277,1.1157 v -5.2e-4 c -0.2510068,-0.12542 -0.4282165,-0.2881 -1.0970905,-1.00924 -0.9910387,-1.06849 -1.0216163,-1.0974 -1.3192993,-1.23455 -0.2412802,-0.11122 -0.26318,-0.11226 -2.7000935,-0.13642 -2.4568722,-0.0243 -2.4566574,-0.0244 -2.7274822,-0.15142 -0.51686455,-0.24241 -0.77613251,-0.64556 -0.77514654,-1.20716 6.3201e-4,-0.51219 0.41791321,-1.0965 0.86919764,-1.21801 0.135315,-0.0365 1.1350961,-0.0492 3.1791342,-0.0398 z m 8.8924799,6.75256 c 0.541962,0 0.669616,0.0893 1.79679,1.26039 0.707105,0.73457 1.064652,1.07005 1.240234,1.16272 0.246777,0.13022 0.246954,0.13051 1.791622,0.14521 1.544667,0.0147 1.544609,0.0148 1.544609,-1.20406 0,-1.16291 0.0042,-1.21905 0.09198,-1.21905 0.101279,0 4.399763,3.65814 4.422986,3.76411 0.008,0.0362 -0.799971,0.7626 -1.800407,1.61902 -2.881686,2.46685 -2.609571,2.24647 -2.682007,2.17403 -0.01783,-0.0178 -0.03256,-0.58595 -0.03256,-1.26245 0,-1.23004 2.91e-4,-1.23026 -2.030884,-1.24489 -2.031179,-0.0147 -2.031417,-0.0143 -2.348177,-0.16433 -0.282562,-0.1339 -0.463758,-0.30065 -1.67845,-1.54306 -0.786531,-0.80446 -1.408449,-1.48125 -1.472262,-1.60249 -0.455417,-0.8653 0.17014,-1.88515 1.156518,-1.88515 z"
       id="path1020"
       inkscape:connector-curvature="0" />
    <path
       style="fill:#fffffe;fill-opacity:1;stroke-width:4.41379213"
       d="m 90.796875,31.070312 c -1.763936,0 -3.212817,0.70304 -4.351563,2.117188 -1.071753,1.322835 -1.609374,2.901504 -1.609374,4.726562 0,1.847887 0.537614,3.434525 1.609374,4.757813 1.138742,1.413543 2.587627,2.117187 4.351563,2.117187 1.741606,0 3.181567,-0.703039 4.320313,-2.117187 1.049423,-1.322835 1.578124,-2.909926 1.578124,-4.757813 0,-1.802229 -0.546534,-3.389018 -1.640624,-4.757812 -1.094083,-1.390866 -2.516207,-2.085938 -4.257813,-2.085938 z"
       transform="matrix(0.26458333,0,0,0.26458333,0,263.13333)"
       id="path1014" />
    <path
       style="fill:#fffffe;fill-opacity:0;stroke-width:4.41379213"
       d="m 75.53125,59.869141 c -0.0531,0 -0.117394,2.006524 -0.144531,4.458984 -0.04921,4.459049 -0.05026,4.458863 -7.957031,4.550781 -7.906742,0.09222 -7.906804,0.09168 -8.929688,0.59375 -0.885562,0.43491 -3.157307,2.71941 -16.923828,17.009766 -14.076254,14.611838 -16.026059,16.568328 -16.996094,17.056638 -1.095813,0.55166 -1.095738,0.55258 -9.921875,0.64453 -0.171463,0.002 -0.235501,0.002 -0.400391,0.004 a 63.999995,63.999969 0 0 0 8.587891,8.74219 c 4.553236,-0.0467 4.749983,-0.15189 5.496094,-0.56446 0.788691,-0.4363 4.277647,-3.95349 16.685547,-16.824214 8.62837,-8.950262 15.98876,-16.466943 16.355468,-16.703125 1.413929,-0.910678 1.74597,-0.949219 8.09375,-0.949219 5.952911,0 5.953125,8.51e-4 5.953126,4.505859 0,2.477745 0.04239,4.503907 0.09375,4.503907 0.08852,0 13.220507,-11.240547 14.984374,-12.826172 0.455101,-0.409172 0.784942,-0.78112 0.734376,-0.826172 C 89.785199,71.948128 75.598518,59.869141 75.53125,59.869141 Z"
       transform="matrix(0.26458333,0,0,0.26458333,0,263.13333)"
       id="path1012" />
    <text
       xml:space="preserve"
       style="font-style:normal;font-weight:normal;font-size:10.58333302px;line-height:1.25;font-family:sans-serif;letter-spacing:0px;word-spacing:0px;fill:#000000;fill-opacity:1;stroke:none;stroke-width:0.26458332"
       x="4.2333331"
       y="287.47501"
       id="text4535"><tspan
         sodipodi:role="line"
         id="tspan4533"
         x="4.2333331"
         y="297.13049"
         style="stroke-width:0.26458332" /></text>
    <path
       style="fill:#ffffff;fill-opacity:0;opacity:1;"
       d="m 21.478585,295.16326 c -0.0018,-0.15587 -0.0073,-0.70422 -0.0122,-1.21855 -0.0049,-0.51432 -0.0272,-0.95342 -0.04952,-0.97578 -0.02232,-0.0224 -0.977368,-0.0516 -2.122325,-0.065 l -2.081739,-0.0244 -0.263898,-0.14615 c -0.333424,-0.18465 -2.89612,-2.78829 -3.072055,-3.12114 -0.137754,-0.26062 -0.157636,-0.73054 -0.04254,-1.00531 0.101623,-0.24259 0.356094,-0.51928 0.592891,-0.64465 0.279857,-0.14817 0.849839,-0.14922 1.126768,-0.002 0.110088,0.0585 0.631133,0.55604 1.195333,1.14142 1.289584,1.338 1.264566,1.32429 2.471363,1.35418 0.461825,0.0114 1.159147,0.005 1.549603,-0.0147 l 0.709919,-0.0355 0.01302,-1.22044 0.01302,-1.22044 2.122325,1.81692 c 1.167278,0.9993 2.150841,1.84353 2.185694,1.87605 0.05079,0.0474 -0.360897,0.42206 -2.073535,1.88709 -1.175298,1.00537 -2.164349,1.84459 -2.197892,1.86493 -0.04591,0.0278 -0.06179,-0.0331 -0.06425,-0.24643 z M 3.0392626,292.90824 C 2.6994902,292.8017 2.400847,292.5483 2.229111,292.22084 c -0.1315121,-0.25076 -0.1227937,-0.79021 0.017054,-1.05522 0.1447881,-0.27437 0.5025876,-0.57892 0.756331,-0.64377 0.1290444,-0.033 1.0531879,-0.0602 2.4375491,-0.0718 l 2.2297053,-0.0187 0.3159482,-0.15554 c 0.2931253,-0.14431 0.6196056,-0.47077 4.5195164,-4.5193 3.673123,-3.8131 4.238446,-4.38089 4.479973,-4.49949 l 0.276405,-0.13574 2.09793,-0.0244 2.09793,-0.0244 0.01025,-1.21371 c 0.0056,-0.66754 0.0196,-1.22307 0.03104,-1.2345 0.01665,-0.0166 4.007097,3.36961 4.276547,3.62905 0.09361,0.0901 0.0839,0.0992 -2.36627,2.20038 l -1.902774,1.63178 -0.01302,-1.25265 -0.01303,-1.25265 -1.597013,0.0147 -1.597014,0.0147 -0.305389,0.17076 c -0.26096,0.14592 -0.908951,0.79727 -4.453906,4.47699 -2.281684,2.36842 -4.2299918,4.35717 -4.3295728,4.41945 -0.4072838,0.25469 -0.3339612,0.24888 -3.2791618,0.25969 -1.5161204,0.006 -2.8116124,-0.007 -2.8788711,-0.0282 z m 7.8496134,-6.85339 c -0.340925,-0.12183 -0.537115,-0.28889 -1.2576353,-1.07092 -0.9404187,-1.02071 -1.0547476,-1.12785 -1.346837,-1.26217 -0.2418113,-0.11121 -0.2654975,-0.1124 -2.7077935,-0.13658 -2.4429706,-0.0242 -2.4659153,-0.0254 -2.7077935,-0.13667 -0.2932483,-0.13497 -0.5327355,-0.35522 -0.6736761,-0.61956 -0.1464574,-0.2747 -0.1453698,-0.79991 0.00224,-1.07962 0.1620825,-0.30714 0.5099785,-0.58801 0.809491,-0.65353 0.1766443,-0.0386 1.1151334,-0.0504 3.1308173,-0.0392 l 2.8785553,0.016 0.3106424,0.1434 c 0.2798107,0.12916 0.4415099,0.27927 1.6291714,1.51246 1.458964,1.51488 1.547298,1.63769 1.548128,2.15231 0.0014,0.84184 -0.837951,1.45193 -1.615306,1.17414 z"
       id="path48"
       inkscape:connector-curvature="0" />
    <path
       style="opacity:1;fill:#000000;fill-opacity:0;stroke-width:0.15094341"
       d="M 42.415205,89.824137 C 41.189863,89.510625 40.438776,88.957734 38.499674,86.941835 34.650594,82.940313 33.035181,81.383267 32.392665,81.05548 31.519717,80.610135 29.817021,80.459224 25.51854,80.446223 18.962384,80.426392 12.764551,80.18825 11.892839,79.922675 10.708795,79.561945 9.4051897,78.24243 9.0601008,77.055367 8.4890868,75.091148 9.2987507,73.078568 11.081618,72.030488 l 0.701072,-0.412134 9.584906,-0.04427 c 9.587875,-0.04429 13.684888,0.07701 14.358393,0.42509 0.919512,0.475224 2.22686,1.677614 5.244109,4.823097 6.090067,6.348895 6.522704,6.917688 6.530683,8.585954 0.0063,1.308448 -0.242032,2.013223 -1.01029,2.867709 -1.092833,1.215494 -2.816435,1.870293 -4.075286,1.548205 z"
       id="path2642"
       inkscape:connector-curvature="0"
       transform="matrix(0.26458333,0,0,0.26458333,0,263.13333)" />
    <path
       style="opacity:1;fill:#000000;fill-opacity:0;stroke-width:0.15094341"
       d="M 42.415205,89.824137 C 41.189863,89.510625 40.438776,88.957734 38.499674,86.941835 34.650594,82.940313 33.035181,81.383267 32.392665,81.05548 31.519717,80.610135 29.817021,80.459224 25.51854,80.446223 18.962384,80.426392 12.764551,80.18825 11.892839,79.922675 10.708795,79.561945 9.4051897,78.24243 9.0601008,77.055367 8.4890868,75.091148 9.2987507,73.078568 11.081618,72.030488 l 0.701072,-0.412134 9.584906,-0.04427 c 9.587875,-0.04429 13.684888,0.07701 14.358393,0.42509 0.919512,0.475224 2.22686,1.677614 5.244109,4.823097 6.090067,6.348895 6.522704,6.917688 6.530683,8.585954 0.0063,1.308448 -0.242032,2.013223 -1.01029,2.867709 -1.092833,1.215494 -2.816435,1.870293 -4.075286,1.548205 z"
       id="path2644"
       inkscape:connector-curvature="0"
       transform="matrix(0.26458333,0,0,0.26458333,0,263.13333)" />
    <path
       style="opacity:1;fill:#000000;fill-opacity:0;stroke-width:0.15094341"
       d="M 42.415205,89.824137 C 41.189863,89.510625 40.438776,88.957734 38.499674,86.941835 34.650594,82.940313 33.035181,81.383267 32.392665,81.05548 31.519717,80.610135 29.817021,80.459224 25.51854,80.446223 18.962384,80.426392 12.764551,80.18825 11.892839,79.922675 10.708795,79.561945 9.4051897,78.24243 9.0601008,77.055367 8.4890868,75.091148 9.2987507,73.078568 11.081618,72.030488 l 0.701072,-0.412134 9.584906,-0.04427 c 9.587875,-0.04429 13.684888,0.07701 14.358393,0.42509 0.919512,0.475224 2.22686,1.677614 5.244109,4.823097 6.090067,6.348895 6.522704,6.917688 6.530683,8.585954 0.0063,1.308448 -0.242032,2.013223 -1.01029,2.867709 -1.092833,1.215494 -2.816435,1.870293 -4.075286,1.548205 z"
       id="path2646"
       inkscape:connector-curvature="0"
       transform="matrix(0.26458333,0,0,0.26458333,0,263.13333)" />
    <path
       style="opacity:1;fill:#000000;fill-opacity:0;stroke-width:0.15094341"
       d="M 42.415205,89.824137 C 41.189863,89.510625 40.438776,88.957734 38.499674,86.941835 34.650594,82.940313 33.035181,81.383267 32.392665,81.05548 31.519717,80.610135 29.817021,80.459224 25.51854,80.446223 18.962384,80.426392 12.764551,80.18825 11.892839,79.922675 10.708795,79.561945 9.4051897,78.24243 9.0601008,77.055367 8.4890868,75.091148 9.2987507,73.078568 11.081618,72.030488 l 0.701072,-0.412134 9.584906,-0.04427 c 9.587875,-0.04429 13.684888,0.07701 14.358393,0.42509 0.919512,0.475224 2.22686,1.677614 5.244109,4.823097 6.090067,6.348895 6.522704,6.917688 6.530683,8.585954 0.0063,1.308448 -0.242032,2.013223 -1.01029,2.867709 -1.092833,1.215494 -2.816435,1.870293 -4.075286,1.548205 z"
       id="path2648"
       inkscape:connector-curvature="0"
       transform="matrix(0.26458333,0,0,0.26458333,0,263.13333)" />
    <path
       style="opacity:1;fill:#000000;fill-opacity:0;stroke-width:0.15094341"
       d="M 42.415205,89.824137 C 41.189863,89.510625 40.438776,88.957734 38.499674,86.941835 34.650594,82.940313 33.035181,81.383267 32.392665,81.05548 31.519717,80.610135 29.817021,80.459224 25.51854,80.446223 18.962384,80.426392 12.764551,80.18825 11.892839,79.922675 10.708795,79.561945 9.4051897,78.24243 9.0601008,77.055367 8.4890868,75.091148 9.2987507,73.078568 11.081618,72.030488 l 0.701072,-0.412134 9.584906,-0.04427 c 9.587875,-0.04429 13.684888,0.07701 14.358393,0.42509 0.919512,0.475224 2.22686,1.677614 5.244109,4.823097 6.090067,6.348895 6.522704,6.917688 6.530683,8.585954 0.0063,1.308448 -0.242032,2.013223 -1.01029,2.867709 -1.092833,1.215494 -2.816435,1.870293 -4.075286,1.548205 z"
       id="path2650"
       inkscape:connector-curvature="0"
       transform="matrix(0.26458333,0,0,0.26458333,0,263.13333)" />
    <path
       style="opacity:1;fill:#000000;fill-opacity:0;stroke-width:0.15094341"
       d="M 42.415205,89.824137 C 41.189863,89.510625 40.438776,88.957734 38.499674,86.941835 34.650594,82.940313 33.035181,81.383267 32.392665,81.05548 31.519717,80.610135 29.817021,80.459224 25.51854,80.446223 18.962384,80.426392 12.764551,80.18825 11.892839,79.922675 10.708795,79.561945 9.4051897,78.24243 9.0601008,77.055367 8.4890868,75.091148 9.2987507,73.078568 11.081618,72.030488 l 0.701072,-0.412134 9.584906,-0.04427 c 9.587875,-0.04429 13.684888,0.07701 14.358393,0.42509 0.919512,0.475224 2.22686,1.677614 5.244109,4.823097 6.090067,6.348895 6.522704,6.917688 6.530683,8.585954 0.0063,1.308448 -0.242032,2.013223 -1.01029,2.867709 -1.092833,1.215494 -2.816435,1.870293 -4.075286,1.548205 z"
       id="path2652"
       inkscape:connector-curvature="0"
       transform="matrix(0.26458333,0,0,0.26458333,0,263.13333)" />
    <path
       style="opacity:1;fill:#000000;fill-opacity:0;stroke-width:0.15094341"
       d="M 42.415205,89.824137 C 41.189863,89.510625 40.438776,88.957734 38.499674,86.941835 34.650594,82.940313 33.035181,81.383267 32.392665,81.05548 31.519717,80.610135 29.817021,80.459224 25.51854,80.446223 18.962384,80.426392 12.764551,80.18825 11.892839,79.922675 10.708795,79.561945 9.4051897,78.24243 9.0601008,77.055367 8.4890868,75.091148 9.2987507,73.078568 11.081618,72.030488 l 0.701072,-0.412134 9.584906,-0.04427 c 9.587875,-0.04429 13.684888,0.07701 14.358393,0.42509 0.919512,0.475224 2.22686,1.677614 5.244109,4.823097 6.090067,6.348895 6.522704,6.917688 6.530683,8.585954 0.0063,1.308448 -0.242032,2.013223 -1.01029,2.867709 -1.092833,1.215494 -2.816435,1.870293 -4.075286,1.548205 z"
       id="path2654"
       inkscape:connector-curvature="0"
       transform="matrix(0.26458333,0,0,0.26458333,0,263.13333)" />
    <path
       style="opacity:1;fill:#000000;fill-opacity:0;stroke-width:0.15094341"
       d="m 11.933633,115.30218 c -0.249056,-0.0759 -0.767671,-0.37043 -1.152477,-0.65452 -1.5098802,-1.11466 -2.0869568,-3.42587 -1.2840143,-5.14251 0.3891942,-0.83207 1.5080373,-1.95133 2.2569273,-2.25776 0.264798,-0.10835 1.385473,-0.2454 2.490388,-0.30455 l 2.008937,-0.10755 2.745781,2.69579 c 1.510179,1.48268 3.628799,3.40035 4.708044,4.26149 1.079246,0.86113 1.990567,1.59026 2.025158,1.62027 0.143387,0.12442 -13.383331,0.016 -13.798744,-0.11066 z"
       id="path2656"
       inkscape:connector-curvature="0"
       transform="matrix(0.26458333,0,0,0.26458333,0,263.13333)" />
    <path
       style="opacity:1;fill:#000000;fill-opacity:0;stroke-width:0.15094341"
       d="m 11.933633,115.30218 c -0.249056,-0.0759 -0.767671,-0.37043 -1.152477,-0.65452 -1.5098802,-1.11466 -2.0869568,-3.42587 -1.2840143,-5.14251 0.3891942,-0.83207 1.5080373,-1.95133 2.2569273,-2.25776 0.264798,-0.10835 1.385473,-0.2454 2.490388,-0.30455 l 2.008937,-0.10755 2.745781,2.69579 c 1.510179,1.48268 3.628799,3.40035 4.708044,4.26149 1.079246,0.86113 1.990567,1.59026 2.025158,1.62027 0.143387,0.12442 -13.383331,0.016 -13.798744,-0.11066 z"
       id="path2658"
       inkscape:connector-curvature="0"
       transform="matrix(0.26458333,0,0,0.26458333,0,263.13333)" />
  </g>
</svg>
