<?xml version="1.0" encoding="UTF-8" standalone="no"?>
<!-- Created with Inkscape (http://www.inkscape.org/) -->

<svg
   xmlns:dc="http://purl.org/dc/elements/1.1/"
   xmlns:cc="http://creativecommons.org/ns#"
   xmlns:rdf="http://www.w3.org/1999/02/22-rdf-syntax-ns#"
   xmlns:svg="http://www.w3.org/2000/svg"
   xmlns="http://www.w3.org/2000/svg"
   xmlns:sodipodi="http://sodipodi.sourceforge.net/DTD/sodipodi-0.dtd"
   xmlns:inkscape="http://www.inkscape.org/namespaces/inkscape"
   id="svg8"
   version="1.1"
   viewBox="0 0 33.866667 33.866667"
   height="128"
   width="128"
   inkscape:version="0.92.4 (5da689c313, 2019-01-14)"
   sodipodi:docname="EvoIconPopulationStrategy.svg"
   inkscape:export-filename="D:\Dysk Google\Studia III stopnia\Projekty i prace własne\BIM\IN PROG_Optio\_EVO Icons\EvoIconPopulationStrategy.png"
   inkscape:export-xdpi="96"
   inkscape:export-ydpi="96"
   style="shape-rendering:crispEdges">
  <defs
     id="defs2" />
  <sodipodi:namedview
     id="base"
     pagecolor="#ffffff"
     bordercolor="#666666"
     borderopacity="1.0"
     inkscape:pageopacity="0.0"
     inkscape:pageshadow="2"
     inkscape:zoom="6.6250001"
     inkscape:cx="63.999999"
     inkscape:cy="64.09961"
     inkscape:document-units="mm"
     inkscape:current-layer="layer1"
     showgrid="true"
     units="px"
     inkscape:snap-grids="false"
     inkscape:snap-page="true"
     inkscape:window-width="1920"
     inkscape:window-height="1017"
     inkscape:window-x="-8"
     inkscape:window-y="-8"
     inkscape:window-maximized="1"
     inkscape:pagecheckerboard="true">
    <inkscape:grid
       type="xygrid"
       id="grid3713" />
  </sodipodi:namedview>
  <metadata
     id="metadata5">
    <rdf:RDF>
      <cc:Work
         rdf:about="">
        <dc:format>image/svg+xml</dc:format>
        <dc:type
           rdf:resource="http://purl.org/dc/dcmitype/StillImage" />
        <dc:title></dc:title>
      </cc:Work>
    </rdf:RDF>
  </metadata>
  <g
     inkscape:label="Layer 1"
     inkscape:groupmode="layer"
     id="layer1"
     transform="translate(0,-263.13333)">
    <path
       style="fill:#ffffff;fill-opacity:1;stroke-width:4.41379213"
       d="M 64 -0.099609375 A 63.999993 63.999967 0 0 0 32.554688 8.2519531 C 32.665955 8.8642366 32.81325 10.255099 33.023438 12.767578 C 33.269044 15.413852 33.390625 17.017636 33.390625 17.587891 C 33.390625 18.067135 33.165324 18.306641 32.71875 18.306641 C 32.584804 18.306641 32.350552 18.300044 32.015625 18.277344 C 27.581083 17.902415 23.598316 17.708525 19.835938 17.613281 A 63.999993 63.999967 0 0 0 14.203125 23.785156 C 14.254825 23.875866 14.276375 24.021812 14.335938 24.089844 C 14.715521 24.523734 15.443868 24.746094 16.515625 24.746094 C 16.738904 24.746094 17.172791 24.731402 17.820312 24.701172 C 18.467836 24.655822 18.997635 24.625 19.421875 24.625 C 22.235237 24.625 25.088402 24.54937 27.96875 24.390625 L 29.804688 24.21875 C 30.563841 24.12804 31.170624 24.082031 31.617188 24.082031 C 32.125105 24.082031 32.385528 24.329281 32.412109 24.800781 C 32.367349 24.881321 32.170571 26.648451 31.820312 30.107422 C 31.641694 31.93248 31.546875 33.758926 31.546875 35.583984 C 31.546875 36.040551 31.225649 36.271484 30.578125 36.271484 L 27.5625 35.927734 C 26.289782 35.791671 23.392016 35.724609 18.859375 35.724609 L 15.304688 35.724609 C 14.389225 35.724609 13.85161 35.949683 13.695312 36.40625 C 13.672944 36.527195 13.664062 37.231697 13.664062 38.53125 C 13.664062 40.264995 13.77669 41.380893 14 41.882812 C 14.379586 42.74908 15.810626 43.261623 18.289062 43.421875 L 23.179688 43.421875 C 24.363086 43.421875 26.11536 43.314793 28.4375 43.115234 C 30.78197 42.886951 32.534245 42.773438 33.695312 42.773438 C 34.18653 42.773438 34.429687 43.185389 34.429688 44.007812 C 34.429688 44.988978 34.238961 46.790619 33.859375 49.414062 C 33.45746 52.265792 33.10166 53.960388 32.789062 54.507812 C 32.521126 54.941702 32.156403 55.164063 31.6875 55.164062 C 31.48655 55.164062 31.148589 55.119062 30.679688 55.058594 C 29.049724 54.83031 24.295944 54.722656 16.414062 54.722656 C 14.694788 54.722656 12.136085 54.707964 8.7421875 54.677734 C 5.3482901 54.647494 2.7985113 54.646484 1.1015625 54.646484 C 0.95208974 54.646484 0.88477536 54.571254 0.765625 54.541016 A 63.999993 63.999967 0 0 0 0 63.900391 A 63.999993 63.999967 0 0 0 4.4824219 87.259766 C 4.903376 86.824953 5.2741663 86.460565 5.7832031 85.908203 C 7.9932214 83.510093 11.072319 82.242188 14.685547 82.242188 C 16.108259 82.242188 16.416851 82.126335 18.345703 80.867188 C 21.619942 78.729638 23.811141 77.885721 26.478516 77.738281 C 29.405242 77.576517 32.333805 78.138929 36.339844 79.630859 C 38.142863 80.30233 38.949817 80.527083 39.59375 80.539062 C 40.406821 80.554182 41.560547 80.267159 41.560547 80.050781 C 41.560547 79.995221 41.239469 79.888469 40.845703 79.8125 C 40.451937 79.73653 40.100544 79.596756 40.064453 79.5 C 40.028553 79.40324 40.309078 79.154749 40.689453 78.949219 C 41.477866 78.52285 41.955497 77.982401 41.816406 77.671875 C 41.764246 77.555466 41.506129 77.350517 41.242188 77.216797 C 40.424411 76.802939 39.307501 75.664119 39.367188 75.304688 C 39.417266 75.003081 39.496145 74.98514 40.544922 75.03125 C 41.801668 75.08681 42.882286 74.888699 43.445312 74.498047 L 43.820312 74.236328 L 43.361328 72.974609 C 43.108818 72.280726 42.92755 71.557485 42.958984 71.367188 C 43.010044 71.058022 43.125311 71.013092 44.042969 70.943359 C 45.6073 70.824682 46.428293 70.360761 46.943359 69.304688 C 47.552831 68.055062 46.217221 67.107917 44.814453 67.794922 C 44.191889 68.09993 43.615234 68.075604 43.615234 67.744141 C 43.615234 66.732097 44.726315 65.359 45.964844 64.839844 C 46.834562 64.475497 46.982617 64.459502 48.800781 64.533203 C 49.85612 64.575913 50.874189 64.661869 51.0625 64.724609 L 51.404297 64.837891 L 51.0625 64.503906 C 50.874204 64.320221 50.427343 64.041729 50.068359 63.884766 C 49.570902 63.667443 49.427954 63.523933 49.46875 63.28125 C 49.581796 62.608343 51.086546 62.388503 52.585938 62.826172 C 53.621095 63.128156 53.79987 62.993418 53.800781 61.902344 C 53.801295 61.30892 53.877101 61.039471 54.076172 60.931641 C 54.522047 60.690129 56.080943 61.562116 57.291016 62.728516 C 58.115947 63.52369 58.63833 63.872939 59.621094 64.289062 C 60.956609 64.85448 61.58167 64.882861 61.255859 64.361328 C 60.986379 63.930008 61.041104 63.497563 61.376953 63.40625 C 61.541778 63.36127 62.138241 63.39127 62.703125 63.46875 C 64.339747 63.698167 64.291077 63.71708 64.197266 62.880859 C 64.105046 62.058548 64.3642 61.906316 64.933594 62.445312 C 65.223672 62.720084 65.768892 62.890669 67.734375 63.324219 C 68.238073 63.435337 68.779724 63.728998 69.376953 64.212891 C 69.86712 64.610043 70.378947 64.935547 70.513672 64.935547 C 71.005895 64.935547 71.539724 64.451497 72.310547 63.306641 C 72.744032 62.662798 73.187935 62.159141 73.294922 62.189453 C 73.602046 62.276763 73.621504 64.468791 73.326172 65.6875 C 73.182021 66.28202 72.862155 67.379589 72.615234 68.126953 C 72.07593 69.759331 72.152307 70.031009 73.417969 70.945312 C 74.41435 71.665048 74.458826 71.924394 73.898438 73.783203 C 73.2641 75.887266 73.60584 77.84979 75.285156 81.726562 C 76.416683 84.338707 76.40385 84.577458 75.005859 86.314453 C 73.771541 87.848072 72.801793 88.392449 71.095703 88.509766 C 70.048506 88.581576 69.9741 88.564556 69.474609 88.136719 C 69.033765 87.759144 68.953125 87.575768 68.953125 86.970703 C 68.953125 85.996303 68.53013 84.83827 67.789062 83.78125 C 67.176626 82.90765 64.352083 80.333984 64.005859 80.333984 C 63.504222 80.333984 62.795026 82.481111 62.791016 84.013672 C 62.787716 85.291303 63.29205 86.924287 64.130859 88.353516 C 64.505751 88.992294 64.976664 89.94061 65.177734 90.460938 C 65.589744 91.527216 66.039496 93.835722 66.041016 94.896484 C 66.042216 95.710859 66.308689 96.217643 67.060547 96.830078 C 67.914104 97.52536 68.541335 98.495333 69.025391 99.873047 C 69.412017 100.97349 69.600766 101.26869 70.369141 101.96484 C 70.860944 102.41045 72.14964 103.28656 73.232422 103.91211 C 75.364941 105.14416 75.966158 105.79358 75.974609 106.87305 C 75.983709 108.04682 76.988226 109.47854 79.476562 111.86523 C 81.388085 113.69868 82.267927 114.86194 82.496094 115.85547 C 82.649618 116.52392 82.873785 116.91673 83.441406 117.51367 C 84.577699 118.70868 85.552747 120.33457 85.550781 121.03125 L 85.529297 122.0625 C 85.451737 122.64708 84.546946 122.91561 82.960938 122.82422 C 81.143907 122.71953 79.626007 121.77267 78.841797 120.25391 C 78.510332 119.61192 78.505076 119.32013 78.806641 117.83984 C 78.90865 117.33925 78.855179 117.22789 78.242188 116.6582 C 77.805157 116.25202 77.013913 115.05472 76.003906 113.27539 C 74.200006 110.09745 73.381927 109.04851 71.652344 107.69336 C 70.684369 106.93492 69.931712 106.52053 68.267578 105.82812 C 67.090641 105.33847 65.647062 104.64443 65.058594 104.28711 C 64.047608 103.6732 63.988281 103.65569 63.988281 103.97461 C 63.988281 104.16018 63.877757 104.76709 63.742188 105.32227 C 63.475882 106.4127 63.559549 107.5581 64.082031 109.9668 C 64.569156 112.2124 64.579598 112.4287 64.224609 112.76562 C 64.04735 112.93381 63.390525 113.29073 62.765625 113.56055 C 61.864533 113.94965 61.523886 114.19819 61.121094 114.75586 C 60.315204 115.87158 59.218665 116.98974 58.626953 117.29883 C 57.786859 117.73767 56.763152 117.67993 56.154297 117.1582 C 55.61811 116.69888 54.623837 114.57383 54.457031 113.53125 C 54.372411 113.00219 54.412651 112.89282 54.765625 112.70312 C 54.988957 112.58333 55.587731 112.44077 56.095703 112.38672 C 57.820543 112.20341 58.797654 111.52482 59.824219 109.79688 C 60.487273 108.68082 60.581222 107.18379 60.044922 106.2832 C 59.470366 105.31837 58.510058 104.40751 57.876953 104.22852 C 57.178239 104.03085 52.530353 104.30752 51.339844 104.61719 C 49.868961 104.99964 49.499098 104.91915 48.535156 104.01758 C 47.410728 102.96585 46.909276 102.84793 44.597656 103.07812 C 40.852092 103.45116 36.692513 103.04702 34.503906 102.0957 C 34.035543 101.89236 33.638525 101.74774 33.621094 101.77344 C 33.603704 101.79994 33.452627 102.29215 33.285156 102.87109 C 32.919033 104.13686 32.929927 104.16343 34.666016 105.99805 C 35.626968 107.01353 36.073214 107.3512 37.068359 107.81445 C 38.17115 108.32786 38.333057 108.46269 38.742188 109.20703 C 38.991445 109.66054 39.366763 110.23069 39.576172 110.47266 C 39.785595 110.71455 40.247192 111.3251 40.601562 111.83008 C 40.955931 112.33502 41.68281 113.07262 42.216797 113.46875 C 42.750787 113.86488 43.865439 114.68888 44.693359 115.30078 C 45.521284 115.91269 46.655165 116.61035 47.212891 116.85156 C 47.936043 117.16413 48.419421 117.51119 48.896484 118.06055 C 49.448318 118.69596 49.875132 118.97329 51.333984 119.63867 C 53.136592 120.46083 54.914063 121.71909 54.914062 122.17188 C 54.914062 122.5873 53.930049 123.39955 53.021484 123.73438 C 51.913195 124.14281 50.682211 124.25818 50.126953 124.00586 C 49.719637 123.82066 49.487022 123.56429 48.595703 122.29883 C 48.36912 121.97719 47.63887 121.32881 46.972656 120.85938 C 44.899888 119.3987 44.143531 118.74219 43.611328 117.94531 C 42.827677 116.77192 41.848568 116.09536 38.480469 114.39453 C 37.774306 114.03774 36.771758 113.46346 36.253906 113.11914 C 35.736051 112.77483 34.919552 112.32206 34.4375 112.11328 C 33.340273 111.63804 32.725529 111.02324 32.572266 110.24609 C 32.424486 109.49673 31.013377 107.83398 30.525391 107.83398 C 30.01469 107.83398 29.706691 108.89052 29.691406 110.69336 C 29.672126 112.95771 30.217538 114.06856 32.685547 116.79492 C 34.814713 119.147 34.87166 119.19475 36.195312 119.75586 C 37.676483 120.38375 37.916976 120.74486 37.259766 121.34766 C 37.101631 121.49269 36.931639 121.61946 36.757812 121.73828 A 63.999993 63.999967 0 0 0 64 127.90039 A 63.999993 63.999967 0 0 0 128 63.900391 A 63.999993 63.999967 0 0 0 64 -0.099609375 z M 90.734375 20.392578 C 95.780562 20.392578 99.866225 22.012444 102.99219 25.251953 C 106.11814 28.468633 107.67969 32.658573 107.67969 37.814453 C 107.67969 43.015839 106.11814 47.231194 102.99219 50.470703 C 99.888555 53.710061 95.802888 55.330078 90.734375 55.330078 C 85.822153 55.330078 81.779987 53.734868 78.609375 50.541016 C 75.438756 47.347164 73.851562 43.239613 73.851562 38.220703 C 73.851562 32.928004 75.369607 28.63853 78.40625 25.353516 C 81.4429 22.045522 85.554215 20.392578 90.734375 20.392578 z M 38.648438 22.072266 C 39.787177 22.072266 41.495955 22.102146 43.773438 22.177734 C 46.073248 22.253324 47.790942 22.283203 48.929688 22.283203 C 49.443233 22.283203 49.703125 22.638176 49.703125 23.345703 C 49.703125 23.985199 49.659505 24.951644 49.570312 26.251953 C 49.480964 27.529433 49.4375 28.504447 49.4375 29.166016 C 49.4375 31.538652 49.498872 33.472752 49.632812 34.978516 C 49.699782 35.754075 50.350062 37.216824 51.578125 39.361328 C 52.850843 41.619823 53.77884 42.751953 54.359375 42.751953 C 54.917581 42.751953 55.811002 41.643874 57.039062 39.431641 C 58.222463 37.355622 58.856004 35.942184 58.945312 35.189453 C 59.123933 33.569699 59.210937 31.602979 59.210938 29.298828 C 59.210938 28.636655 59.149568 27.645403 59.015625 26.322266 C 58.881679 24.976754 58.8125 23.984594 58.8125 23.345703 C 58.8125 22.638176 59.046752 22.283203 59.515625 22.283203 C 60.051502 22.283203 60.841198 22.297895 61.890625 22.328125 C 62.962393 22.358365 63.768811 22.359375 64.304688 22.359375 C 64.840562 22.359375 65.646989 22.313365 66.71875 22.222656 C 67.812833 22.131946 68.628184 22.087891 69.164062 22.087891 C 69.722268 22.087891 70.086989 22.383935 70.265625 22.976562 C 70.645226 24.27672 70.835936 26.921825 70.835938 30.914062 C 70.835938 34.81514 70.714419 37.1209 70.46875 37.828125 C 69.955203 39.447879 68.411501 42.192066 65.84375 46.070312 C 63.610922 49.401135 61.702493 52.004285 60.117188 53.875 C 59.536652 54.582528 57.784378 54.939453 54.859375 54.939453 C 52.31395 54.939453 50.665417 54.848943 49.90625 54.666016 C 49.437362 54.545071 49.046957 54.319744 48.734375 53.976562 C 47.394653 52.493478 45.486253 49.91513 43.007812 46.242188 C 40.35075 42.295607 38.763551 39.59292 38.25 38.132812 C 37.691794 36.558717 37.414064 34.202881 37.414062 31.054688 C 37.414062 30.164231 37.422964 28.826277 37.445312 27.046875 C 37.467682 25.244645 37.476562 23.889092 37.476562 22.976562 C 37.476562 22.383935 37.866937 22.085937 38.648438 22.085938 L 38.648438 22.072266 z "
       transform="matrix(0.26458333,0,0,0.26458333,0,263.13333)"
       id="path1592" />
    <path
       style="fill:#ffffff;fill-opacity:1;stroke-width:4.41379213"
       d="m 90.796875,30.970703 c -1.763936,0 -3.212817,0.70304 -4.351563,2.117188 -1.071753,1.322834 -1.609374,2.901504 -1.609374,4.726562 0,1.847887 0.537614,3.434524 1.609374,4.757813 1.138742,1.413543 2.587627,2.117187 4.351563,2.117187 1.741606,0 3.181567,-0.703039 4.320313,-2.117187 1.049423,-1.322835 1.578124,-2.909926 1.578124,-4.757813 0,-1.80223 -0.546534,-3.389019 -1.640624,-4.757812 -1.094083,-1.390867 -2.516207,-2.085938 -4.257813,-2.085938 z"
       transform="matrix(0.26458333,0,0,0.26458333,0,263.13333)"
       id="path1586" />
    <path
       style="fill:#ffffff;fill-opacity:1;stroke-width:4.41379213"
       d="m 11.625,90.962891 c -0.230471,-0.01138 -0.502999,0.06112 -0.822266,0.214843 -1.5480299,0.745361 -2.1603205,2.477115 -1.4843746,4.199219 0.1560189,0.397531 0.6595425,1.297802 1.1191406,2 0.459598,0.702199 0.991315,1.659501 1.181641,2.126953 0.182022,0.447029 0.278813,0.991924 0.326171,1.542974 a 63.999995,63.999969 0 0 0 16.878907,16.28124 c -1.498547,-2.37255 -3.60004,-5.4887 -4.810547,-7.09179 -0.936189,-1.2398 -1.336298,-2.10197 -1.175781,-2.53711 0.06198,-0.16781 0.302497,-0.5178 0.533203,-0.77734 0.230702,-0.25966 0.713553,-1.11486 1.074218,-1.9004 0.728006,-1.58562 0.707516,-1.78489 -0.222656,-2.19531 -1.033436,-0.45596 -1.702784,-0.99245 -2.375,-1.90429 -0.833359,-1.130424 -1.611803,-1.737967 -3.734375,-2.917974 -1.702915,-0.946696 -2.637975,-1.729931 -3.767578,-3.15039 -0.740194,-0.930785 -1.574922,-2.316295 -1.880859,-3.125 -0.186851,-0.49389 -0.455726,-0.746668 -0.839844,-0.765625 z"
       transform="matrix(0.26458333,0,0,0.26458333,0,263.13333)"
       id="path3719" />
    <text
       xml:space="preserve"
       style="font-style:normal;font-weight:normal;font-size:10.58333302px;line-height:1.25;font-family:sans-serif;letter-spacing:0px;word-spacing:0px;fill:#000000;fill-opacity:1;stroke:none;stroke-width:0.26458332"
       x="4.2333331"
       y="287.47501"
       id="text4535"><tspan
         sodipodi:role="line"
         id="tspan4533"
         x="4.2333331"
         y="297.13049"
         style="stroke-width:0.26458332" /></text>
  </g>
</svg>
