<?xml version="1.0" encoding="UTF-8" standalone="no"?>
<!-- Created with Inkscape (http://www.inkscape.org/) -->

<svg
   xmlns:dc="http://purl.org/dc/elements/1.1/"
   xmlns:cc="http://creativecommons.org/ns#"
   xmlns:rdf="http://www.w3.org/1999/02/22-rdf-syntax-ns#"
   xmlns:svg="http://www.w3.org/2000/svg"
   xmlns="http://www.w3.org/2000/svg"
   xmlns:sodipodi="http://sodipodi.sourceforge.net/DTD/sodipodi-0.dtd"
   xmlns:inkscape="http://www.inkscape.org/namespaces/inkscape"
   id="svg8"
   version="1.1"
   viewBox="0 0 8.4666667 8.4666667"
   height="32"
   width="32"
   inkscape:version="0.92.4 (5da689c313, 2019-01-14)"
   sodipodi:docname="EvoIconSmall.svg"
   shape-rendering="crispEdges"
   inkscape:export-filename="D:\Dysk Google\Studia III stopnia\Projekty i prace własne\BIM\IN PROG_Optio\_EVO Icons\EvoIconSmall.png"
   inkscape:export-xdpi="96"
   inkscape:export-ydpi="96">
  <defs
     id="defs2" />
  <sodipodi:namedview
     id="base"
     pagecolor="#ffffff"
     bordercolor="#666666"
     borderopacity="1.0"
     inkscape:pageopacity="0.0"
     inkscape:pageshadow="2"
     inkscape:zoom="26.5"
     inkscape:cx="6.6226415"
     inkscape:cy="16"
     inkscape:document-units="mm"
     inkscape:current-layer="layer1"
     showgrid="true"
     units="px"
     inkscape:snap-grids="true"
     inkscape:snap-page="true"
     inkscape:window-width="1920"
     inkscape:window-height="1017"
     inkscape:window-x="-8"
     inkscape:window-y="-8"
     inkscape:window-maximized="1"
     inkscape:pagecheckerboard="true">
    <inkscape:grid
       type="xygrid"
       id="grid3713" />
  </sodipodi:namedview>
  <metadata
     id="metadata5">
    <rdf:RDF>
      <cc:Work
         rdf:about="">
        <dc:format>image/svg+xml</dc:format>
        <dc:type
           rdf:resource="http://purl.org/dc/dcmitype/StillImage" />
        <dc:title />
      </cc:Work>
    </rdf:RDF>
  </metadata>
  <g
     inkscape:label="Layer 1"
     inkscape:groupmode="layer"
     id="layer1"
     transform="translate(0,-288.53333)">
    <path
       style="fill:#ffffff;fill-opacity:1;stroke-width:0.29195401"
       d="m 4.2333332,288.53333 a 4.233333,4.233333 0 0 0 -2.0799763,0.55242 c 0.00736,0.0405 0.017103,0.1325 0.031006,0.29869 0.016246,0.17504 0.024288,0.28112 0.024288,0.31884 0,0.0317 -0.014903,0.0476 -0.044442,0.0476 -0.00886,0 -0.024355,-5.6e-4 -0.046509,-0.002 -0.2933265,-0.0248 -0.5567698,-0.0376 -0.8056356,-0.0439 a 4.233333,4.233333 0 0 0 -0.37258707,0.40825 c 0.00342,0.006 0.00484,0.0157 0.00878,0.0202 0.025108,0.0287 0.073285,0.0434 0.14417727,0.0434 0.014769,0 0.043469,-10e-4 0.0863,-0.003 0.042831,-0.003 0.077875,-0.005 0.1059367,-0.005 0.1860922,0 0.3748172,-0.005 0.5653402,-0.0155 l 0.1214396,-0.0114 c 0.050215,-0.006 0.090351,-0.009 0.1198893,-0.009 0.035446,0 0.053227,0.0175 0.053227,0.0522 0,-0.0317 -0.013206,0.0837 -0.039791,0.34624 -0.011815,0.12072 -0.018087,0.24153 -0.018087,0.36225 0,0.0302 -0.021248,0.0455 -0.064079,0.0455 l -0.199471,-0.0227 c -0.084185,-0.009 -0.2758602,-0.0134 -0.5756755,-0.0134 H 1.0123413 c -0.060554,0 -0.096115,0.0148 -0.10645347,0.045 -0.00148,0.008 -0.00207,0.0546 -0.00207,0.14056 0,0.11468 0.00745,0.18849 0.022221,0.22169 0.025108,0.0573 0.11976517,0.0912 0.28370357,0.1018 h 0.3234979 c 0.078277,0 0.1941824,-0.007 0.3477823,-0.0202 0.1550769,-0.0151 0.2709825,-0.0227 0.3477824,-0.0227 0.032492,0 0.048576,0.0273 0.048576,0.0817 0,0.0649 -0.012616,0.18407 -0.037724,0.3576 -0.026585,0.18863 -0.05012,0.30072 -0.070797,0.33693 -0.017723,0.0287 -0.041848,0.0434 -0.072864,0.0434 -0.013292,0 -0.035647,-0.003 -0.066663,-0.007 -0.1078153,-0.0151 -0.4222581,-0.0222 -0.9436117,-0.0222 -0.11372297,0 -0.28297027,-0.001 -0.50746247,-0.003 -0.22449218,-0.002 -0.39314942,-0.002 -0.50539551,-0.002 -0.009887,0 -0.0143396,-0.005 -0.0222209,-0.007 A 4.233333,4.233333 0 0 0 1.6666666e-8,292.76666 4.233333,4.233333 0 0 0 4.2333332,297 4.233333,4.233333 0 0 0 8.4666665,292.76666 4.233333,4.233333 0 0 0 4.2333332,288.53333 Z m 1.7683676,1.35547 c 0.3337843,0 0.604034,0.10715 0.8108032,0.32143 0.2067689,0.21277 0.3100586,0.48992 0.3100586,0.83096 0,0.34405 -0.1032897,0.62288 -0.3100586,0.83716 -0.2052923,0.21427 -0.475542,0.32142 -0.8108032,0.32142 -0.3249229,0 -0.5922954,-0.10551 -0.8020182,-0.31677 -0.2097231,-0.21126 -0.3147095,-0.48296 -0.3147095,-0.81494 0,-0.35009 0.1004121,-0.63382 0.3012734,-0.85111 0.2008616,-0.21881 0.4728083,-0.32815 0.8154543,-0.32815 z m -3.4452678,0.11111 c 0.075323,0 0.1883513,0.002 0.3389973,0.007 0.152123,0.005 0.2657414,0.007 0.3410646,0.007 0.033969,0 0.05116,0.0235 0.05116,0.0703 0,0.0423 -0.00288,0.10623 -0.00878,0.19224 -0.00591,0.0845 -0.00878,0.14899 -0.00878,0.19275 0,0.15694 0.00406,0.28488 0.01292,0.38448 0.00443,0.0513 0.047443,0.14805 0.1286742,0.2899 0.084185,0.14939 0.1455682,0.22428 0.1839683,0.22428 0.036923,0 0.096019,-0.0733 0.1772502,-0.21963 0.078277,-0.13732 0.1201827,-0.23081 0.1260903,-0.2806 0.011816,-0.10714 0.017571,-0.23723 0.017571,-0.38964 0,-0.0438 -0.00406,-0.10937 -0.01292,-0.19689 -0.00886,-0.089 -0.013435,-0.15463 -0.013435,-0.19689 0,-0.0468 0.015494,-0.0703 0.046509,-0.0703 0.035446,0 0.087681,10e-4 0.1570963,0.003 0.070893,0.002 0.1242341,0.002 0.1596803,0.002 0.035446,0 0.088788,-0.003 0.1596803,-0.009 0.072369,-0.006 0.1263009,-0.009 0.1617472,-0.009 0.036923,0 0.061048,0.0197 0.072864,0.0589 0.025109,0.086 0.037724,0.26096 0.037724,0.52503 0,0.25804 -0.00804,0.41056 -0.024289,0.45734 -0.033969,0.10714 -0.1360787,0.28865 -0.3059245,0.54518 -0.1476923,0.22032 -0.2739268,0.39251 -0.3787883,0.51625 -0.0384,0.0468 -0.1543056,0.0703 -0.3477824,0.0703 -0.1683692,0 -0.2774132,-0.006 -0.3276288,-0.0181 -0.031015,-0.008 -0.056838,-0.0228 -0.077514,-0.0455 -0.088617,-0.0981 -0.2148517,-0.26865 -0.3787902,-0.5116 -0.1757537,-0.26105 -0.2807402,-0.43982 -0.3147094,-0.5364 -0.036923,-0.10412 -0.055294,-0.25995 -0.055294,-0.46819 0,-0.0589 5.9e-4,-0.1474 0.00207,-0.2651 0.00148,-0.11921 0.00207,-0.20887 0.00207,-0.26923 0,-0.0392 0.025822,-0.0589 0.077515,-0.0589 z m 3.4494019,0.58859 c -0.116677,0 -0.2125146,0.0465 -0.2878378,0.14004 -0.070892,0.0875 -0.1064535,0.19193 -0.1064535,0.31265 0,0.12223 0.035561,0.22718 0.1064535,0.31471 0.075323,0.0935 0.1711608,0.14004 0.2878378,0.14004 0.1151999,0 0.2104475,-0.0465 0.2857707,-0.14004 0.069415,-0.0875 0.1043863,-0.19248 0.1043863,-0.31471 0,-0.11921 -0.036151,-0.22417 -0.1085205,-0.31471 -0.072369,-0.092 -0.1664366,-0.13798 -0.2816365,-0.13798 z"
       id="path3719"
       inkscape:connector-curvature="0" />
    <text
       xml:space="preserve"
       style="font-style:normal;font-weight:normal;font-size:10.58333302px;line-height:1.25;font-family:sans-serif;letter-spacing:0px;word-spacing:0px;fill:#000000;fill-opacity:1;stroke:none;stroke-width:0.26458332"
       x="4.2333331"
       y="287.47501"
       id="text4535"><tspan
         sodipodi:role="line"
         id="tspan4533"
         x="4.2333331"
         y="297.13049"
         style="stroke-width:0.26458332" /></text>
  </g>
</svg>
