<?xml version="1.0" encoding="UTF-8" standalone="no"?>
<!-- Created with Inkscape (http://www.inkscape.org/) -->

<svg
   xmlns:dc="http://purl.org/dc/elements/1.1/"
   xmlns:cc="http://creativecommons.org/ns#"
   xmlns:rdf="http://www.w3.org/1999/02/22-rdf-syntax-ns#"
   xmlns:svg="http://www.w3.org/2000/svg"
   xmlns="http://www.w3.org/2000/svg"
   xmlns:sodipodi="http://sodipodi.sourceforge.net/DTD/sodipodi-0.dtd"
   xmlns:inkscape="http://www.inkscape.org/namespaces/inkscape"
   id="svg8"
   version="1.1"
   viewBox="0 0 33.866667 33.866667"
   height="128"
   width="128"
   inkscape:version="0.92.4 (5da689c313, 2019-01-14)"
   sodipodi:docname="EvoIconBasic.svg"
   inkscape:export-filename="D:\Dysk Google\Studia III stopnia\Projekty i prace własne\BIM\IN PROG_Optio\_EVO Icons\EvoIconSmall.png"
   inkscape:export-xdpi="96"
   inkscape:export-ydpi="96"
   style="shape-rendering:crispEdges">
  <defs
     id="defs2" />
  <sodipodi:namedview
     id="base"
     pagecolor="#ffffff"
     bordercolor="#666666"
     borderopacity="1.0"
     inkscape:pageopacity="0.0"
     inkscape:pageshadow="2"
     inkscape:zoom="6.6250001"
     inkscape:cx="63.999999"
     inkscape:cy="64.000001"
     inkscape:document-units="mm"
     inkscape:current-layer="layer1"
     showgrid="true"
     units="px"
     inkscape:snap-grids="true"
     inkscape:snap-page="true"
     inkscape:window-width="1920"
     inkscape:window-height="1017"
     inkscape:window-x="-8"
     inkscape:window-y="-8"
     inkscape:window-maximized="1"
     inkscape:pagecheckerboard="true">
    <inkscape:grid
       type="xygrid"
       id="grid3713" />
  </sodipodi:namedview>
  <metadata
     id="metadata5">
    <rdf:RDF>
      <cc:Work
         rdf:about="">
        <dc:format>image/svg+xml</dc:format>
        <dc:type
           rdf:resource="http://purl.org/dc/dcmitype/StillImage" />
        <dc:title></dc:title>
      </cc:Work>
    </rdf:RDF>
  </metadata>
  <g
     inkscape:label="Layer 1"
     inkscape:groupmode="layer"
     id="layer1"
     transform="translate(0,-263.13333)">
    <path
       style="fill:#ffffff;fill-opacity:1;stroke-width:4.41379213"
       d="M 64 0 A 63.999995 63.999969 0 0 0 32.554688 8.3515625 C 32.665957 8.963846 32.81325 10.354709 33.023438 12.867188 C 33.269046 15.513462 33.390625 17.117245 33.390625 17.6875 C 33.390625 18.166744 33.165324 18.40625 32.71875 18.40625 C 32.584804 18.40625 32.350552 18.39963 32.015625 18.376953 C 27.581083 18.002024 23.598318 17.808135 19.835938 17.712891 A 63.999995 63.999969 0 0 0 14.203125 23.884766 C 14.254829 23.975474 14.276372 24.123375 14.335938 24.191406 C 14.715523 24.625296 15.443868 24.845703 16.515625 24.845703 C 16.738904 24.845703 17.172788 24.831017 17.820312 24.800781 C 18.467836 24.755427 18.997635 24.726562 19.421875 24.726562 C 22.235237 24.726562 25.088402 24.650928 27.96875 24.492188 L 29.804688 24.318359 C 30.563843 24.227651 31.170624 24.183594 31.617188 24.183594 C 32.125107 24.183594 32.385528 24.42889 32.412109 24.900391 C 32.367347 24.980933 32.170571 26.74806 31.820312 30.207031 C 31.641692 32.03209 31.546875 33.858535 31.546875 35.683594 C 31.546875 36.140161 31.225649 36.371094 30.578125 36.371094 L 27.5625 36.027344 C 26.289782 35.891281 23.392016 35.826172 18.859375 35.826172 L 15.304688 35.826172 C 14.389225 35.826172 13.851611 36.049292 13.695312 36.505859 C 13.672938 36.626804 13.664062 37.331307 13.664062 38.630859 C 13.664062 40.364604 13.77669 41.480501 14 41.982422 C 14.379586 42.84869 15.810623 43.361232 18.289062 43.521484 L 23.179688 43.521484 C 24.363088 43.521484 26.11536 43.414403 28.4375 43.214844 C 30.78197 42.98656 32.534243 42.873047 33.695312 42.873047 C 34.18653 42.873047 34.429688 43.284997 34.429688 44.107422 C 34.429688 45.088587 34.238961 46.890226 33.859375 49.513672 C 33.45746 52.365401 33.10166 54.059995 32.789062 54.607422 C 32.521124 55.041312 32.156403 55.263672 31.6875 55.263672 C 31.48655 55.263672 31.148591 55.218676 30.679688 55.158203 C 29.049724 54.92992 24.295944 54.822266 16.414062 54.822266 C 14.694786 54.822266 12.136085 54.80758 8.7421875 54.777344 C 5.3482901 54.747108 2.7985113 54.746094 1.1015625 54.746094 C 0.95208974 54.746094 0.88477536 54.670861 0.765625 54.640625 A 63.999995 63.999969 0 0 0 0 64 A 63.999995 63.999969 0 0 0 64 128 A 63.999995 63.999969 0 0 0 128 64 A 63.999995 63.999969 0 0 0 64 0 z M 90.734375 20.492188 C 95.780562 20.492188 99.866227 22.112054 102.99219 25.351562 C 106.11814 28.568243 107.67969 32.758182 107.67969 37.914062 C 107.67969 41.578186 106.88873 44.742588 105.33789 47.431641 C 107.76375 47.194636 109.63086 47.635509 109.63086 48.824219 C 109.63086 49.064483 109.7198 49.491107 109.82812 49.773438 C 109.99678 50.212845 109.68037 50.287109 107.61719 50.287109 C 106.29238 50.287109 104.41437 50.519711 103.44531 50.804688 C 103.0742 50.913773 102.69862 51.056716 102.32617 51.197266 C 101.45477 52.008813 100.5136 52.706121 99.5 53.283203 C 100.79295 55.006134 112.85921 67.950534 113.30469 68.054688 C 113.83127 68.178051 115.73331 65.187486 116.53125 62.980469 C 116.9231 61.896651 117.25492 59.993228 117.3457 58.298828 L 117.49805 55.443359 L 118.51172 55.65625 C 119.06929 55.773567 119.65642 55.992531 119.81641 56.142578 C 119.9764 56.292701 120.1734 57.482164 120.25391 58.785156 C 120.74422 66.719745 115.33692 74.027643 107.45703 76.080078 C 103.60748 77.082749 98.655322 76.706017 89.792969 74.738281 C 88.949133 74.550968 88.91797 74.601555 88.369141 77.095703 C 87.001473 83.311212 84.815479 87.974869 81.720703 91.283203 C 76.744702 96.602548 70.330935 97.739826 59.351562 95.246094 C 57.478217 94.820632 55.900393 94.513807 55.845703 94.564453 C 55.791021 94.615212 55.33079 96.460812 54.822266 98.666016 C 52.961907 106.73353 51.312502 110.25272 47.6875 113.89062 C 45.218505 116.36841 43.410388 117.48117 40.597656 118.25586 L 40.597656 118.25781 C 38.357708 118.87369 34.866185 118.85444 34.234375 118.22266 C 33.953992 117.94229 33.724609 117.51772 33.724609 117.27734 C 33.724609 117.03708 33.635654 116.6085 33.527344 116.32617 C 33.358457 115.8862 33.69282 115.80809 35.878906 115.79297 C 38.562749 115.77211 41.996094 114.92516 41.996094 114.2832 C 41.996094 114.0785 39.16773 110.46778 35.710938 106.25977 C 31.131545 100.68519 29.320661 98.696176 29.037109 98.931641 C 28.404138 99.456957 26.90951 102.6258 26.410156 104.50195 C 26.155213 105.45976 25.945689 107.24054 25.943359 108.45898 L 25.939453 110.67578 L 24.884766 110.45312 C 24.30492 110.33112 23.699054 110.10708 23.539062 109.95703 C 23.379069 109.80687 23.182082 108.6194 23.101562 107.31641 C 22.611247 99.381817 28.018545 92.073919 35.898438 90.021484 C 39.747988 89.018814 44.7021 89.393593 53.564453 91.361328 C 54.408289 91.548642 54.437495 91.500045 54.986328 89.005859 C 56.353996 82.790389 58.53999 78.124778 61.634766 74.816406 C 66.610763 69.497061 73.02453 68.361736 84.003906 70.855469 C 85.877252 71.28093 87.455076 71.585802 87.509766 71.535156 C 87.564448 71.484435 88.026632 69.638797 88.535156 67.433594 C 89.884351 61.582734 91.130623 58.1354 93.091797 55.289062 C 92.328449 55.372633 91.548426 55.429688 90.734375 55.429688 C 85.822153 55.429688 81.779987 53.834477 78.609375 50.640625 C 75.438756 47.446773 73.851562 43.339223 73.851562 38.320312 C 73.851562 33.027613 75.369607 28.738139 78.40625 25.453125 C 81.4429 22.145131 85.554215 20.492188 90.734375 20.492188 z M 38.648438 22.171875 C 39.787179 22.171875 41.495955 22.201753 43.773438 22.277344 C 46.07325 22.352934 47.790942 22.382812 48.929688 22.382812 C 49.443235 22.382812 49.703125 22.739738 49.703125 23.447266 C 49.703125 24.086762 49.659509 25.053207 49.570312 26.353516 C 49.480964 27.630996 49.4375 28.60601 49.4375 29.267578 C 49.4375 31.640214 49.498866 33.574314 49.632812 35.080078 C 49.699786 35.855637 50.350062 37.318387 51.578125 39.462891 C 52.850843 41.721385 53.778836 42.853516 54.359375 42.853516 C 54.917581 42.853516 55.811 41.745436 57.039062 39.533203 C 58.222463 37.457184 58.855998 36.043746 58.945312 35.291016 C 59.123933 33.671261 59.210937 31.704542 59.210938 29.400391 C 59.210938 28.738217 59.149571 27.746965 59.015625 26.423828 C 58.881679 25.078316 58.8125 24.086157 58.8125 23.447266 C 58.8125 22.739738 59.046752 22.382812 59.515625 22.382812 C 60.051502 22.382812 60.841198 22.399451 61.890625 22.429688 C 62.962393 22.459924 63.768811 22.458984 64.304688 22.458984 C 64.840564 22.458984 65.646989 22.412974 66.71875 22.322266 C 67.812833 22.231557 68.628182 22.1875 69.164062 22.1875 C 69.722268 22.1875 70.086989 22.485495 70.265625 23.078125 C 70.645226 24.378282 70.835938 27.023386 70.835938 31.015625 C 70.835938 34.916702 70.714419 37.222462 70.46875 37.929688 C 69.955203 39.549442 68.411501 42.293626 65.84375 46.171875 C 63.610922 49.502697 61.702495 52.105848 60.117188 53.976562 C 59.536652 54.68409 57.784382 55.039062 54.859375 55.039062 C 52.313954 55.039062 50.665417 54.948554 49.90625 54.765625 C 49.437362 54.64468 49.046957 54.421306 48.734375 54.078125 C 47.394653 52.595038 45.486253 50.014742 43.007812 46.341797 C 40.350752 42.395214 38.763551 39.692529 38.25 38.232422 C 37.691793 36.658324 37.414062 34.302492 37.414062 31.154297 C 37.414062 30.26384 37.422938 28.925886 37.445312 27.146484 C 37.467687 25.344254 37.476563 23.990654 37.476562 23.078125 C 37.476562 22.485495 37.866937 22.1875 38.648438 22.1875 L 38.648438 22.171875 z M 90.796875 31.070312 C 89.032939 31.070312 87.584058 31.773352 86.445312 33.1875 C 85.373559 34.510335 84.835938 36.089004 84.835938 37.914062 C 84.835938 39.761949 85.373552 41.348587 86.445312 42.671875 C 87.584054 44.085418 89.032939 44.789062 90.796875 44.789062 C 92.538481 44.789062 93.978442 44.086023 95.117188 42.671875 C 96.166611 41.34904 96.695312 39.761949 96.695312 37.914062 C 96.695312 36.111833 96.148778 34.525044 95.054688 33.15625 C 93.960605 31.765384 92.538481 31.070312 90.796875 31.070312 z M 96.519531 55.101562 L 95.636719 56.181641 C 93.414942 58.901767 93.002909 58.055477 100.26172 65.697266 C 103.81971 69.443004 106.83642 72.540015 106.96484 72.580078 C 107.37547 72.70862 110.44336 70.89654 110.44336 70.525391 C 110.44336 70.328931 107.30943 66.778186 103.48047 62.634766 L 96.519531 55.101562 z M 92.425781 61.873047 C 92.298868 62.013078 91.888601 62.964193 91.513672 63.986328 L 90.832031 65.84375 L 94.255859 69.744141 L 97.681641 73.642578 L 100.73828 73.642578 C 102.41855 73.642578 103.79297 73.554163 103.79297 73.445312 C 103.79297 72.995927 92.637624 61.639472 92.425781 61.873047 z M 90.197266 69.359375 C 90.160544 69.348105 90.135527 69.34988 90.121094 69.365234 C 90.005633 69.487993 89.81496 70.180959 89.697266 70.90625 L 89.482422 72.224609 L 91.148438 72.609375 C 93.8416 73.231032 93.902328 73.128391 92.056641 71.068359 C 91.226109 70.141317 90.454318 69.438267 90.197266 69.359375 z M 74.90625 72.345703 C 73.665783 72.345703 72.650391 72.414141 72.650391 72.498047 C 72.650391 72.582217 74.855808 75.464738 77.550781 78.904297 C 80.245751 82.34378 82.573957 85.205404 82.724609 85.261719 C 82.997484 85.363993 84.654297 82.379147 84.654297 81.785156 C 84.654297 81.613377 82.96839 79.420481 80.908203 76.910156 L 77.162109 72.345703 L 74.90625 72.345703 z M 81.726562 72.818359 C 81.577971 72.807269 81.483988 72.810882 81.460938 72.833984 C 81.39853 72.896347 82.333764 74.126557 83.539062 75.566406 C 84.744354 77.006331 85.772036 78.183594 85.822266 78.183594 C 86.231932 78.183594 87.059663 74.29505 86.71875 73.972656 C 86.449593 73.718176 82.766706 72.895995 81.726562 72.818359 z M 69.527344 73.419922 C 69.219932 73.301963 66.710986 74.350427 66.199219 74.810547 C 66.129263 74.8734 68.664887 78.395031 71.835938 82.636719 C 75.006988 86.878407 77.704825 90.463673 77.830078 90.603516 C 77.955335 90.74332 78.702278 90.279403 79.490234 89.574219 C 80.839896 88.366395 80.897571 88.249513 80.46875 87.537109 C 79.560409 86.028057 69.898985 73.56241 69.527344 73.419922 z M 63.275391 77.277344 C 63.121893 77.224884 62.443172 77.935154 61.767578 78.855469 C 60.807729 80.163072 60.612739 80.645933 60.875 81.060547 C 61.059607 81.352364 63.278239 84.326653 65.806641 87.671875 C 68.335043 91.017135 70.509538 93.745714 70.636719 93.734375 C 71.34942 93.668573 74.469194 92.716126 74.6875 92.498047 C 74.933695 92.251848 63.854728 77.475391 63.275391 77.277344 z M 58.800781 84.248047 C 58.742529 84.224377 58.702663 84.231136 58.675781 84.259766 C 58.265026 84.697019 56.721522 89.966354 56.65625 91.154297 L 56.59375 92.294922 L 60 93 L 60 92.998047 C 61.873346 93.385826 64.11282 93.713398 64.976562 93.728516 L 66.546875 93.753906 L 64.839844 91.564453 C 60.5315 86.035467 59.208544 84.413739 58.800781 84.248047 z M 42.392578 92.455078 L 41.058594 92.490234 C 37.756077 92.570323 37.638538 92.256017 43.777344 99.757812 C 46.842155 103.50306 49.486574 106.61531 49.652344 106.67578 C 49.941867 106.78112 51.00246 104.6623 51.017578 103.94922 C 51.021584 103.75907 49.083151 101.09517 46.708984 98.029297 L 42.392578 92.455078 z M 46.509766 92.523438 C 46.250876 92.582096 47.22593 94.140859 49.003906 96.511719 C 50.60948 98.65267 52.037892 100.44658 52.177734 100.49609 C 52.437875 100.58854 54.016212 94.150978 53.789062 93.923828 C 53.563017 93.697775 46.945522 92.424792 46.509766 92.523438 z M 34.910156 94.080078 L 33.634766 94.832031 C 32.933387 95.24623 32.383222 95.721175 32.414062 95.886719 C 32.444875 96.052149 35.271017 99.790764 38.693359 104.19531 C 42.11571 108.59994 45.069781 112.21327 45.257812 112.22461 C 45.445833 112.2358 46.083035 111.74624 46.673828 111.13672 C 47.629954 110.15026 47.698873 109.96143 47.304688 109.41797 C 47.061116 109.08216 44.173736 105.49346 40.886719 101.44336 L 34.910156 94.080078 z "
       transform="matrix(0.26458333,0,0,0.26458333,0,263.13333)"
       id="path3719" />
    <text
       xml:space="preserve"
       style="font-style:normal;font-weight:normal;font-size:10.58333302px;line-height:1.25;font-family:sans-serif;letter-spacing:0px;word-spacing:0px;fill:#000000;fill-opacity:1;stroke:none;stroke-width:0.26458332"
       x="4.2333331"
       y="287.47501"
       id="text4535"><tspan
         sodipodi:role="line"
         id="tspan4533"
         x="4.2333331"
         y="297.13049"
         style="stroke-width:0.26458332" /></text>
  </g>
</svg>
